<svg width="32" height="40" viewBox="0 0 32 40" fill="none" xmlns="http://www.w3.org/2000/svg">
<path d="M28.5091 32.1887L28.3815 32.2604V32.4067V39.4009L25.4389 36.489L25.2631 36.3149L25.0872 36.489L22.1447 39.4009V32.4067V32.2612L22.0182 32.1893C20.7814 31.4861 19.8149 30.3983 19.2685 29.0956C18.7221 27.7929 18.6265 26.3482 18.9962 24.9863C19.366 23.6243 20.1807 22.421 21.3139 21.5642C22.4469 20.7076 23.8346 20.2454 25.2611 20.25C25.8088 20.2569 26.3534 20.3334 26.8813 20.4778L27.1973 20.5642V20.2367V5C27.1973 4.49082 26.9929 4.00303 26.6298 3.64379C26.2669 3.28464 25.7752 3.08333 25.2631 3.08333H5.05262C4.54047 3.08333 4.04878 3.28464 3.68585 3.64379C3.32284 4.00303 3.11841 4.49082 3.11841 5V33.3333V33.5833H3.36841H18.2763V36.4167H0.25V5C0.25 3.74107 0.755346 2.53317 1.65573 1.64217C2.55619 0.751074 3.77804 0.25 5.05262 0.25H25.2631C26.5377 0.25 27.7595 0.751074 28.66 1.64217C29.5603 2.53317 30.0657 3.74107 30.0657 5V22.3033V22.3993L30.1299 22.4706C30.7646 23.176 31.2318 24.0127 31.4973 24.9196C31.7628 25.8264 31.82 26.7804 31.6647 27.7118C31.5094 28.6433 31.1456 29.5288 30.5997 30.3034C30.0537 31.078 29.3395 31.7222 28.5091 32.1887ZM6.98682 20.25H14.9078V23.0833H6.98682V20.25ZM6.98682 13.5833H23.3289V16.4167H6.98682V13.5833ZM6.98682 6.91667H23.3289V9.75H6.98682V6.91667ZM28.8815 26.6667C28.8815 25.9574 28.6689 25.2642 28.271 24.6749C27.8731 24.0856 27.3078 23.6266 26.6469 23.3557C25.9861 23.0849 25.259 23.014 24.5577 23.1521C23.8562 23.2902 23.2116 23.631 22.7054 24.1319C22.1992 24.6329 21.8541 25.2715 21.7143 25.9671C21.5745 26.6627 21.6463 27.3837 21.9205 28.0388C22.1947 28.6939 22.6588 29.2533 23.2538 29.6468C23.8488 30.0402 24.548 30.25 25.2631 30.25C26.2219 30.25 27.142 29.8731 27.8208 29.2014C28.4996 28.5296 28.8815 27.6179 28.8815 26.6667Z" fill="#169FDB" stroke="black" stroke-width="0.5"/>
</svg>
