<svg width="40" height="40" viewBox="0 0 40 40" fill="none" xmlns="http://www.w3.org/2000/svg">
<g clip-path="url(#clip0_2098_4456)">
<path d="M39.75 9.99897V33.0823H21.6667H21.4167V33.3323V36.6656V36.9156H21.6667H28.0833V39.749H11.9167V36.9156H18.3333H18.5833V36.6656V33.3323V33.0823H18.3333H0.25V9.99897C0.25 8.73919 0.750445 7.53101 1.64124 6.64021C2.53204 5.74941 3.74022 5.24897 5 5.24897H6.66667H6.91662L6.91667 4.99902C6.91682 4.26392 7.08758 3.53888 7.41552 2.88098C7.74346 2.22307 8.21962 1.65026 8.80652 1.20763C9.39342 0.764998 10.0751 0.464624 10.7978 0.330151C11.5204 0.195684 12.2644 0.230776 12.9713 0.432666C12.9713 0.432673 12.9713 0.43268 12.9713 0.432688L17.9713 1.86266C18.6622 2.0603 19.2989 2.41327 19.8326 2.89461L20 3.04563L20.1674 2.89461C20.7011 2.41327 21.3378 2.0603 22.0287 1.86267L27.0287 0.432688C27.0287 0.43268 27.0287 0.432673 27.0287 0.432666C27.7356 0.230777 28.4796 0.195684 29.2022 0.330151C29.9249 0.464624 30.6066 0.764997 31.1935 1.20763C31.7804 1.65026 32.2565 2.22307 32.5845 2.88098C32.9124 3.53888 33.0832 4.26392 33.0833 4.99902L33.0834 5.24897H33.3333H35C36.2598 5.24897 37.468 5.74941 38.3588 6.64021C39.2496 7.53101 39.75 8.73919 39.75 9.99897ZM21.4167 6.42886V6.42897V17.789V18.1204L21.7353 18.0294L30.0687 15.6494L30.25 15.5976V15.409V4.99897C30.25 4.49064 30.0481 4.00313 29.6886 3.64368C29.3292 3.28424 28.8417 3.0823 28.3333 3.0823L28.3316 3.08231C28.1537 3.08358 27.9769 3.10927 27.806 3.15868C27.8058 3.15873 27.8057 3.15878 27.8055 3.15883L22.8063 4.58692L22.8062 4.58694C22.406 4.70142 22.054 4.94307 21.8033 5.27538C21.5526 5.60769 21.4169 6.01259 21.4167 6.42886ZM9.75 4.99861V4.99897V15.409V15.5976L9.93134 15.6494L18.2647 18.0294L18.5833 18.1204V17.789V6.42897V6.42886C18.5831 6.01259 18.4474 5.60769 18.1967 5.27538C17.946 4.94307 17.594 4.70142 17.1937 4.58694L17.1937 4.58692L12.1938 3.15861C12.1937 3.1586 12.1937 3.15859 12.1937 3.15859C11.9086 3.07707 11.6086 3.06279 11.3171 3.11685C11.0256 3.17092 10.7506 3.29187 10.5138 3.47021C10.2769 3.64854 10.0847 3.87938 9.95216 4.14459C9.81963 4.4098 9.75043 4.70213 9.75 4.99861ZM6.91667 8.3323V8.0823H6.66667H5C4.49167 8.0823 4.00416 8.28424 3.64471 8.64368C3.28527 9.00313 3.08333 9.49064 3.08333 9.99897V29.999V30.249H3.33333H36.6667H36.9167V29.999V9.99897C36.9167 9.49064 36.7147 9.00313 36.3553 8.64368C35.9958 8.28424 35.5083 8.0823 35 8.0823H33.3333H33.0833V8.3323V17.7337L20 21.4723L6.91667 17.7337V8.3323Z" fill="#169FDB" stroke="black" stroke-width="0.5"/>
</g>
<defs>
<clipPath id="clip0_2098_4456">
<rect width="40" height="40" fill="white"/>
</clipPath>
</defs>
</svg>
