<svg width="32" height="30" viewBox="0 0 32 30" fill="none" xmlns="http://www.w3.org/2000/svg">
<g opacity="0.6">
<rect x="0.501675" y="0.501675" width="30.9967" height="28.9967" rx="5.51842" stroke="white" stroke-width="1.00335"/>
<g clip-path="url(#clip0_930_101)">
<path fill-rule="evenodd" clip-rule="evenodd" d="M7.88057 14.1539C12.3246 12.2177 15.2879 10.9412 16.7707 10.3245C21.0042 8.56365 21.8838 8.25777 22.4572 8.24767C22.5833 8.24544 22.8653 8.2767 23.0479 8.4249C23.2022 8.55004 23.2446 8.71909 23.2649 8.83774C23.2852 8.95639 23.3105 9.22667 23.2904 9.43786C23.061 11.8484 22.0683 17.698 21.5633 20.3978C21.3496 21.5402 20.9288 21.9232 20.5215 21.9607C19.6362 22.0422 18.964 21.3756 18.1066 20.8136C16.7649 19.9341 16.0069 19.3866 14.7046 18.5284C13.1995 17.5365 14.1752 16.9914 15.0329 16.1005C15.2574 15.8673 19.1579 12.3195 19.2334 11.9977C19.2428 11.9574 19.2516 11.8074 19.1624 11.7282C19.0733 11.6489 18.9417 11.676 18.8468 11.6976C18.7122 11.7281 16.5689 13.1448 12.4167 15.9477C11.8083 16.3654 11.2572 16.569 10.7635 16.5583C10.2192 16.5466 9.17219 16.2506 8.39385 15.9976C7.43917 15.6872 6.68042 15.5232 6.74649 14.9961C6.7809 14.7216 7.15893 14.4409 7.88057 14.1539Z" fill="white"/>
</g>
</g>
<defs>
<clipPath id="clip0_930_101">
<rect width="18" height="18" fill="white" transform="translate(6.0201 6.02014)"/>
</clipPath>
</defs>
</svg>
