<svg width="48" height="40" viewBox="0 0 48 40" fill="none" xmlns="http://www.w3.org/2000/svg">
<path d="M6.7228 30.1248C6.25769 29.8307 5.81312 29.4996 5.39366 29.1329C3.25084 27.2596 1.93989 24.6121 1.74923 21.7723C1.55856 18.9326 2.50378 16.1334 4.37698 13.9906C5.30448 12.9295 6.43187 12.0616 7.69483 11.4363C8.95776 10.811 10.3315 10.4405 11.7376 10.3461C11.8835 10.3493 12.0273 10.3107 12.152 10.2348C12.2767 10.1589 12.3771 10.0489 12.4412 9.91782C13.4112 7.10649 15.3157 4.71268 17.837 3.13557C20.3583 1.55846 23.3441 0.893381 26.2964 1.25123C29.2488 1.60911 31.9892 2.96827 34.0606 5.10209C36.1322 7.2359 37.4095 10.0154 37.6798 12.977C37.7023 13.133 37.7692 13.2792 37.872 13.3985C37.9752 13.5177 38.11 13.605 38.2609 13.6501C40.4472 14.1651 42.3685 15.4638 43.6613 17.3003C44.9541 19.1368 45.5285 21.3836 45.2761 23.6153C45.0233 25.8469 43.9611 27.9084 42.2909 29.4096C41.6956 29.9443 41.0378 30.3948 40.3362 30.7538" stroke="#169FDB" stroke-width="2" stroke-linecap="round" stroke-linejoin="round"/>
<path d="M27.253 23.0122L19.8003 26.7385" stroke="#169FDB" stroke-width="2" stroke-linecap="round" stroke-linejoin="round"/>
<path d="M30.252 24.8741C32.1084 24.8741 33.6133 23.3691 33.6133 21.5127C33.6133 19.6563 32.1084 18.1514 30.252 18.1514C28.3956 18.1514 26.8906 19.6563 26.8906 21.5127C26.8906 23.3691 28.3956 24.8741 30.252 24.8741Z" stroke="#169FDB" stroke-width="2" stroke-linecap="round" stroke-linejoin="round"/>
<path d="M16.8067 31.5967C18.6631 31.5967 20.168 30.0918 20.168 28.2354C20.168 26.3789 18.6631 24.874 16.8067 24.874C14.9502 24.874 13.4453 26.3789 13.4453 28.2354C13.4453 30.0918 14.9502 31.5967 16.8067 31.5967Z" stroke="#169FDB" stroke-width="2" stroke-linecap="round" stroke-linejoin="round"/>
<path d="M30.252 38.3194C32.1084 38.3194 33.6133 36.8144 33.6133 34.958C33.6133 33.1016 32.1084 31.5967 30.252 31.5967C28.3956 31.5967 26.8906 33.1016 26.8906 34.958C26.8906 36.8144 28.3956 38.3194 30.252 38.3194Z" stroke="#169FDB" stroke-width="2" stroke-linecap="round" stroke-linejoin="round"/>
<path d="M19.8003 29.7324L27.253 33.4588" stroke="#169FDB" stroke-width="2" stroke-linecap="round" stroke-linejoin="round"/>
</svg>
