<svg width="40" height="40" viewBox="0 0 40 40" fill="none" xmlns="http://www.w3.org/2000/svg">
<g clip-path="url(#clip0_930_131)">
<path d="M27.3347 39.7512H27.3333H27.2804C26.893 39.7447 26.5109 39.6599 26.1571 39.5021C25.8027 39.344 25.4839 39.1158 25.22 38.8312L25.22 38.8312L25.216 38.8271L20.1116 33.5712L22.16 31.6134L27.1622 36.7687L27.339 36.9508L27.5185 36.7713L37.4769 26.8113L39.4796 28.8098L29.3882 38.9028L29.3876 38.9034C29.1189 39.1739 28.7989 39.3883 28.4465 39.5338C28.094 39.6794 27.716 39.7533 27.3347 39.7512Z" fill="#169FDB" stroke="black" stroke-width="0.5"/>
<path d="M18.51 17.8201L18.5833 17.7469V17.6433V10.25H21.4166V18.9198L16.1783 24.1581L14.1752 22.155L18.51 17.8201Z" fill="#169FDB" stroke="black" stroke-width="0.5"/>
<path d="M36.856 21.4167C37.131 18.1752 36.4663 14.9208 34.9383 12.0444C33.3672 9.08654 30.9539 6.66123 28.0039 5.07534C25.054 3.48945 21.6999 2.81426 18.366 3.13522C15.0322 3.45617 11.8685 4.75885 9.27525 6.8784C6.68201 8.99795 4.77577 11.8391 3.79775 15.0424C2.81974 18.2456 2.8139 21.667 3.78098 24.8736C4.74805 28.0802 6.64458 30.9279 9.23058 33.0562C11.7583 35.1366 14.8336 36.4384 18.0833 36.8065V39.639C13.1425 39.1147 8.57682 36.7465 5.30141 33.0015C1.96577 29.1876 0.223479 24.2377 0.434859 19.1753C0.646239 14.113 2.79512 9.32553 6.43709 5.80303C10.0788 2.28081 14.9348 0.292777 20.0009 0.250001C25.2368 0.255977 30.2566 2.33859 33.959 6.04098C37.6617 9.74364 39.7443 14.7639 39.75 20.0003C39.75 20.4759 39.7221 20.9447 39.6847 21.4167H36.856Z" fill="#169FDB" stroke="black" stroke-width="0.5"/>
</g>
<defs>
<clipPath id="clip0_930_131">
<rect width="40" height="40" fill="white"/>
</clipPath>
</defs>
</svg>
