<svg width="40" height="40" viewBox="0 0 40 40" fill="none" xmlns="http://www.w3.org/2000/svg">
<path d="M33.1852 32.1458L33.0333 32.232V32.4067V39.2757L30.2121 36.4545L30 36.2424L29.7879 36.4545L26.9667 39.2757V32.4067V32.233L26.8161 32.1465C25.6024 31.4492 24.6534 30.3701 24.1168 29.0773C23.5802 27.7844 23.4862 26.3504 23.8494 24.9986C24.2126 23.6468 25.0126 22.453 26.1249 21.6032C27.2368 20.7536 28.5983 20.2955 29.9975 20.3C30.5348 20.3068 31.0689 20.3827 31.5868 20.5258L31.9667 20.6308V20.2367V5C31.9667 4.47841 31.7595 3.97818 31.3906 3.60936C31.0218 3.24053 30.5216 3.03333 30 3.03333H10C9.47841 3.03333 8.97818 3.24053 8.60936 3.60936C8.24054 3.97818 8.03333 4.47841 8.03333 5V33.3333V33.6333H8.33333H23.0333V36.3667H5.3V5C5.3 3.75348 5.79518 2.55802 6.6766 1.6766C7.55802 0.795177 8.75348 0.3 10 0.3H30C31.2465 0.3 32.442 0.795177 33.3234 1.6766C34.2048 2.55802 34.7 3.75348 34.7 5V22.3033V22.4175L34.776 22.5028C35.3991 23.2026 35.8578 24.0328 36.1185 24.9328C36.3793 25.8328 36.4355 26.7796 36.283 27.7041C36.1305 28.6286 35.7731 29.5073 35.2372 30.2758C34.7012 31.0443 34.0001 31.6832 33.1852 32.1458ZM11.9667 20.3H19.7V23.0333H11.9667V20.3ZM11.9667 13.6333H28.0333V16.3667H11.9667V13.6333ZM11.9667 6.96667H28.0333V9.7H11.9667V6.96667ZM33.6333 26.6667C33.6333 25.9481 33.4202 25.2456 33.021 24.6481C32.6218 24.0506 32.0543 23.5849 31.3904 23.3099C30.7265 23.0349 29.996 22.963 29.2912 23.1031C28.5864 23.2433 27.939 23.5894 27.4308 24.0975C26.9227 24.6056 26.5767 25.253 26.4365 25.9578C26.2963 26.6626 26.3682 27.3932 26.6432 28.0571C26.9182 28.721 27.3839 29.2884 27.9814 29.6877C28.5789 30.0869 29.2814 30.3 30 30.3C30.9636 30.3 31.8878 29.9172 32.5692 29.2358C33.2505 28.5544 33.6333 27.6303 33.6333 26.6667Z" fill="#169FDB" stroke="black" stroke-width="0.6"/>
</svg>
