<svg width="40" height="40" viewBox="0 0 40 40" fill="none" xmlns="http://www.w3.org/2000/svg">
<path d="M9.57143 35.2857H3.85714C3.09937 35.2857 2.37266 34.9846 1.83684 34.4489C1.30102 33.9131 1 33.1863 1 32.4286V3.85714C1 3.09937 1.30102 2.37266 1.83684 1.83684C2.37266 1.30102 3.09937 1 3.85714 1H35.2857C36.0434 1 36.7703 1.30102 37.306 1.83684C37.8417 2.37266 38.1429 3.09937 38.1429 3.85714V11" stroke="#169FDB" stroke-width="2" stroke-linecap="round" stroke-linejoin="round"/>
<path d="M1 9.57129H38.1429" stroke="#169FDB" stroke-width="2" stroke-linecap="round" stroke-linejoin="round"/>
<path d="M16.7144 18.1426L20.4286 21.8569" stroke="#169FDB" stroke-width="2" stroke-linecap="round" stroke-linejoin="round"/>
<path d="M16.7144 38.1425L20.4286 34.4282" stroke="#169FDB" stroke-width="2" stroke-linecap="round" stroke-linejoin="round"/>
<path d="M19.5714 28.1426H15.2856" stroke="#169FDB" stroke-width="2" stroke-linecap="round" stroke-linejoin="round"/>
<path d="M36.7143 18.1426L33 21.8569" stroke="#169FDB" stroke-width="2" stroke-linecap="round" stroke-linejoin="round"/>
<path d="M36.7143 38.1425L33 34.4282" stroke="#169FDB" stroke-width="2" stroke-linecap="round" stroke-linejoin="round"/>
<path d="M19.5713 25.2854C19.5713 23.391 20.3238 21.5742 21.6634 20.2347C23.0029 18.8951 24.8197 18.1426 26.7141 18.1426C28.6084 18.1426 30.4253 18.8951 31.765 20.2347C33.1044 21.5742 33.857 23.391 33.857 25.2854V30.9997C33.857 32.894 33.1044 34.7109 31.765 36.0506C30.4253 37.39 28.6084 38.1426 26.7141 38.1426C24.8197 38.1426 23.0029 37.39 21.6634 36.0506C20.3238 34.7109 19.5713 32.894 19.5713 30.9997V25.2854Z" stroke="#169FDB" stroke-width="2" stroke-linecap="round" stroke-linejoin="round"/>
<path d="M33.8569 28.1426H38.1426" stroke="#169FDB" stroke-width="2" stroke-linecap="round" stroke-linejoin="round"/>
<path d="M19.5713 26.7139H33.857" stroke="#169FDB" stroke-width="2" stroke-linecap="round" stroke-linejoin="round"/>
</svg>
