<svg width="40" height="40" viewBox="0 0 40 40" fill="none" xmlns="http://www.w3.org/2000/svg">
<path d="M20.5246 37.8091C19.8652 38.0636 19.1348 38.0636 18.4754 37.8091V37.8091C13.3258 35.7895 8.90413 32.2647 5.7869 27.6945C2.66966 23.1242 1.00153 17.7205 1 12.1879V3.8468C1 3.09178 1.29986 2.36769 1.83362 1.83381C2.36738 1.29993 3.09131 1 3.84615 1H35.1538C35.9087 1 36.6326 1.29993 37.1664 1.83381C37.7001 2.36769 38 3.09178 38 3.8468V12.1595C38.0042 17.6968 36.3387 23.1068 33.2211 27.6827C30.1035 32.2586 25.6787 35.7877 20.5246 37.8091V37.8091Z" stroke="#169FDB" stroke-width="2" stroke-linecap="round" stroke-linejoin="round"/>
<path d="M19 22C22.866 22 26 18.866 26 15C26 11.134 22.866 8 19 8C15.134 8 12 11.134 12 15C12 18.866 15.134 22 19 22Z" stroke="#169FDB" stroke-width="2" stroke-linecap="round" stroke-linejoin="round"/>
<path d="M9 31C10.3138 29.7428 11.9295 28.736 13.7399 28.0463C15.5502 27.3567 17.5137 27 19.5 27C21.4863 27 23.4498 27.3567 25.2601 28.0463C27.0705 28.736 28.6862 29.7428 30 31" stroke="#169FDB" stroke-width="2" stroke-linecap="round" stroke-linejoin="round"/>
</svg>
