<svg width="40" height="40" viewBox="0 0 40 40" fill="none" xmlns="http://www.w3.org/2000/svg">
<path d="M10 18.6333H10.3V18.3333V5C10.3 3.75348 10.7952 2.55802 11.6766 1.6766C12.558 0.795177 13.7535 0.3 15 0.3H35C36.2465 0.3 37.442 0.795177 38.3234 1.6766C39.2048 2.55802 39.7 3.75348 39.7 5V29.7H21.6667H21.3667V30V39.7H0.3V23.3333C0.3 22.0868 0.795177 20.8913 1.6766 20.0099C2.55802 19.1285 3.75348 18.6333 5 18.6333H10ZM18.3333 36.9667H18.6333V36.6667V30V29.7H18.3333H10.3V21.6667V21.3667H10H5C4.47841 21.3667 3.97818 21.5739 3.60936 21.9427C3.24053 22.3115 3.03333 22.8117 3.03333 23.3333V36.6667V36.9667H3.33333H18.3333ZM18.3333 26.9667H18.6333V26.6667V23.3333C18.6333 22.8117 18.4261 22.3115 18.0573 21.9427C17.6885 21.5739 17.1883 21.3667 16.6667 21.3667H13.3333H13.0333V21.6667V26.6667V26.9667H13.3333H18.3333ZM36.6667 26.9667H36.9667V26.6667V5C36.9667 4.47841 36.7595 3.97818 36.3906 3.60936C36.0218 3.24053 35.5216 3.03333 35 3.03333H15C14.4784 3.03333 13.9782 3.24053 13.6094 3.60936C13.2405 3.97818 13.0333 4.47841 13.0333 5V18.3333V18.6333H13.3333L16.6656 18.6333C16.6658 18.6333 16.666 18.6333 16.6661 18.6333C17.3637 18.6359 18.0516 18.7964 18.6782 19.1028L18.8707 19.1969L19.0221 19.0455L27.8555 10.2121L28.3676 9.7H27.6433H21.9667V6.96667H33.0333V18.0333H30.3V12.3583V11.6341L29.7879 12.1462L20.9545 20.9795L20.8031 21.131L20.8972 21.3235C21.2034 21.9496 21.3639 22.637 21.3667 23.334C21.3667 23.3342 21.3667 23.3343 21.3667 23.3345L21.3667 26.6667V26.9667H21.6667H36.6667Z" fill="#169FDB" stroke="black" stroke-width="0.6"/>
</svg>
