<svg width="40" height="40" viewBox="0 0 40 40" fill="none" xmlns="http://www.w3.org/2000/svg">
<path d="M1.56543 8.81299L7.83518 12.1872L13.4316 11.2182C15.3208 10.8912 17.2569 11.432 18.7031 12.6907" stroke="#169FDB" stroke-width="2" stroke-linecap="round" stroke-linejoin="round"/>
<path d="M32.2349 26.5213L23.3703 32.8168C21.4218 34.2008 18.8178 34.2257 16.843 32.8794L1.56592 22.4653" stroke="#169FDB" stroke-width="2" stroke-linecap="round" stroke-linejoin="round"/>
<path d="M38.2917 22.3978L32.0194 26.6838L22.2875 18.8258L18.7077 21.4312C17.2522 22.4906 15.2188 22.2051 14.1111 20.7859C13.006 19.37 13.2192 17.3335 14.5936 16.1771L18.321 13.0409C20.1075 11.5378 22.4298 10.8285 24.7513 11.0769L30.5605 11.6984L38.2917 7.51953" stroke="#169FDB" stroke-width="2" stroke-linecap="round" stroke-linejoin="round"/>
<path d="M22.2896 18.8472C24.6313 20.9335 27.9523 19.8692 29.1871 18.166" stroke="#169FDB" stroke-width="2" stroke-linecap="round" stroke-linejoin="round"/>
</svg>
