<svg width="40" height="40" viewBox="0 0 40 40" fill="none" xmlns="http://www.w3.org/2000/svg">
<path d="M13.0833 8.30667V13.0833H8.33333H8.08507L8.08334 13.3316L8.05008 18.0988L5.21675 18.0846L5.24999 13.3351L5.25176 13.0833H5H0.25V5C0.25 3.74022 0.750445 2.53204 1.64124 1.64124C2.53204 0.750445 3.74022 0.25 5 0.25H13.0833V4.97333V5.22201L13.332 5.22333L18.0988 5.24867L18.0846 8.082L13.3347 8.05667L13.0833 8.05533V8.30667ZM10 10.25H10.25V10V3.33333V3.08333H10H5C4.49167 3.08333 4.00416 3.28527 3.64471 3.64471C3.28527 4.00416 3.08333 4.49167 3.08333 5V10V10.25H3.33333H10Z" fill="#169FDB" stroke="black" stroke-width="0.5"/>
<path d="M39.7504 13.0833H35.0254H34.7766L34.7754 13.3321L34.7516 18.0988L31.9183 18.0846L31.942 13.3346L31.9433 13.0833H31.692H26.917V8.33333V8.08466L26.6684 8.08334L21.9099 8.058L21.9241 5.22467L26.6657 5.25L26.917 5.25134V5V0.25H34.7504H35.0004C36.2601 0.25 37.4683 0.750445 38.3591 1.64124C39.2499 2.53204 39.7504 3.74022 39.7504 5V13.0833ZM36.667 10.25H36.917V10V5C36.917 4.49167 36.7151 4.00416 36.3556 3.64471C35.9962 3.28527 35.5087 3.08333 35.0004 3.08333H30.0004H29.7504V3.33333V10V10.25H30.0004H36.667Z" fill="#169FDB" stroke="black" stroke-width="0.5"/>
<path d="M34.9998 26.917H39.7498V35.0004C39.7498 36.2601 39.2494 37.4683 38.3586 38.3591C37.4678 39.2499 36.2596 39.7504 34.9998 39.7504H26.9165V35.027V34.7784L26.6678 34.777L21.9171 34.7517L21.9242 31.9184L26.6652 31.9437L26.9165 31.945V31.6937V26.917H31.6748H31.9235L31.9248 26.6684L31.9502 21.9099L34.7831 21.9241L34.7498 26.6653L34.7481 26.917H34.9998ZM29.7498 36.667V36.917H29.9998H34.9998C35.5081 36.917 35.9957 36.7151 36.3551 36.3556C36.7146 35.9962 36.9165 35.5087 36.9165 35.0004V30.0004V29.7504H36.6665H29.9998H29.7498V30.0004V36.667Z" fill="#169FDB" stroke="black" stroke-width="0.5"/>
<path d="M8.08208 21.9237L8.05834 26.6648L8.05708 26.916H8.30833H13.0833V31.6743V31.923L13.332 31.9243L18.0988 31.9497L18.0846 34.7826L13.3351 34.7493L13.0833 34.7476V34.9993V39.7493H5C3.74022 39.7493 2.53204 39.2489 1.64124 38.3581C0.750445 37.4673 0.25 36.2591 0.25 34.9993V26.916H4.975H5.22375L5.225 26.6673L5.24875 21.9166L8.08208 21.9237ZM10 36.916H10.25V36.666V29.9993V29.7493H10H3.33333H3.08333V29.9993V34.9993C3.08333 35.5077 3.28527 35.9952 3.64471 36.3546C4.00416 36.7141 4.49167 36.916 5 36.916H10Z" fill="#169FDB" stroke="black" stroke-width="0.5"/>
</svg>
