<svg width="40" height="40" viewBox="0 0 40 40" fill="none" xmlns="http://www.w3.org/2000/svg">
<g clip-path="url(#clip0_1817_1445)">
<path d="M24.4108 33.4342L24.4819 33.6333H24.6933H39.7V36.3667H24.6933H24.4802L24.41 36.568C24.0911 37.4834 23.4952 38.2769 22.705 38.8384C21.9148 39.3999 20.9694 39.7016 20 39.7016C19.0306 39.7016 18.0852 39.3999 17.295 38.8384C16.5048 38.2769 15.9089 37.4834 15.59 36.568L15.5198 36.3667H15.3067H0.3V33.6333H15.3067H15.5181L15.5892 33.4342C15.8232 32.779 16.1999 32.1839 16.6919 31.6919C17.1839 31.1999 17.779 30.8232 18.4342 30.5892L18.6333 30.5181V30.3067V25V24.7H18.3333H5.3V5C5.3 3.75348 5.79518 2.55802 6.6766 1.6766C7.55802 0.795177 8.75348 0.3 10 0.3H15.5735L20.3484 3.5806L20.4252 3.63333H20.5183H30C31.2465 3.63333 32.442 4.12851 33.3234 5.00993C34.2048 5.89135 34.7 7.08682 34.7 8.33333V24.7H21.6667H21.3667V25V30.3067V30.5181L21.5658 30.5892C22.221 30.8232 22.8161 31.1999 23.3081 31.6919C23.8001 32.1839 24.1768 32.779 24.4108 33.4342ZM14.8033 3.08612L14.7265 3.03333H14.6333H10C9.47841 3.03333 8.97818 3.24054 8.60936 3.60936C8.24054 3.97818 8.03333 4.47841 8.03333 5V10V10.3H8.33333H31.6667H31.9667V10V8.33333C31.9667 7.81174 31.7595 7.31151 31.3906 6.94269C31.0218 6.57387 30.5216 6.36667 30 6.36667H19.5748L14.8033 3.08612ZM8.33333 13.0333H8.03333V13.3333V21.6667V21.9667H8.33333H31.6667H31.9667V21.6667V13.3333V13.0333H31.6667H8.33333ZM18.9074 36.6352C19.2308 36.8513 19.611 36.9667 20 36.9667C20.5216 36.9667 21.0218 36.7595 21.3906 36.3906C21.7595 36.0218 21.9667 35.5216 21.9667 35C21.9667 34.611 21.8513 34.2308 21.6352 33.9074C21.4191 33.584 21.112 33.3319 20.7526 33.183C20.3932 33.0342 19.9978 32.9952 19.6163 33.0711C19.2348 33.147 18.8844 33.3343 18.6094 33.6094C18.3343 33.8844 18.147 34.2348 18.0711 34.6163C17.9952 34.9978 18.0342 35.3932 18.183 35.7526C18.3319 36.112 18.584 36.4191 18.9074 36.6352Z" fill="#169FDB" stroke="black" stroke-width="0.6"/>
</g>
<defs>
<clipPath id="clip0_1817_1445">
<rect width="40" height="40" fill="white"/>
</clipPath>
</defs>
</svg>
