<svg width="40" height="40" viewBox="0 0 40 40" fill="none" xmlns="http://www.w3.org/2000/svg">
<g clip-path="url(#clip0_1817_1221)">
<path d="M1.48458 13.5019L1.6386 13.3333L1.48458 13.1647C0.694306 12.2996 0.254228 11.1713 0.25 9.99956V5C0.25 3.74022 0.750445 2.53204 1.64124 1.64124C2.53204 0.750445 3.74022 0.25 5 0.25H35C36.2598 0.25 37.468 0.750445 38.3588 1.64124C39.2496 2.53204 39.75 3.74022 39.75 5V9.99912C39.7459 11.171 39.3058 12.2995 38.5154 13.1647L38.3614 13.3333L38.5154 13.5019C39.3058 14.3672 39.7459 15.4956 39.75 16.6675V21.6658C39.7459 22.8377 39.3058 23.9661 38.5154 24.8314L38.3614 25L38.5154 25.1686C39.3058 26.0339 39.7459 27.1623 39.75 28.3342V38.0833H0.25V28.3338C0.254228 27.162 0.694306 26.0338 1.48458 25.1686L1.6386 25L1.48458 24.8314C0.694306 23.9662 0.254228 22.838 0.25 21.6662V16.6671C0.254228 15.4954 0.694306 14.3671 1.48458 13.5019ZM8.58333 3.33333V3.08333H8.33333H5C4.49167 3.08333 4.00416 3.28527 3.64471 3.64471C3.28527 4.00416 3.08333 4.49167 3.08333 5V10C3.08333 10.5083 3.28527 10.9958 3.64471 11.3553C4.00416 11.7147 4.49167 11.9167 5 11.9167H35C35.5083 11.9167 35.9958 11.7147 36.3553 11.3553C36.7147 10.9958 36.9167 10.5083 36.9167 10V5C36.9167 4.49167 36.7147 4.00416 36.3553 3.64471C35.9958 3.28527 35.5083 3.08333 35 3.08333H18.3333H18.0833V3.33333V6.41667H15.25V3.33333V3.08333H15H11.6667H11.4167V3.33333V6.41667H8.58333V3.33333ZM8.58333 15V14.75H8.33333H5C4.49167 14.75 4.00416 14.9519 3.64471 15.3114C3.28527 15.6708 3.08333 16.1583 3.08333 16.6667V21.6667C3.08333 22.175 3.28527 22.6625 3.64471 23.022C4.00416 23.3814 4.49167 23.5833 5 23.5833H35C35.5083 23.5833 35.9958 23.3814 36.3553 23.022C36.7147 22.6625 36.9167 22.175 36.9167 21.6667V16.6667C36.9167 16.1583 36.7147 15.6708 36.3553 15.3114C35.9958 14.9519 35.5083 14.75 35 14.75H18.3333H18.0833V15V18.0833H15.25V15V14.75H15H11.6667H11.4167V15V18.0833H8.58333V15ZM36.6667 35.25H36.9167V35V28.3333C36.9167 27.825 36.7147 27.3375 36.3553 26.978C35.9958 26.6186 35.5083 26.4167 35 26.4167H18.3333H18.0833V26.6667V29.75H15.25V26.6667V26.4167H15H11.6667H11.4167V26.6667V29.75H8.58333V26.6667V26.4167H8.33333H5C4.49167 26.4167 4.00416 26.6186 3.64471 26.978C3.28527 27.3375 3.08333 27.825 3.08333 28.3333V35V35.25H3.33333H36.6667Z" fill="#169FDB" stroke="black" stroke-width="0.5"/>
</g>
<defs>
<clipPath id="clip0_1817_1221">
<rect width="40" height="40" fill="white"/>
</clipPath>
</defs>
</svg>
