<svg width="40" height="40" viewBox="0 0 40 40" fill="none" xmlns="http://www.w3.org/2000/svg">
<g clip-path="url(#clip0_930_172)">
<path d="M3.64471 36.3153C4.00416 36.6747 4.49167 36.8767 5 36.8767H39.75V39.71H5C3.74022 39.71 2.53204 39.2096 1.64124 38.3188C0.750445 37.428 0.25 36.2198 0.25 34.96V0.25H3.08333V34.96C3.08333 35.4683 3.28527 35.9558 3.64471 36.3153Z" fill="#169FDB" stroke="black" stroke-width="0.5"/>
<path d="M8.58354 31.4167V20.25H11.4169V31.4167H8.58354Z" fill="#169FDB" stroke="black" stroke-width="0.5"/>
<path d="M16.9165 31.4164V16.9164H19.7498V31.4164H16.9165Z" fill="#169FDB" stroke="black" stroke-width="0.5"/>
<path d="M25.25 31.4165V21.9165H28.0834V31.4165H25.25Z" fill="#169FDB" stroke="black" stroke-width="0.5"/>
<path d="M33.5835 31.4167V15.25H36.4169V31.4167H33.5835Z" fill="#169FDB" stroke="black" stroke-width="0.5"/>
<path d="M18.5099 7.18014L18.3331 7.00337L18.1563 7.18014L11.1781 14.1584L9.17496 12.1553L18.3331 2.99714L26.4896 11.1537L26.6664 11.3305L26.8432 11.1537L37.1547 0.84214L39.1579 2.84525L26.6664 15.3367L18.5099 7.18014Z" fill="#169FDB" stroke="black" stroke-width="0.5"/>
</g>
<defs>
<clipPath id="clip0_930_172">
<rect width="40" height="40" fill="white"/>
</clipPath>
</defs>
</svg>
