<svg width="40" height="40" viewBox="0 0 40 40" fill="none" xmlns="http://www.w3.org/2000/svg">
<path d="M25 21C32.1797 21 38 18.5376 38 15.5C38 12.4624 32.1797 10 25 10C17.8203 10 12 12.4624 12 15.5C12 18.5376 17.8203 21 25 21Z" stroke="#169FDB" stroke-width="2" stroke-linecap="round" stroke-linejoin="round"/>
<path d="M12 16V32.5C12 35.525 17.7778 38 25 38C32.2222 38 38 35.525 38 32.5V16" stroke="#169FDB" stroke-width="2" stroke-linecap="round" stroke-linejoin="round"/>
<path d="M38 24C38 27.3 32.2222 30 25 30C17.7778 30 12 27.3 12 24" stroke="#169FDB" stroke-width="2" stroke-linecap="round" stroke-linejoin="round"/>
<path d="M25 3.87501C21.6614 1.81981 17.7752 0.825843 13.8571 1.02501C6.74286 1.02501 1 3.59001 1 6.72501C1 8.4065 2.65714 9.917 5.28571 11" stroke="#169FDB" stroke-width="2" stroke-linecap="round" stroke-linejoin="round"/>
<path d="M5 28C2.54667 26.936 1 25.452 1 23.8V7" stroke="#169FDB" stroke-width="2" stroke-linecap="round" stroke-linejoin="round"/>
<path d="M5 19C2.54667 17.9867 1 16.5733 1 15" stroke="#169FDB" stroke-width="2" stroke-linecap="round" stroke-linejoin="round"/>
</svg>
