<svg width="40" height="40" viewBox="0 0 40 40" fill="none" xmlns="http://www.w3.org/2000/svg">
<g clip-path="url(#clip0_971_3431)">
<path d="M1.83594 1.83661V38.1634H38.1627" stroke="#169FDB" stroke-width="2" stroke-linecap="round" stroke-linejoin="round"/>
<path d="M13.0895 11.0128C15.8918 11.0128 18.1635 13.2845 18.1635 16.0868C18.1635 18.889 15.8918 21.1607 13.0895 21.1607C10.2873 21.1607 8.01562 18.889 8.01562 16.0868C8.01562 13.2845 10.2873 11.0128 13.0895 11.0128Z" stroke="#169FDB" stroke-width="2" stroke-linecap="round" stroke-linejoin="round"/>
<path d="M33.0897 2.53067C35.8917 2.53067 38.1634 4.80235 38.1634 7.60461C38.1634 10.4069 35.8917 12.6786 33.0897 12.6786C30.2874 12.6786 28.0156 10.4069 28.0156 7.60461C28.0156 4.80235 30.2874 2.53067 33.0897 2.53067Z" stroke="#169FDB" stroke-width="2" stroke-linecap="round" stroke-linejoin="round"/>
<path d="M26.0349 21.1607C28.8371 21.1607 31.1089 23.4324 31.1089 26.2346C31.1089 29.0368 28.8371 31.3085 26.0349 31.3085C23.2326 31.3085 20.9609 29.0368 20.9609 26.2346C20.9609 23.4324 23.2326 21.1607 26.0349 21.1607Z" stroke="#169FDB" stroke-width="2" stroke-linecap="round" stroke-linejoin="round"/>
<path d="M1.83594 26.9258L9.07646 19.1936" stroke="#169FDB" stroke-width="2" stroke-linecap="round" stroke-linejoin="round"/>
<path d="M17.5137 18.616L22.1565 22.9464" stroke="#169FDB" stroke-width="2" stroke-linecap="round" stroke-linejoin="round"/>
<path d="M28.2734 21.6518L31.6217 12.4554" stroke="#169FDB" stroke-width="2" stroke-linecap="round" stroke-linejoin="round"/>
</g>
<defs>
<clipPath id="clip0_971_3431">
<rect width="40" height="40" fill="white"/>
</clipPath>
</defs>
</svg>
