<svg width="40" height="40" viewBox="0 0 40 40" fill="none" xmlns="http://www.w3.org/2000/svg">
<g clip-path="url(#clip0_971_3447)">
<path d="M34.4134 10.2496H34.3098H28.5831V14.9996V15.2496H28.3331H23.5831V20.9746V21.0781L23.5099 21.1514L21.0584 23.6029C21.6122 24.8266 21.9047 26.153 21.9165 27.4974L21.9165 27.4996C21.9165 29.362 21.3642 31.1826 20.3295 32.7312C19.2948 34.2798 17.8241 35.4867 16.1034 36.1995C14.3827 36.9122 12.4894 37.0987 10.6627 36.7353C8.83605 36.372 7.15816 35.4751 5.84122 34.1582C4.52427 32.8412 3.62742 31.1633 3.26408 29.3367C2.90073 27.51 3.08721 25.6167 3.79994 23.896C4.51266 22.1753 5.71962 20.7046 7.26819 19.6699C8.81449 18.6367 10.6321 18.0845 12.4917 18.0829C13.8504 17.9956 15.2053 18.2896 16.4042 18.93L31.6914 3.64447L31.692 3.64386C32.052 3.2864 32.5382 3.08491 33.0455 3.08293L33.0465 3.08292L36.6665 3.08293H36.9165V3.33293V6.95106V6.95126H36.6665C36.6666 7.17039 36.6236 7.38741 36.5398 7.58989C36.456 7.79237 36.3331 7.97633 36.1781 8.13126L34.4134 10.2496ZM34.4134 10.2496L34.4866 10.1764L36.3549 8.30806M34.4134 10.2496L36.3549 8.30806M36.3549 8.30806C36.3549 8.30805 36.3549 8.30805 36.3549 8.30804L36.3549 8.30806ZM33.0458 0.249593H33.0465H36.6665C37.4842 0.249593 38.2685 0.574443 38.8467 1.15268C39.425 1.73092 39.7498 2.51518 39.7498 3.33293V6.95126V6.95188C39.7514 7.57591 39.6292 8.19405 39.3904 8.77057C39.1516 9.3471 38.8008 9.87056 38.3585 10.3107L38.358 10.3112L35.5863 13.0829H31.6665H31.4165V13.3329V18.0829H26.6665H26.4165V18.3329V22.2544L24.4247 24.2462L24.3237 24.3471L24.3594 24.4854C25.0341 27.1002 24.8303 29.8643 23.7795 32.3519C22.7288 34.8395 20.8893 36.9126 18.5444 38.2519C16.1995 39.5913 13.4793 40.1225 10.8028 39.7638C8.12631 39.4051 5.64198 38.1764 3.73249 36.2669C1.823 34.3574 0.594271 31.8731 0.235576 29.1966C-0.123119 26.5201 0.408115 23.7999 1.74745 21.455C3.08679 19.1101 5.15992 17.2706 7.64753 16.2199C10.1351 15.1691 12.8992 14.9653 15.514 15.64L15.6523 15.6757L15.7532 15.5747L29.6882 1.64138L29.6888 1.6408C30.1285 1.19831 30.6516 0.847495 31.2278 0.608683C31.8041 0.369871 32.422 0.247815 33.0458 0.249593ZM39.9998 6.95126V3.33293C39.9998 2.44887 39.6486 1.60103 39.0235 0.975904C38.3984 0.350782 37.5505 -0.000407114 36.6665 -0.000407114H33.0465C32.3896 -0.00227791 31.7389 0.126251 31.1321 0.37773C30.5253 0.629209 29.9744 0.998635 29.5115 1.46459L39.9998 6.95126ZM8.82189 30.7867C8.66622 30.5537 8.58314 30.2798 8.58314 29.9996C8.58314 29.6239 8.73239 29.2635 8.99807 28.9979C9.26375 28.7322 9.62408 28.5829 9.99981 28.5829C10.28 28.5829 10.5539 28.666 10.7869 28.8217C11.0198 28.9773 11.2014 29.1986 11.3086 29.4575C11.4159 29.7163 11.4439 30.0012 11.3893 30.276C11.3346 30.5508 11.1997 30.8032 11.0015 31.0013C10.8034 31.1995 10.551 31.3344 10.2762 31.389C10.0014 31.4437 9.71653 31.4156 9.45767 31.3084C9.19881 31.2012 8.97756 31.0196 8.82189 30.7867Z" fill="#169FDB" stroke="black" stroke-width="0.5"/>
</g>
<defs>
<clipPath id="clip0_971_3447">
<rect width="40" height="40" fill="white"/>
</clipPath>
</defs>
</svg>
