<svg width="40" height="40" viewBox="0 0 40 40" fill="none" xmlns="http://www.w3.org/2000/svg">
<path d="M34.75 20.7062V20.8692L34.8993 20.935C36.5949 21.6816 37.9826 22.988 38.83 24.6356C39.6774 26.2832 39.9331 28.1719 39.5544 29.9855C39.1756 31.799 38.1853 33.4275 36.7493 34.5981C35.3132 35.7688 33.5186 36.4106 31.6659 36.4162H21.9167V33.5828H28.3333H28.5833V33.3328V20.2495H31.6667H31.9167V19.9995V18.3328C31.9167 15.1723 30.6612 12.1413 28.4264 9.90647C26.1915 7.67166 23.1605 6.41616 20 6.41616C16.8395 6.41616 13.8085 7.67166 11.5736 9.90647C9.33883 12.1413 8.08333 15.1723 8.08333 18.3328V19.9995V20.2495H8.33333H11.4167V36.4162H8.33408C6.48136 36.4106 4.68677 35.7688 3.25075 34.5981C1.81472 33.4275 0.824427 31.799 0.445648 29.9855C0.0668683 28.1719 0.322595 26.2832 1.17002 24.6356C2.01744 22.988 3.40512 21.6816 5.10075 20.935L5.25 20.8692V20.7062V18.3328C5.25 14.4209 6.80401 10.6692 9.57017 7.903C12.3363 5.13684 16.0881 3.58282 20 3.58282C23.9119 3.58282 27.6637 5.13684 30.4298 7.903C33.196 10.6692 34.75 14.4209 34.75 18.3328V20.7062ZM8.33333 33.5828H8.58333V33.3328V23.3328V23.0828H8.33333C6.94095 23.0828 5.60559 23.6359 4.62102 24.6205C3.63646 25.6051 3.08333 26.9404 3.08333 28.3328C3.08333 29.7252 3.63646 31.0606 4.62102 32.0451C5.60559 33.0297 6.94095 33.5828 8.33333 33.5828ZM31.4167 33.3328V33.5828H31.6667C33.0591 33.5828 34.3944 33.0297 35.379 32.0451C36.3635 31.0606 36.9167 29.7252 36.9167 28.3328C36.9167 26.9404 36.3635 25.6051 35.379 24.6205C34.3944 23.6359 33.0591 23.0828 31.6667 23.0828H31.4167V23.3328V33.3328Z" fill="#169FDB" stroke="black" stroke-width="0.5"/>
</svg>
