<svg width="32" height="30" viewBox="0 0 32 30" fill="none" xmlns="http://www.w3.org/2000/svg">
<g clip-path="url(#clip0_971_3020)">
<path d="M31.5918 15C31.5918 23.2843 24.8761 30 16.5918 30C8.30753 30 1.5918 23.2843 1.5918 15C1.5918 6.71573 8.30753 0 16.5918 0C24.8761 0 31.5918 6.71573 31.5918 15Z" fill="#34124A"/>
<path fill-rule="evenodd" clip-rule="evenodd" d="M31.5918 15C31.5918 23.2843 24.8761 30 16.5918 30C8.30753 30 1.5918 23.2843 1.5918 15C1.5918 6.71573 8.30753 0 16.5918 0C24.8761 0 31.5918 6.71573 31.5918 15ZM16.5918 27.2727C23.3698 27.2727 28.8645 21.778 28.8645 15C28.8645 8.22196 23.3698 2.72727 16.5918 2.72727C9.81376 2.72727 4.31907 8.22196 4.31907 15C4.31907 21.778 9.81376 27.2727 16.5918 27.2727Z" fill="black"/>
<path fill-rule="evenodd" clip-rule="evenodd" d="M17.5918 7H14.5918V13H8.5918V16H14.5918V22H17.5918V16H23.5918V13H17.5918V7Z" fill="white"/>
</g>
<defs>
<clipPath id="clip0_971_3020">
<rect width="31.4079" height="30" fill="white" transform="translate(0.591797)"/>
</clipPath>
</defs>
</svg>
