<svg width="40" height="40" viewBox="0 0 40 40" fill="none" xmlns="http://www.w3.org/2000/svg">
<g clip-path="url(#clip0_971_3442)">
<path d="M17.0842 36.9167V36.6667V31.8153L16.02 31.5404C16.02 31.5404 16.02 31.5404 16.02 31.5404C13.9233 30.999 12.0143 29.8952 10.4989 28.3483L9.72985 27.565L5.5259 29.9931L5.30938 30.1182L5.18436 29.9017L3.51769 27.015L3.3927 26.7985L3.60918 26.6735L7.80842 24.2485L7.51655 23.1915L7.51654 23.1915C6.94013 21.1029 6.94013 18.8971 7.51654 16.8085L7.51655 16.8085L7.80842 15.7515L3.60918 13.3265L3.3927 13.2015L3.51769 12.985L5.18436 10.0983L5.30953 9.88154L5.52615 10.007L9.73001 12.4415L10.4988 11.6586C10.4988 11.6585 10.4989 11.6584 10.499 11.6583L10.4992 11.6582L10.6775 11.8333C12.1602 10.3165 14.0292 9.23359 16.0825 8.70167L17.0842 36.9167ZM17.0842 36.9167H17.3342H20.6675H20.9175V36.6667V31.8153M17.0842 36.9167L20.9175 31.8153M20.9175 31.8153L21.9817 31.5404L21.9819 31.5403C24.0793 30.997 25.9884 29.8909 27.5029 28.3415L27.5026 28.3418L27.3242 28.1667L27.503 28.3414L20.9175 31.8153ZM28.2719 27.5584L32.4758 29.9865L32.6923 30.1115L32.8174 29.895L34.484 27.0083L34.609 26.7918L34.3926 26.6668L30.1933 24.2419M28.2719 27.5584L17.0842 8.18471V3.33333V3.08333H17.3342H20.6675H20.9175V3.33333V8.1857L21.9817 8.46627C21.9819 8.46633 21.9821 8.46638 21.9823 8.46644C24.0786 9.00785 25.9872 10.1113 27.5023 11.6579L27.5019 11.6575L27.3242 11.8333L27.5028 11.6584L28.2711 12.4352M28.2719 27.5584L28.1042 27.4615L28.2292 27.245L28.4076 27.4202L28.2719 27.5584ZM30.1933 24.2419L30.4852 23.1849L30.4852 23.1848C31.0616 21.0962 31.0616 18.8905 30.4852 16.8018L30.4852 16.8018L30.1933 15.7448M30.1933 24.2419L30.1418 24.4282L29.9009 24.3617L30.0259 24.1452L30.1933 24.2419ZM30.1933 15.7448L34.3926 13.3198L34.609 13.1948L34.484 12.9783L32.8174 10.0917L32.6922 9.87488L32.4756 10.0003L28.2711 12.4352M30.1933 15.7448L30.0259 15.8415L29.9009 15.625L30.1418 15.5585L30.1933 15.7448ZM28.2711 12.4352L28.4069 12.5725L28.2292 12.7483L28.1039 12.532L28.2711 12.4352ZM23.7509 34.145V39.75H14.2509V34.145V33.9683L14.0843 33.9093C12.3753 33.3047 10.7925 32.3902 9.41506 31.2117L9.28063 31.0967L9.12745 31.1852L4.27073 33.9917L-0.479306 25.7583L4.37577 22.9582L4.52865 22.8701L4.49675 22.6965C4.16909 20.9138 4.16909 19.0862 4.49675 17.3035L4.52865 17.1299L4.37577 17.0418L-0.479306 14.2417L4.27073 6.0083L9.12745 8.81479L9.28063 8.90331L9.41506 8.78829C10.7925 7.60981 12.3753 6.69533 14.0843 6.09068L14.2509 6.03173V5.855V0.25H23.7509V5.855V6.03173L23.9175 6.09068C25.6264 6.69533 27.2093 7.60981 28.5867 8.78829L28.7211 8.90331L28.8743 8.81479L33.731 6.0083L38.481 14.2417L33.626 17.0418L33.4731 17.1299L33.505 17.3035C33.8326 19.0862 33.8326 20.9138 33.505 22.6965L33.4731 22.8701L33.626 22.9582L38.481 25.7583L33.731 33.9918L28.8742 31.1868L28.7211 31.0984L28.5867 31.2133C27.2092 32.3912 25.6264 33.3051 23.9175 33.9093L23.7509 33.9682V34.145ZM19.0009 26.4167C17.7318 26.4167 16.4912 26.0403 15.436 25.3353C14.3807 24.6302 13.5583 23.628 13.0726 22.4556C12.587 21.2831 12.4599 19.9929 12.7075 18.7482C12.9551 17.5035 13.5662 16.3601 14.4636 15.4627C15.361 14.5653 16.5043 13.9542 17.749 13.7066C18.9937 13.459 20.2839 13.5861 21.4564 14.0718C22.6289 14.5574 23.6311 15.3799 24.3361 16.4351C25.0412 17.4903 25.4175 18.7309 25.4175 20C25.4175 21.7018 24.7415 23.3339 23.5381 24.5373C22.3348 25.7406 20.7027 26.4167 19.0009 26.4167ZM19.0009 16.4167C18.2921 16.4167 17.5993 16.6268 17.0101 17.0206C16.4208 17.4143 15.9615 17.9739 15.6903 18.6287C15.4191 19.2835 15.3481 20.004 15.4864 20.6991C15.6246 21.3942 15.9659 22.0327 16.4671 22.5338C16.9682 23.0349 17.6067 23.3762 18.3018 23.5145C18.9969 23.6527 19.7174 23.5818 20.3721 23.3106C21.0269 23.0394 21.5866 22.5801 21.9803 21.9908C22.374 21.4015 22.5842 20.7087 22.5842 20C22.5842 19.0496 22.2067 18.1382 21.5347 17.4662C20.8627 16.7942 19.9512 16.4167 19.0009 16.4167Z" fill="#169FDB" stroke="black" stroke-width="0.5"/>
</g>
<defs>
<clipPath id="clip0_971_3442">
<rect width="40" height="40" fill="white"/>
</clipPath>
</defs>
</svg>
