<svg width="593" height="600" viewBox="0 0 593 600" fill="none" xmlns="http://www.w3.org/2000/svg">
<path d="M543.567 142.055L549.087 126.496C550.249 123.948 549.204 120.941 546.729 119.697C544.294 118.472 541.333 119.675 540.4 122.264L534.49 139.017L533.522 141.758L532.068 145.875L543.567 142.055Z" fill="#FF847B"/>
<path d="M548.625 120.576C550.06 122.2 550.472 124.577 549.511 126.688L543.931 142.424L531.314 146.618L539.963 122.108C540.459 120.734 541.512 119.642 542.861 119.104C544.185 118.576 545.673 118.642 546.943 119.278C547.597 119.611 548.165 120.054 548.625 120.576ZM543.204 141.684L548.647 126.34C549.723 123.969 548.784 121.25 546.521 120.111C545.489 119.592 544.28 119.541 543.204 119.971C542.106 120.408 541.243 121.301 540.839 122.421L532.825 145.137L543.204 141.684Z" fill="#EF5F5B"/>
<path d="M534.587 158.444L552.104 146.312C553.685 145.217 554.303 143.166 553.596 141.381C552.951 138.846 550.853 136.966 548.283 136.617L548.067 136.589C543.709 136 538.688 138.539 534.825 140.691L530.667 143.669L526.652 155.326L534.587 158.444Z" fill="#FF847B"/>
<path d="M552.533 138.389C553.243 139.193 553.767 140.171 554.046 141.266C554.821 143.213 554.139 145.466 552.367 146.694L534.647 158.968L526.068 155.594L530.274 143.374L534.552 140.31C539.088 137.781 543.839 135.547 548.127 136.126L548.343 136.154C550.003 136.379 551.472 137.189 552.533 138.389ZM534.524 157.917L551.834 145.928C553.228 144.966 553.783 143.124 553.161 141.551C552.545 139.133 550.609 137.401 548.219 137.075L548.003 137.047C543.985 136.503 539.402 138.671 535.051 141.092L531.058 143.953L527.236 155.05L534.524 157.917Z" fill="#EF5F5B"/>
<path d="M517.963 166.515L537.295 169.401C539.73 169.215 541.65 167.217 541.767 164.758C541.777 164.527 541.78 164.296 541.774 164.065C541.669 160.821 539.53 158.01 536.562 156.766L524.98 152.902L517.963 166.515Z" fill="#FF847B"/>
<path d="M540.089 158.731C541.393 160.209 542.177 162.073 542.241 164.048C542.247 164.292 542.247 164.535 542.235 164.779C542.108 167.473 540 169.657 537.334 169.862L537.229 169.859L517.256 166.878L524.756 152.334L536.712 156.322C538.042 156.882 539.188 157.715 540.089 158.731ZM537.312 168.932C539.486 168.739 541.197 166.944 541.301 164.735C541.311 164.517 541.314 164.295 541.308 164.077C541.213 161.111 539.276 158.408 536.382 157.193L529.399 154.8L523.505 166.321L537.312 168.932Z" fill="#EF5F5B"/>
<path d="M551.164 145.798C551.37 146.029 551.564 146.295 551.732 146.602L551.932 146.969L543.42 152.898L543.147 152.663C543.115 152.638 542.388 151.996 542.474 150.821C542.588 149.239 544.086 147.523 546.924 145.722L549.028 144.406L549.234 144.472C549.288 144.491 550.313 144.839 551.164 145.798ZM550.691 146.7C550.164 145.972 549.466 145.589 549.136 145.438L547.419 146.511C544.239 148.527 543.48 149.989 543.404 150.862C543.372 151.217 543.458 151.489 543.55 151.673L550.691 146.7Z" fill="#EF5F5B"/>
<path d="M549.663 126.099L546.67 134.42L546.318 134.395C546.27 134.392 545.159 134.3 544.506 133.239C543.776 132.053 543.928 130.201 544.963 127.735L545.801 125.776L546.02 125.716C546.083 125.7 547.603 125.298 549.238 125.938L549.663 126.099ZM546.054 133.379L548.473 126.659C547.616 126.431 546.835 126.507 546.477 126.568L545.823 128.093C544.696 130.783 544.912 132.1 545.293 132.733C545.515 133.103 545.82 133.287 546.054 133.379Z" fill="#EF5F5B"/>
<path d="M482.546 206.435C475.789 202.561 473.434 193.866 477.313 187.118L542.267 74.1004C546.145 67.3493 554.848 64.9977 561.609 68.8717C568.366 72.7457 570.721 81.4401 566.843 88.1912L501.888 201.209C498.007 207.957 489.304 210.309 482.546 206.435Z" fill="#3E388E"/>
<path d="M531.236 21.4472L526.068 38.3898L559.845 47.9451L565.301 30.2112L531.236 21.4472Z" fill="#3795E2"/>
<path d="M565.892 29.8813L560.157 48.5172L525.488 38.7087L530.922 20.8862L565.892 29.8813ZM559.535 47.3714L564.711 30.5365L531.55 22.0067L526.653 38.0693L559.535 47.3714Z" fill="#3795E2"/>
<path d="M532.324 0L523.297 31.9639L564.774 44.2222C571.382 46.175 578.361 42.5827 580.599 36.069L592.999 0H532.324Z" fill="#000543"/>
<path d="M581.52 0L566.774 43.5385L523.875 31.6411L532.809 0H531.841L522.85 31.8405L522.723 32.2899L567.373 44.6716L582.5 0H581.52Z" fill="#000543"/>
<path d="M522.053 51.5596L491.803 110.097C487.381 118.627 489.311 122.621 491.857 131.857L492.647 134.721L508.777 131.743L508.19 128.758C507.748 126.527 508.697 124.242 510.586 122.979L518.66 117.583C519.917 116.744 521.507 117.978 521.015 119.415L511.722 146.67L507.126 160.146C506.65 161.542 506.571 162.979 506.815 164.334C507.326 167.16 509.272 169.632 512.163 170.648C516.413 172.139 521.073 169.68 522.666 165.416L535.847 130.192C536.583 128.227 537.574 126.366 538.796 124.66L550.949 107.689C554.557 102.647 556.503 96.592 556.5 90.3917L556.493 66.7708C556.493 60.6496 557.538 54.5695 559.588 48.7965L559.845 47.9387L526.068 38.3866L522.053 51.5596Z" fill="white"/>
<path d="M560.427 47.6246L560.036 48.935C557.992 54.6954 556.961 60.69 556.961 66.7764L556.967 90.3972C556.967 96.7368 555.019 102.811 551.327 107.963L539.174 124.934C537.978 126.605 537.003 128.432 536.283 130.359L523.102 165.583C521.388 170.166 516.411 172.635 512.009 171.09C509.082 170.062 506.915 167.504 506.356 164.422C506.089 162.943 506.204 161.415 506.686 160L520.572 119.269C520.766 118.699 520.502 118.243 520.197 118.009C519.896 117.778 519.401 117.648 518.915 117.971L510.841 123.368C509.098 124.532 508.238 126.615 508.644 128.672L509.324 132.119L492.311 135.259L491.41 131.983C491.147 131.03 490.893 130.131 490.648 129.28C488.519 121.814 487.344 117.699 491.394 109.888L521.626 51.3879L525.761 37.8224L560.427 47.6246Z" fill="#FF847B"/>
<path d="M520.263 155.167C521.091 156.107 521.656 157.357 521.856 158.756C521.992 159.62 521.967 160.516 521.78 161.412C521.659 162 521.428 162.599 521.205 163.178C521.11 163.425 521.015 163.675 520.926 163.925L520.244 165.802C520.139 166.058 520.037 166.248 519.917 166.409C519.441 167.115 518.568 167.596 517.651 167.644C517.203 167.666 516.768 167.599 516.321 167.438L512.588 166.124C512.296 166.017 512.004 165.915 511.709 165.814C511.166 165.627 510.607 165.438 510.093 165.206C509.167 164.725 508.516 163.868 508.329 162.896C508.227 162.38 508.249 161.855 508.389 161.38C508.5 161.035 508.633 160.703 508.767 160.373L509.871 157.62C510.563 155.882 512.039 154.433 513.813 153.743C515.603 153.024 517.657 153.205 519.174 154.221C519.574 154.483 519.939 154.803 520.263 155.167ZM509.789 163.817C509.985 164.042 510.227 164.232 510.493 164.371C510.944 164.57 511.484 164.757 512.007 164.934C512.309 165.039 512.607 165.14 512.899 165.248L516.628 166.561C516.962 166.681 517.279 166.732 517.6 166.713C518.231 166.681 518.825 166.359 519.155 165.871C519.241 165.757 519.307 165.634 519.374 165.466L520.047 163.611C520.139 163.355 520.237 163.099 520.336 162.845C520.555 162.276 520.761 161.741 520.866 161.225C521.028 160.449 521.05 159.642 520.932 158.895C520.688 157.205 519.856 155.787 518.657 154.993C517.39 154.145 515.664 153.999 514.153 154.607C512.607 155.205 511.331 156.461 510.731 157.965L509.624 160.718C509.5 161.029 509.373 161.342 509.271 161.655C509.176 161.975 509.163 162.348 509.236 162.716C509.316 163.118 509.512 163.501 509.789 163.817Z" fill="#EF5F5B"/>
<path d="M508.539 130.572L510.171 138.991L508.565 140.675C508.327 140.925 508.133 141.216 507.997 141.533L506.959 143.928L501.287 162.289C500.373 161.453 499.687 160.365 499.345 159.118L497.447 152.23L492.355 133.683L508.539 130.572Z" fill="#FF847B"/>
<path d="M508.888 130.261C508.942 130.321 508.98 130.397 508.996 130.479L510.672 139.133L508.897 140.991C508.694 141.203 508.532 141.446 508.418 141.712L507.38 144.108L501.508 163.124L500.966 162.63C499.969 161.715 499.249 160.544 498.887 159.237L491.901 133.8C491.834 133.553 491.98 133.296 492.228 133.227C492.475 133.157 492.732 133.306 492.799 133.553L499.785 158.99C500.029 159.883 500.467 160.703 501.067 161.399L506.507 143.789L507.561 141.345C507.72 140.978 507.942 140.642 508.221 140.351L509.662 138.842L508.075 130.66C508.028 130.41 508.193 130.163 508.444 130.115C508.618 130.081 508.783 130.144 508.888 130.261Z" fill="#FF847B"/>
<path d="M461.418 188.71L0.221423 516.42C-0.473666 529.286 0.491207 542.583 2.78595 555.021C4.05235 563.307 6.29949 571.369 9.17824 578.804C12.2315 587.147 15.9165 594.436 20.0775 600H20.1822H434.132H456.984L507.389 216.73L461.418 188.71Z" fill="#139DD9"/>
<path d="M506.605 164.602C493.404 157.838 479.109 159.354 474.675 167.989L461.424 188.577L483.737 192.322L484.079 191.73C486.022 193.255 488.183 194.654 490.551 195.87C492.954 197.101 495.394 198.05 497.803 198.74L496.197 199.851L509.842 213.385L521.957 193.42C522.112 193.094 522.319 192.803 522.484 192.483C526.911 183.846 519.805 171.366 506.605 164.602Z" fill="#3E388E"/>
<path d="M509.838 213.423C514.349 204.69 507.173 192.046 493.81 185.182C480.448 178.319 465.958 179.834 461.447 188.568C456.936 197.301 464.112 209.945 477.475 216.809C490.837 223.672 505.327 222.156 509.838 213.423Z" fill="white"/>
<path d="M467.242 205.681C467.023 205.681 466.807 205.574 466.677 205.378C463.433 200.44 462.754 195.306 464.814 191.293C466.207 188.577 468.74 186.564 472.139 185.476C477.919 183.618 485.495 184.627 492.411 188.172C494.477 189.233 496.414 190.48 498.162 191.875C498.454 192.11 498.502 192.534 498.267 192.822C498.032 193.116 497.607 193.157 497.318 192.926C495.639 191.584 493.779 190.388 491.792 189.369C485.19 185.985 477.995 185.01 472.552 186.757C469.505 187.735 467.245 189.517 466.017 191.907C464.182 195.477 464.836 200.117 467.804 204.64C468.007 204.95 467.921 205.368 467.61 205.574C467.499 205.647 467.372 205.681 467.242 205.681Z" fill="#FFEB9A"/>
<path d="M492.421 219.107C487.933 219.107 483.007 217.873 478.373 215.499C474.498 213.515 471.092 210.866 468.522 207.84C468.28 207.555 468.315 207.131 468.601 206.89C468.887 206.653 469.312 206.685 469.553 206.969C472.01 209.862 475.272 212.398 478.989 214.303C485.594 217.686 492.783 218.664 498.229 216.914C501.276 215.936 503.536 214.154 504.765 211.765C505.771 209.812 506.04 207.584 505.574 205.143C505.504 204.779 505.745 204.425 506.11 204.355C506.466 204.286 506.831 204.526 506.901 204.89C507.418 207.593 507.094 210.182 505.967 212.379C504.574 215.094 502.038 217.107 498.642 218.196C496.741 218.807 494.637 219.107 492.421 219.107Z" fill="#FFEB9A"/>
<path d="M495.976 154.547L513.496 124.358L513.976 132.518L504.175 163.662L495.637 162.988L495.976 154.547Z" fill="#3E388E"/>
<path d="M310.676 383.399C310.822 383.368 310.934 383.336 311.041 383.295C316.885 381.735 318.421 377.05 318.818 374.946C318.868 374.866 318.916 374.784 318.967 374.705C318.297 374.11 317.751 373.224 317.523 372.201C317.101 370.325 317.881 368.755 319.272 368.691C319.792 368.669 320.319 368.859 320.801 369.204C321.141 369.445 321.446 369.777 321.715 370.154C321.995 370.081 321.988 369.204 321.979 368.976C321.954 368.419 321.808 367.862 321.766 367.302C321.706 366.501 322.055 365.517 322.417 364.555L324.213 373.195C324.728 376.208 323.598 378.962 321.649 380.88C320.732 381.782 319.633 382.491 318.44 382.963C317.948 384.149 317.567 385.387 317.301 386.656C317.04 387.897 316.488 389.647 315.406 391.109C315.022 391.625 313.828 391.809 313.149 391.863C310.505 392.072 307.188 392.607 305.103 390.73C304.649 390.321 305.706 387.941 306.163 386.83C306.646 385.662 307.233 384.808 307.718 383.64C307.849 383.33 307.95 382.921 308.045 382.494C308.553 382.751 309.004 383.14 309.534 383.333C309.921 383.472 310.308 383.475 310.676 383.399Z" fill="#FF847B"/>
<path d="M295.038 369.141C294.279 366.697 297.155 364.966 297.151 362.494C297.151 361.336 296.517 360.025 297.047 359.066C297.866 357.582 300.703 358.323 301.322 356.721C301.557 356.117 301.36 355.373 301.541 354.746C301.754 354.012 302.531 353.55 303.312 353.695C303.852 353.797 304.398 354.151 304.909 354.037C305.575 353.888 305.772 353.04 305.673 352.322C305.575 351.603 305.299 350.863 305.439 350.182C305.654 349.134 306.838 348.631 307.917 348.815C310.628 349.274 311.99 351.277 315.43 352.379C317.341 352.993 320.461 354.262 321.578 355.791C322.822 357.49 323.397 360.355 323.13 362.285C322.93 363.719 321.648 365.83 321.759 367.305C321.8 367.865 322.26 370.03 321.708 370.154C319.658 367.327 316.77 368.91 317.512 372.204C317.744 373.227 318.287 374.113 318.96 374.708C318.909 374.787 318.864 374.869 318.81 374.949C317.988 379.338 314.827 382.504 310.669 383.406C310.301 383.478 309.914 383.475 309.527 383.336C307.698 382.681 308.885 382.203 305.061 382.019C304.074 381.972 302.976 381.772 302.281 381.016C301.5 380.168 301.544 379.044 301.519 377.917C298.815 376.48 299.818 375.844 299.069 373.945C298.3 371.996 295.653 371.128 295.038 369.141Z" fill="#000543"/>
<path d="M285.415 408.66C286.868 400.399 292.543 393.626 297.234 393.819L305.16 408.283C302.97 415.012 295.812 444.57 296.838 452.024C297.882 460.32 300.513 473.167 303.297 482.333C303.95 484.488 302.817 486.786 300.71 487.637L297.285 489.024C295.006 489.945 292.41 488.837 291.506 486.571C280.717 459.56 280.387 442.576 285.415 408.66Z" fill="white"/>
<path d="M302.265 588.717L295.175 586.833C295.067 587.188 294.968 587.536 294.876 587.878C294.584 588.963 294.394 589.97 294.289 590.9L300.964 592.714C301.399 591.382 301.834 590.049 302.265 588.717Z" fill="#FF8698"/>
<path d="M294.285 590.901C293.929 593.98 294.574 596.113 296.132 596.579C297.668 597.047 299.912 595.882 300.702 593.499C300.788 593.236 300.874 592.974 300.96 592.714L294.285 590.901Z" fill="#FF8698"/>
<path d="M320.887 479.772C320.894 479.557 320.887 479.345 320.865 478.994L320.77 476.474L293.636 475.423L290.497 475.477L290.653 478.348C290.675 478.557 290.706 478.886 290.726 479.095C294.163 502.811 297.264 549.195 289.64 584.602C289.177 586.748 290.843 588.831 293.233 589.16L302.244 590.397C304.462 590.701 306.532 589.372 306.941 587.378C315.749 544.558 320.183 503.798 320.887 479.772Z" fill="#000543"/>
<path d="M319.356 588.717L312.268 586.837C312.16 587.191 312.062 587.539 311.97 587.881C311.678 588.967 311.488 589.973 311.383 590.904L318.058 592.717C318.489 591.382 318.924 590.049 319.356 588.717Z" fill="#FF8698"/>
<path d="M311.38 590.901C311.025 593.98 311.669 596.113 313.228 596.579C314.764 597.047 317.008 595.882 317.798 593.499C317.884 593.236 317.969 592.974 318.055 592.714L311.38 590.901Z" fill="#FF8698"/>
<path d="M337.978 479.772C337.984 479.557 337.978 479.345 337.956 478.994L337.864 476.474L310.73 475.423L307.591 475.477L307.746 478.348C307.768 478.557 307.8 478.886 307.819 479.095C311.26 502.811 314.358 549.195 306.734 584.602C306.27 586.748 307.937 588.831 310.327 589.16L319.337 590.397C321.556 590.701 323.622 589.372 324.035 587.378C332.839 544.558 337.273 503.798 337.978 479.772Z" fill="#000543"/>
<path d="M311.723 599.842C312.888 598.731 312.618 597.037 310.308 596.253L295.822 591.334C295.108 591.094 294.235 591.353 294.086 591.856L291.725 599.832C291.721 599.842 311.723 599.842 311.723 599.842Z" fill="#000543"/>
<path d="M307.336 502.206C307.92 507.59 309.472 512.894 309.307 518.31C309.158 523.219 307.6 527.985 307.222 532.882C306.867 537.458 307.549 542.041 308.025 546.609C309.326 559.063 309.114 571.673 307.393 584.073C314.706 553.828 320.841 522.58 316.61 491.752C316.277 489.328 315.865 486.865 314.744 484.688C312.834 480.972 305.921 477.237 305.781 483.317C305.648 489.201 306.695 496.281 307.336 502.206Z" fill="#000543"/>
<path d="M308.838 565.305C308.647 565.302 308.498 565.15 308.498 564.963C308.616 557.202 307.959 549.616 307.235 542.57C306.629 536.683 307.352 531.448 308.114 525.906C308.32 524.406 308.53 522.887 308.717 521.326C309.323 516.272 308.476 511.148 307.66 506.191C307.321 504.134 306.972 502.007 306.73 499.915C306.6 498.794 306.356 497.411 306.099 495.949C305.194 490.818 304.071 484.431 306.137 480.833C306.229 480.668 306.435 480.614 306.597 480.706C306.759 480.798 306.816 481.003 306.724 481.165C304.782 484.555 305.883 490.806 306.765 495.832C307.025 497.304 307.27 498.693 307.4 499.839C307.641 501.915 307.99 504.032 308.327 506.083C309.152 511.087 310.003 516.259 309.387 521.409C309.2 522.975 308.99 524.498 308.784 526.001C308.025 531.505 307.311 536.699 307.908 542.504C308.631 549.568 309.288 557.177 309.174 564.976C309.174 565.156 309.022 565.305 308.838 565.305Z" fill="#3E388E"/>
<path d="M291.011 509.229C291.51 513.892 292.287 518.532 292.316 523.225C292.344 528.258 291.513 533.24 291.218 538.259C290.894 543.76 291.221 549.28 291.316 554.794C291.494 565.15 290.849 575.525 289.393 585.748C293.69 569.638 298.01 553.404 299.463 536.648C300.987 519.047 299.308 501.314 297.632 483.732C297.277 480.006 296.921 476.278 296.566 472.553C296.432 471.141 296.267 469.644 295.487 468.536C294.658 467.359 293.379 467.21 292.262 467.859C292.113 467.299 291.656 466.507 291.573 465.995C290.567 480.272 289.485 494.917 291.011 509.229Z" fill="#000543"/>
<path d="M289.159 401.139C289.159 401.139 299.309 376.769 324.139 395.61C334.803 403.703 331.585 417.924 332.712 430.059C333.635 439.997 332.343 444.412 334.483 453.198C336.187 460.199 336.857 464.086 338.022 467.609C341.278 477.446 336.803 479.794 335.93 480.76C335.248 481.513 331.81 484.577 322.295 485.447C313.243 486.273 311.503 479.994 294.717 480.709C292.638 480.798 290.594 479.218 290.124 477.015C285.823 456.731 288.553 444.558 287.718 414.607C287.375 413.157 286.566 405.691 289.159 401.139Z" fill="white"/>
<path d="M294.385 481.209C292.175 481.209 290.109 479.5 289.633 477.246C286.831 464.039 287.002 454.303 287.24 440.833C287.367 433.54 287.513 425.273 287.221 414.778L287.177 413.499C287.027 409.248 286.926 406.441 288.678 401.193C288.748 401.022 290.243 397.481 293.499 394.113C293.629 393.98 293.842 393.977 293.978 394.107C294.112 394.237 294.115 394.449 293.985 394.585C290.817 397.86 289.325 401.396 289.309 401.431C287.605 406.542 287.703 409.302 287.853 413.477L287.897 414.759C288.189 425.273 288.043 433.547 287.916 440.845C287.681 454.274 287.51 463.972 290.293 477.107C290.719 479.114 292.591 480.636 294.54 480.532C294.727 480.525 294.886 480.668 294.892 480.855C294.899 481.041 294.756 481.2 294.569 481.206C294.508 481.206 294.445 481.209 294.385 481.209Z" fill="#B4C0DB"/>
<path d="M351.234 502.425H315.816C315.816 502.431 318.33 502.431 318.33 502.431C319.762 502.431 320.936 503.634 320.936 505.105V539.301C320.936 540.481 320.177 541.478 319.14 541.829H350.971C352.609 541.829 353.951 540.453 353.951 538.772V505.21C353.948 503.678 352.726 502.425 351.234 502.425Z" fill="#3E388E"/>
<path d="M320.937 539.304V505.109C320.937 503.637 319.766 502.435 318.331 502.435H315.817H313.373C311.939 502.435 310.768 503.637 310.768 505.109V539.304C310.768 540.776 311.939 541.979 313.373 541.979H318.331C318.614 541.979 318.883 541.919 319.137 541.833C320.178 541.482 320.937 540.485 320.937 539.304Z" fill="#282868"/>
<path d="M338.987 505.827H338.022V498.927C338.022 498.012 337.276 497.269 336.362 497.269H327.615C326.701 497.269 325.955 498.012 325.955 498.927V504.38H324.99V498.927C324.99 497.481 326.168 496.306 327.615 496.306H336.362C337.81 496.306 338.987 497.484 338.987 498.927V505.827Z" fill="#3E388E"/>
<path d="M329.935 478.433C332.106 484.751 333.248 487.859 333.921 489.369L329.544 490.704C327.948 487.875 325.967 484.279 323.869 480.181L329.935 478.433Z" fill="#FF847B"/>
<path d="M337.618 494.411C337.698 494.629 337.771 494.873 337.663 495.082C337.472 495.446 336.856 495.43 336.52 495.173C336.184 494.917 336.025 494.518 335.8 494.173C335.574 493.828 335.193 493.499 334.755 493.553C334.447 494.838 334.546 496.199 335.038 497.433C335.517 498.639 335.701 498.854 334.057 500.025C332.93 500.829 329.642 500.978 328.547 499.503C327.966 498.718 327.795 498.494 327.728 497.547C327.576 495.385 327.782 493.198 328.338 491.087C328.582 490.163 328.973 489.157 329.902 488.717C331.343 488.033 332.448 486.89 333.406 488.087C334.574 489.54 336.983 492.692 337.618 494.411Z" fill="#FF847B"/>
<path d="M306.605 410.1C307.037 402.178 311.744 398.399 316.447 398.535L326.248 409.53C324.893 415.993 321.402 444.362 323.341 451.483C325.404 459.411 329.616 471.679 333.52 480.424C334.44 482.482 333.59 484.694 331.593 485.529L328.346 486.89C326.188 487.796 323.462 486.761 322.278 484.602C308.195 458.867 305.77 442.618 306.605 410.1Z" fill="white"/>
<path d="M326.774 487.558C324.911 487.558 323.026 486.507 322.074 484.767C307.775 458.639 305.525 442.488 306.353 410.09C306.404 409.15 306.515 408.242 306.686 407.384C306.721 407.201 306.893 407.083 307.083 407.118C307.267 407.156 307.385 407.33 307.35 407.514C307.185 408.34 307.077 409.217 307.029 410.116C306.204 442.371 308.442 458.452 322.667 484.441C323.772 486.463 326.301 487.422 328.307 486.58L331.554 485.216C332.417 484.855 333.074 484.194 333.404 483.358C333.754 482.482 333.715 481.485 333.3 480.557C329.618 472.309 325.327 460.117 323.102 451.562C321.28 444.874 324.213 419.842 325.635 411.454C325.666 411.271 325.825 411.141 326.025 411.179C326.209 411.211 326.333 411.382 326.301 411.568C324.886 419.915 321.962 444.798 323.756 451.391C325.66 458.706 329.761 470.973 333.919 480.285C334.407 481.383 334.449 482.561 334.033 483.608C333.633 484.612 332.846 485.406 331.814 485.84L328.567 487.204C327.996 487.444 327.387 487.558 326.774 487.558Z" fill="#B4C0DB"/>
<path d="M328.882 599.842C329.885 598.731 329.545 597.145 327.33 596.392L312.841 591.47C312.127 591.23 311.254 591.489 311.105 591.993L308.781 599.842H328.882Z" fill="#000B5E"/>
</svg>
