<?xml version="1.0" encoding="utf-8"?>
<!-- Generator: Adobe Illustrator 23.0.3, SVG Export Plug-In . SVG Version: 6.00 Build 0)  -->
<svg version="1.1" id="Layer_1" xmlns="http://www.w3.org/2000/svg" xmlns:xlink="http://www.w3.org/1999/xlink" x="0px" y="0px"
	 width="350px" height="100px" viewBox="0 0 350 100" style="enable-background:new 0 0 350 100;" xml:space="preserve">
<style type="text/css">
	.st0{fill:#FFFFFF;}
</style>
<g>
	<path id="LetterA" class="st0" d="M4,73L38,1h10l34,72H68L43,19L28,52h23l5,10H23l-5,11H4z"/>
</g>
<g>
	<path id="LetterV" class="st0" d="M69,1l34,72h10l34-72h-14l-25,55L83,1H69z"/>
</g>
<g>
	<path class="st0" d="M133,73l34-72h10l34,72h-14l-25-54l-15,33h23l5,10h-33l-5,11H133z"/>
</g>
<g>
	<path id="LetterY" class="st0" d="M200,1l30,71l-13,27h14l47-98h-15l-26,56L215,1H200z"/>
</g>
<g>
	<path class="st0" d="M264,73l34-72h10l34,72h-14l-25-54l-15,33h23l5,10h-33l-5,11H264z"/>
</g>
</svg>
