<?xml version="1.0" encoding="utf-8"?>
<!-- Generator: Adobe Illustrator 23.0.3, SVG Export Plug-In . SVG Version: 6.00 Build 0)  -->
<svg version="1.1" id="Layer_1" xmlns="http://www.w3.org/2000/svg" xmlns:xlink="http://www.w3.org/1999/xlink" x="0px" y="0px"
	 width="2500px" height="444px" viewBox="0 0 2500 444" style="enable-background:new 0 0 2500 444;" xml:space="preserve">
<style type="text/css">
	.st0{fill:#FFFFFF;}
</style>
<g>
	<path class="st0" d="M787.5,52.7c122.1,0,151.9,85.9,151.9,152.3c0,59.9-25.4,149.7-151.9,149.7H621.9v-302L787.5,52.7z
		 M737.5,279.1h23.3c25.8,0,56.9-7.8,56.9-75.9c0-69.9-28.9-79.4-56.9-79.4h-23.3V279.1z M1065.4,128.6v51.3h1.7
		c8.6-28.5,31.9-56.5,68.2-56.5c5.6,0,12,0.9,17.7,2.1v90.6c-7.3-2-14.8-3.2-22.4-3.4c-32.4,0-58.2,20.7-58.2,59.9v82H963.6v-226
		H1065.4z M1153,271.6h94v83.3h-94V271.6z M1376.5,245.9h1.7l47.9-192.4H1537l46.6,192.4h1.7L1622,53.6H1725l-72.5,301h-124.3
		l-50-196.6h-1.7l-47.5,196.6h-126.8l-70.3-301h108.3L1376.5,245.9z M2006.4,52.7v71.2h-147.9v43.6H2000v69h-141.5v47h151v71.2H1743
		v-302H2006.4z M2217.5,52.7c94.4,0,111.7,50.5,111.7,78.6c0,34.5-23.7,62.5-61.3,69.4v1.7c30.2,4.3,68.2,24.2,68.2,71.6
		c0,76.4-86.3,80.7-124.7,80.7h-175.5v-302L2217.5,52.7z M2145.4,172.2h27.2c39.6,0,43.5-20.7,43.5-29.3c0-12.6-9-28.9-40.9-28.9
		h-29.8L2145.4,172.2z M2145.4,293.3h29.3c37.1,0,43.2-20.3,43.2-31c0-30.6-35.8-30.6-45.8-30.6h-26.7L2145.4,293.3z M2351.3,127.7
		c0-41.2,33.3-74.3,74.3-74.3c41.1,0,74.3,33.1,74.3,74.3s-33.3,74.3-74.3,74.3C2384.6,202,2351.3,168.9,2351.3,127.7 M2425.7,178
		c26.1,0,47.7-22.8,47.7-50.4c0-27.5-21.6-50.3-47.7-50.3c-26.1,0-47.7,22.8-47.7,50.3C2378,155.2,2399.5,178,2425.7,178
		 M2432.5,94.4c9.1,0,24.2,1,24.2,17.1c0.5,8.1-5.3,15.3-13.4,16.4v0.6c5.7,0.5,9.9,5.4,11.3,11.4l4.1,18.7h-24.4l-2.1-16
		c-0.8-5.4-4.7-6.4-7.4-6.4h-5.5v22.4h-23.1V94.4L2432.5,94.4z M2418.5,122.4h5.6c2.6,0,9.6,0,9.6-7c0-6.6-6.4-6.6-9-6.6h-6.2
		L2418.5,122.4z M287.3,90.2l88.8,49.6c2.2-6,3.4-12.4,3.4-18.8c0-38.9-41.1-70.5-91.7-70.5c-50.7,0-91.7,31.5-91.7,70.5
		c0,6.3,1.1,12.6,3.1,18.4L287.3,90.2z M441.5,233.8l71,42.8L379.4,438L441.5,233.8z M445.2,192.6l-8-35.4l136.9,40.3l-84.8,45.4
		l11.6-36.9L445.2,192.6z M429.3,134.2l-18.1-25l121.3-38.8l-30.2,95.5L489.9,122L429.3,134.2z M395.9,89.8L370.4,63l33.4-34.2
		L367.3,6h97L395.9,89.8z M132.6,233.8l-71,42.8L194.7,438L132.6,233.8z M128.8,192.6l8-35.4L0,197.5l84.9,45.4L73.2,206
		L128.8,192.6z M144.8,134.2l18.1-25L41.5,70.4l30.2,95.5L84.2,122L144.8,134.2z M178.2,89.8L203.7,63l-33.4-34.2L206.9,6h-97.1
		L178.2,89.8z"/>
	<path class="st0" d="M252.3,190l16.4-48.6h37.7l17.3,48.6h0.6l10.1-44.8l-47.4-27l-47.2,26.8l11.9,45L252.3,190z"/>
	<path class="st0" d="M415.6,191.5l-49.5-28.2l-17.9,54.1h-44.2l-16.8-49.6h-0.6L270,217.4h-44.4l-17.9-54.1l-49.5,28.2
		c0,0-18,63.8,50.8,116.2c24.1,18.4,42,30.3,58.2,35.8l-3-9.1h45.4l-3.1,9.2c16.1-5.4,34.1-17.3,58-35.9
		C432.9,254.8,415.6,191.5,415.6,191.5 M314.9,318.8h-55.7l-6-18.2h67.7L314.9,318.8z M326,285.1H248l-6-18.3h90L326,285.1z
		 M337.2,251.3H236.8l-6-18.3h112.4L337.2,251.3z"/>
</g>
</svg>
