<?xml version="1.0" encoding="utf-8"?>
<!-- Generator: Adobe Illustrator 23.0.3, SVG Export Plug-In . SVG Version: 6.00 Build 0)  -->
<svg version="1.1"
	 id="svg4570" xmlns:cc="http://creativecommons.org/ns#" xmlns:dc="http://purl.org/dc/elements/1.1/" xmlns:rdf="http://www.w3.org/1999/02/22-rdf-syntax-ns#" xmlns:svg="http://www.w3.org/2000/svg"
	 xmlns="http://www.w3.org/2000/svg" xmlns:xlink="http://www.w3.org/1999/xlink" x="0px" y="0px" width="96.6px" height="17px"
	 viewBox="0 0 96.6 17" style="enable-background:new 0 0 96.6 17;" xml:space="preserve">
<style type="text/css">
	.st0{fill:#FFFFFF;}
</style>
<g id="g986" transform="matrix(1.5852583,0,0,-1.5852583,-325.18278,1608.1364)">
	<g id="g988">
		<g id="g994" transform="translate(553.4749,807.58299)">
			<path id="path996" class="st0" d="M-299.4,206.3v-3.7h5c0,0,0,3.8,0,3.7c0,0,2.5,0,2.5,0c0,0,0-9.4,0-9.4h-2.5v4.1c0,0-5,0-5,0
				c0,0,0-4.1,0-4.1h-2.5c0,0,0,9.4,0,9.4H-299.4z"/>
		</g>
		<g id="g998" transform="translate(524.0071,807.58299)">
			<path id="path1000" class="st0" d="M-293.5,206.3v-1.6h-3.8v-7.8h-2.5v7.8h-3.8c0,0,0,1.6,0,1.6
				C-303.5,206.3-293.5,206.3-293.5,206.3"/>
		</g>
		<g id="g1002" transform="translate(536.08031,795.8652)">
			<path id="path1004" class="st0" d="M-295.9,208.7h-2.8c0,0-0.8,2-0.8,2h-4.7c0,0-0.8-2-0.8-2c0,0-2.8,0-2.8,0l4.4,9.4
				c0,0,3,0,3,0L-295.9,208.7z M-301.8,216.4l-1.7-4.3h3.5C-300.1,212.2-301.8,216.4-301.8,216.4z"/>
		</g>
	</g>
</g>
<path id="path1006" class="st0" d="M92.7,0.9h3.9v14.9h-3.9V0.9z"/>
<g id="g1008" transform="matrix(1.5852583,0,0,-1.5852583,-325.18278,1608.1364)">
	<g id="g1010">
		<g id="g1016" transform="translate(495.3557,807.58299)">
			<path id="path1018" class="st0" d="M-287.7,206.3c0,0,0-3.8,0-3.7h5c0,0,0,3.8,0,3.7c0,0,2.5,0,2.5,0c0,0,0-9.4,0-9.4h-2.5v4.1
				c0,0-5,0-5,0c0,0,0-4.1,0-4.1h-2.5c0,0,0,9.4,0,9.4H-287.7z"/>
		</g>
	</g>
</g>
<path id="path1020" class="st0" d="M18.9,0.9h3.9v14.9h-3.9V0.9z"/>
<g id="g1022" transform="matrix(1.5852583,0,0,-1.5852583,-325.18278,1608.1364)">
	<g id="g1024">
		<g id="g1030" transform="translate(535.9689,799.1084)">
			<path id="path1032" class="st0" d="M-295.9,208c-0.2,0.6-0.3,1.3-0.3,2c0,1,0.2,1.9,0.6,2.7c0.5,0.8,1.2,1.4,2.1,1.8
				c0.9,0.3,1.8,0.5,2.8,0.5c1.1,0,2.2-0.2,3.1-0.7c0.9-0.4,1.6-1.2,1.8-2.2c0-0.2,0.1-0.4,0.1-0.6h-2.6c0,0.3,0,0.5-0.1,0.7
				c-0.2,0.5-0.6,0.9-1.2,1.1c-0.3,0.1-0.7,0.2-1.1,0.2c-0.4,0-0.8-0.1-1.2-0.2c-0.6-0.2-1.1-0.7-1.4-1.4c-0.2-0.6-0.3-1.3-0.3-2
				c0-0.6,0.1-1.1,0.2-1.6c0.2-0.7,0.7-1.2,1.4-1.5c0.4-0.2,0.9-0.2,1.3-0.2c0.4,0,0.8,0.1,1.1,0.2c0.5,0.2,0.9,0.5,1.1,1
				c0.1,0.3,0.2,0.6,0.2,1h2.6c0-0.3-0.1-0.6-0.1-0.9c-0.2-0.9-0.9-1.7-1.7-2.1c-1-0.4-2.1-0.6-3.2-0.6c-0.9,0-1.7,0.1-2.5,0.4
				C-294.4,205.9-295.4,206.8-295.9,208"/>
		</g>
	</g>
</g>
</svg>
