<?xml version="1.0" encoding="utf-8"?>
<!-- Generator: Adobe Illustrator 23.0.3, SVG Export Plug-In . SVG Version: 6.00 Build 0)  -->
<svg version="1.1" id="Layer_1" xmlns="http://www.w3.org/2000/svg" xmlns:xlink="http://www.w3.org/1999/xlink" x="0px" y="0px"
	 width="433.7px" height="433.7px" viewBox="0 0 433.7 433.7" style="enable-background:new 0 0 433.7 433.7;" xml:space="preserve"
	>
<style type="text/css">
	.st0{fill:#FFFFFF;}
</style>
<path class="st0" d="M216.9,432.9c-2.1,0-4.3,0-6.4-0.1l44.1-121.3h60.8c10.7,0,22.4-8.2,26-18.2l47.9-131.5
	c7.8-21.5-4.5-39.2-27.4-39.2h-84.3l-70.7,194.3h0L166.7,427C71.6,404.4,0.9,318.9,0.9,216.9c0-99.1,66.7-182.6,157.7-208
	l-41.4,113.7h0L48.4,311.4l45.8,0l58.5-160.5h34.4l-58.5,160.5l45.8,0l54.5-149.8c7.8-21.5-4.5-39.2-27.4-39.2H163L207.1,1.1
	c3.2-0.1,6.5-0.2,9.7-0.2c119.3,0,216,96.7,216,216C432.9,336.1,336.1,432.9,216.9,432.9z M347.5,150.8h-34.4L265,282.9h34.4
	L347.5,150.8z"/>
</svg>
