<?xml version="1.0" encoding="utf-8"?>
<!-- Generator: Adobe Illustrator 23.0.3, SVG Export Plug-In . SVG Version: 6.00 Build 0)  -->
<svg version="1.1" id="Layer_1" xmlns="http://www.w3.org/2000/svg" xmlns:xlink="http://www.w3.org/1999/xlink" x="0px" y="0px"
	 width="1024px" height="210px" viewBox="0 0 1024 210" style="enable-background:new 0 0 1024 210;" xml:space="preserve">
<style type="text/css">
	.st0{fill:#FFFFFF;}
</style>
<path class="st0" d="M461.5,105.7c0,38.7-23.6,56.9-53.1,56.9h-18v-23.2H407c17.8,0,29.7-9.6,29.7-33.7c0-23.9-11.2-35.9-30.2-35.9
	c-18.3,0-31.3,11.2-31.3,35.4v97h-24.6V49.7h24.6v13.1h3.5c8.2-11,20.3-15.9,33-15.9C438.8,46.9,461.5,66.6,461.5,105.7z
	 M299.8,95.6L283.4,94c-12.9-1.2-19.7-4.7-19.7-12.2c0-8.9,8.7-14.1,21.1-14.1c12.9,0,21.1,6.1,21.8,14.8h23.7
	c-0.9-22-18-35.6-45.2-35.6c-27.4,0-45.9,14.5-45.9,35.9c0,17.8,11.2,29.3,36.8,31.9l16.6,1.6c10.1,0.9,16.9,3,16.9,12.7
	c0,8.7-6.3,15-23,15c-15.3,0-22.9-7-25.5-16.3h-25.6c2.6,21.3,20.4,37.8,51.1,37.8c28.8,0,47.6-15.2,47.6-37.7
	C334,107.8,320.9,97.7,299.8,95.6z M556.8,127.6c-3.9,8.9-13.1,15.6-26.2,15.6c-18,0-31.4-11.7-31.4-37c0-24.1,12.4-37.5,31.6-37.5
	c17.1,0,26.9,10.3,27.9,25.8h-44.3v17.8h68.4v-11.7c0-32.6-21.6-53.7-52.3-53.7c-28.6,0-56,19.4-56,59.3c0,39.8,27.4,59.3,56,59.3
	c26.1,0,44.8-16.1,50.6-37.8H556.8z M168.9,46.9c-26.9,0-47.1,14.1-49.4,35.6H146c1.9-8,9.1-13.8,23-13.8c17.8,0,23.7,9.4,23.7,20.9
	v38.7c-10.1,11.5-21.8,16.9-33.5,16.9c-12.2,0-20.6-5.9-20.6-16.4c0-10.1,6.6-16.4,19.2-16.4h19.7V94.5H157
	c-28.1,0-43.8,14.1-43.8,35.6c0,20.2,15.2,35.4,40.3,35.4c14.1,0,26.5-5.6,35.6-12.4h3.5v9.6h24.6V87.2
	C217.2,59.3,198.2,46.9,168.9,46.9z M2,162.7h24.6V8H2V162.7z M105.3,49.7h-30L39.5,96.8v14.8l36.8,51.1h30.5l-43.1-58.6L105.3,49.7
	z M994.8,49.7l-20.2,44.8c-4.9,10.8-9.6,21.3-11,28.4h-3.5c-1.4-7-6.3-17.3-11.2-28.1l-20.2-45h-27.2l47.3,101.5l-23.4,51.1h26.2
	L1022,49.7H994.8z M896.1,49.7h-30l-35.9,47.1v14.8l36.8,51.1h30.5l-43.1-58.6L896.1,49.7z M742.1,95.6L725.7,94
	c-12.9-1.2-19.7-4.7-19.7-12.2c0-8.9,8.7-14.1,21.1-14.1c12.9,0,21.1,6.1,21.8,14.8h23.7c-0.9-22-18-35.6-45.2-35.6
	c-27.4,0-45.9,14.5-45.9,35.9c0,17.8,11.2,29.3,36.8,31.9l16.6,1.6c10.1,0.9,16.9,3,16.9,12.7c0,8.7-6.3,15-23,15
	c-15.3,0-22.9-7-25.5-16.3h-25.6c2.6,21.3,20.4,37.8,51.1,37.8c28.8,0,47.6-15.2,47.6-37.7C776.3,107.8,763.1,97.7,742.1,95.6z
	 M792.8,162.7h24.6V8h-24.6V162.7z M630.5,62.8H627V49.7h-24.6v112.9H627v-59.1c0-20.2,9.3-31.9,27.7-31.9h15.6V46.9h-9
	C644.2,46.9,637,53.3,630.5,62.8z"/>
</svg>
