<?xml version="1.0" encoding="utf-8"?>
<!-- Generator: Adobe Illustrator 23.0.3, SVG Export Plug-In . SVG Version: 6.00 Build 0)  -->
<svg version="1.1"
	 id="svg2" xmlns:cc="http://creativecommons.org/ns#" xmlns:dc="http://purl.org/dc/elements/1.1/" xmlns:inkscape="http://www.inkscape.org/namespaces/inkscape" xmlns:rdf="http://www.w3.org/1999/02/22-rdf-syntax-ns#" xmlns:sodipodi="http://sodipodi.sourceforge.net/DTD/sodipodi-0.dtd" xmlns:svg="http://www.w3.org/2000/svg"
	 xmlns="http://www.w3.org/2000/svg" xmlns:xlink="http://www.w3.org/1999/xlink" x="0px" y="0px" width="500px" height="105px"
	 viewBox="0 0 500 105" style="enable-background:new 0 0 500 105;" xml:space="preserve">
<style type="text/css">
	.st0{fill:#FFFFFF;}
</style>
<sodipodi:namedview  bordercolor="#666666" borderopacity="1.0" fit-margin-bottom="5" fit-margin-left="10" fit-margin-right="10" fit-margin-top="5" id="base" inkscape:current-layer="layer1" inkscape:cx="172.36641" inkscape:cy="217.38017" inkscape:document-units="px" inkscape:pageopacity="0.0" inkscape:pageshadow="2" inkscape:window-height="1017" inkscape:window-maximized="1" inkscape:window-width="1920" inkscape:window-x="1016" inkscape:window-y="-8" inkscape:zoom="1.4" pagecolor="#ffffff" showgrid="false" units="px">
	</sodipodi:namedview>
<g id="layer1" transform="translate(-137.8498,-390.54123)" inkscape:groupmode="layer" inkscape:label="Layer 1">
	<g id="g23944" transform="matrix(1.5421564,0,0,1.5421564,148.7686,-598.51789)">
		<g id="g13605" transform="matrix(0,2.7249422,2.7249422,0,129.07155,656.47605)">
			<path id="path13607" inkscape:connector-curvature="0" class="st0" d="M0,0c0-2.1,1-4.5,3-6l0,0l0,0L0.3-6v-5.1h18.5V-6H8.3
				C6.4-6,4.4-4.6,4.4-1.8c0,2.1,1.5,4.3,3.9,4.3h10.5v5.1H7.3C3.1,7.5,0,4.5,0,0"/>
		</g>
		<g id="g13609" transform="matrix(0,2.7249422,2.7249422,0,247.76404,657.32296)">
			<path id="path13611" inkscape:connector-curvature="0" class="st0" d="M0,0l12.6-4.6L0-9.2V-15l18.5,7.6v5.6L0,5.8V0z"/>
		</g>
		<g id="g13613" transform="matrix(0,2.7249422,2.7249422,0,57.56743,672.48808)">
			<path id="path13615" inkscape:connector-curvature="0" class="st0" d="M0,0c-1.2,0.9-1.8,2.2-1.8,3.9c0,1.8,1,3.2,2.6,3.9L4.4-1
				C2.5-1.3,1.1-0.8,0,0 M7.2,9.7c1.6-2.1,2-3.4,2-5.3c0-1.8-0.5-3.1-1.5-4.1l-5.4,13c-2-0.3-3.8-1-5.2-2.2c-2-1.7-3-4.2-3-7.3
				C-5.9-1.8-1.8-6,3.7-6c5.6,0,9.5,4.2,9.5,10.3c0,3.4-1.6,6.9-3.5,8.6L7.2,9.7z"/>
		</g>
		<g id="g13617" transform="matrix(0,2.7249422,2.7249422,0,39.971116,694.96858)">
			<path id="path13619" inkscape:connector-curvature="0" class="st0" d="M0,0v-11.5h-19.3v-5.1h24L4.7,0H0z"/>
		</g>
		<g id="g13621" transform="matrix(0,2.7249422,2.7249422,0,288.37412,668.31919)">
			<path id="path13623" inkscape:connector-curvature="0" class="st0" d="M0,0c0-2.8,2.1-4.9,5.2-4.9c2.9,0,5.2,2.2,5.2,5
				C10.4,2.9,8.2,5,5.2,5C2.3,5,0,2.8,0,0 M14.7,0c0-5.5-4.1-9.9-9.5-9.9c-5.4,0-9.5,4.4-9.5,10c0,5.5,4.1,9.9,9.5,9.9
				C10.6,10,14.7,5.6,14.7,0"/>
		</g>
		<g id="g13625" transform="matrix(0,2.7249422,2.7249422,0,181.94605,668.31919)">
			<path id="path13627" inkscape:connector-curvature="0" class="st0" d="M0,0c0-2.8,2.1-4.9,5.2-4.9c2.9,0,5.2,2.2,5.2,5
				C10.4,2.9,8.2,5,5.2,5C2.3,5,0,2.8,0,0 M14.7,0c0-5.5-4.1-9.9-9.5-9.9c-5.4,0-9.5,4.4-9.5,10c0,5.5,4.1,9.9,9.5,9.9
				C10.6,10,14.7,5.6,14.7,0"/>
		</g>
	</g>
</g>
</svg>
