<?xml version="1.0" encoding="utf-8"?>
<!-- Generator: Adobe Illustrator 23.0.3, SVG Export Plug-In . SVG Version: 6.00 Build 0)  -->
<svg version="1.1"
	 id="svg2985" xmlns:cc="http://creativecommons.org/ns#" xmlns:dc="http://purl.org/dc/elements/1.1/" xmlns:inkscape="http://www.inkscape.org/namespaces/inkscape" xmlns:rdf="http://www.w3.org/1999/02/22-rdf-syntax-ns#" xmlns:sodipodi="http://sodipodi.sourceforge.net/DTD/sodipodi-0.dtd" xmlns:svg="http://www.w3.org/2000/svg"
	 xmlns="http://www.w3.org/2000/svg" xmlns:xlink="http://www.w3.org/1999/xlink" x="0px" y="0px" width="102.5px" height="29.5px"
	 viewBox="0 0 102.5 29.5" style="enable-background:new 0 0 102.5 29.5;" xml:space="preserve">
<style type="text/css">
	.st0{fill:#FFFFFF;}
	.st1{fill:#FFFFFF;fill-opacity:0.4784;}
</style>
<sodipodi:namedview  bordercolor="#666666" borderopacity="1" gridtolerance="10" guidetolerance="10" id="namedview2987" inkscape:current-layer="g2993" inkscape:cx="80.607125" inkscape:cy="57.000769" inkscape:pageopacity="0" inkscape:pageshadow="2" inkscape:window-height="975" inkscape:window-maximized="1" inkscape:window-width="1280" inkscape:window-x="0" inkscape:window-y="0" inkscape:zoom="5.896842" objecttolerance="10" pagecolor="#ffffff" showgrid="false">
	</sodipodi:namedview>
<g id="g4133" transform="translate(-503,-744.11)">
	<path id="path3025" inkscape:connector-curvature="0" class="st0" d="M503,752.5h4.2v2.2c1.7-1.5,3.1-2.5,5.6-2.5v4.4
		c-0.4-0.2-0.8-0.2-1.3-0.2c-1.8,0-4.3,1.1-4.3,4.5v12.4H503V752.5z"/>
	<path id="path3027" inkscape:connector-curvature="0" class="st1" d="M514.4,746.2c0-1.2,0.9-2.1,2.1-2.1c1.2,0,2.1,0.9,2.1,2.1
		c0,1.2-0.9,2.1-2.1,2.1C515.4,748.3,514.4,747.4,514.4,746.2"/>
	<path id="path3029" inkscape:connector-curvature="0" class="st0" d="M514.4,752.5h4.2v20.9h-4.2V752.5z"/>
	<path id="path3031" inkscape:connector-curvature="0" class="st0" d="M529.4,773.4h-3.7l-5.4-20.9h4.4l2.8,13.3h0.1l2.8-13.3h4.4
		L529.4,773.4z"/>
	<path id="path3033" inkscape:connector-curvature="0" class="st0" d="M539.5,764.6v2.8c0,1.3,0.8,2.1,2.1,2.1c1.6,0,2-1.2,2.1-2.1
		h4.2c0,1.7-0.6,3.3-1.7,4.4c-1.1,1.2-2.6,1.8-4.6,1.8c-2.5,0-4.5-1.2-5.5-3c-0.6-1.1-0.8-2.5-0.8-4.2v-6.9c0-1.7,0.2-3.2,0.8-4.2
		c1-1.8,2.9-3,5.5-3c3.9,0,6.3,2.8,6.3,6.5v5.8L539.5,764.6L539.5,764.6z M539.5,761.3h4.1v-2.4c0-1.6-0.8-2.4-2.1-2.4
		s-2.1,0.8-2.1,2.4V761.3z"/>
	<path id="path3035" inkscape:connector-curvature="0" class="st0" d="M549.5,752.5h4.2v2.2c1.7-1.5,3.1-2.5,5.6-2.5v4.4
		c-0.4-0.2-0.8-0.2-1.3-0.2c-1.8,0-4.3,1.1-4.3,4.5v12.4h-4.2L549.5,752.5L549.5,752.5z"/>
	<path id="path3037" inkscape:connector-curvature="0" class="st0" d="M560.9,744.1h4.2v10.3h0.1c0.9-1.4,2.2-2.1,3.9-2.1
		c2,0,3,0.8,3.7,1.9c0.5,0.9,0.7,2.1,0.7,5.1v7.9c0,2.3-0.2,3.6-0.7,4.5c-0.7,1.4-2,2-3.7,2c-2.1,0-2.9-0.9-4-2.1v1.9h-4.2V744.1
		L560.9,744.1z M569.3,759c0-1.3-0.5-2.5-2.1-2.5c-1.2,0-2.1,0.9-2.1,2.3v8.1c0,1.5,0.8,2.6,2.1,2.6c1.4,0,2.1-1.2,2.1-2.8V759z"/>
	<path id="path3039" inkscape:connector-curvature="0" class="st0" d="M579.4,764.6v2.8c0,1.3,0.8,2.1,2.1,2.1c1.6,0,2-1.2,2.1-2.1
		h4.2c0,1.7-0.6,3.3-1.7,4.4c-1.1,1.2-2.6,1.8-4.6,1.8c-2.5,0-4.5-1.2-5.5-3c-0.6-1.1-0.8-2.5-0.8-4.2v-6.9c0-1.7,0.2-3.2,0.8-4.2
		c1-1.8,2.9-3,5.5-3c3.9,0,6.3,2.8,6.3,6.5v5.8L579.4,764.6L579.4,764.6z M579.4,761.3h4.1v-2.4c0-1.6-0.8-2.4-2.1-2.4
		c-1.3,0-2.1,0.8-2.1,2.4L579.4,761.3L579.4,761.3z"/>
	<path id="path3041" inkscape:connector-curvature="0" class="st0" d="M597.7,771.5c-1.1,1.2-1.9,2.1-4,2.1c-1.7,0-2.9-0.6-3.7-2
		c-0.5-0.9-0.7-2.2-0.7-4.5v-7.9c0-3,0.1-4.2,0.7-5.1c0.7-1.1,1.7-1.9,3.7-1.9c1.6,0,3,0.8,3.9,2.1h0.1v-10.3h4.2v29.3h-4.2V771.5
		L597.7,771.5z M593.6,766.6c0,1.7,0.6,2.8,2.1,2.8c1.3,0,2.1-1.1,2.1-2.6v-8.1c0-1.3-0.9-2.3-2.1-2.3c-1.6,0-2.1,1.2-2.1,2.5V766.6
		z"/>
	<path id="path3043" inkscape:connector-curvature="0" class="st0" d="M603.7,744.3h-0.3v-0.2h0.7v0.2H604v1.4h-0.2V744.3z"/>
	<path id="path3045" inkscape:connector-curvature="0" class="st0" d="M604.5,744.1h0.2l0.3,0.8h0l0.3-0.8h0.2v1.6h-0.2v-1h0
		l-0.2,0.7h-0.1l-0.2-0.7h0v1h-0.2V744.1z"/>
</g>
</svg>
