<?xml version="1.0" encoding="utf-8"?>
<!-- Generator: Adobe Illustrator 23.0.3, SVG Export Plug-In . SVG Version: 6.00 Build 0)  -->
<svg version="1.1" id="svg3562" xmlns:svg="http://www.w3.org/2000/svg"
	 xmlns="http://www.w3.org/2000/svg" xmlns:xlink="http://www.w3.org/1999/xlink" x="0px" y="0px" width="1000px" height="218.7px"
	 viewBox="0 0 1000 218.7" style="enable-background:new 0 0 1000 218.7;" xml:space="preserve">
<style type="text/css">
	.st0{fill:#FFFFFF;}
</style>
<path id="path370" class="st0" d="M684.2,0c-64.6,0-107.6,48.1-107.6,109.3c0,64.7,43.5,109.2,107.6,109.2
	c62.8,0,107.3-46.5,107.3-109.3C791.5,46.5,747,0,684.2,0z M316.2,0.2c-20.5,0-46.5,7.1-65.6,22.8c-22.8,18.8-40.5,48.1-40.5,87.6
	c0,34,11,61.5,30.9,80c19.5,18.2,47,28.1,81.2,28.1c27.5,0,60.7-10.4,75-19.2c5-3.1,6.6-4.4,5.3-9.4l-8.9-25.2
	c-1-4.1-5.6-5.2-9.3-3.3c-6.3,3.1-10.9,5.5-17.3,7.8c-12.3,4.6-25.1,7.7-37.2,7.7c-25.5,0-40.1-6.9-51.2-19.8
	c-7.1-8.1-11.2-18.5-12.5-30.4h141c5.1,0,7.4-3.5,7.4-9.5v-10.2c0-4.9-0.2-12.7-0.6-17.4c-2.6-28.4-13-51.2-30.5-66.7
	C366.6,8.2,344,0.2,316.2,0.2z M546,0.4c-40.7,0-65.6,9.3-81.5,29.9c-12.2,15.8-14.4,33.4-14.4,71.2V205c0.6,7.4,3.5,10.8,10.4,10.8
	h32.2c7.4,0,10.5-3.9,10.5-10.8V99.5c0-23.8,0.3-37,8.7-46c7.2-7.7,16.8-12.8,37.1-12.8c4,0,13.6,1.1,17,1.5
	c1.3,0.2,2.3,0.3,2.8,0.3c3.5,0,4.7-1.3,5.8-5.7l4.8-23.7c0.9-4.9,0.1-8.7-4.7-9.8C567.3,1.4,555.6,0.4,546,0.4z M11.9,3.2
	c-3.5,0-6,2.8-4.6,7.5c9.6,31.4,33.9,68.6,59.2,99.1c-32.2,29-54.7,67.5-65.9,98.5c-1.7,4.6,0.9,7.5,3.5,7.5h38
	c5.5,0,8-1.9,10.5-7.5c10.3-22.7,25.5-48.8,45.5-70c18.3,17.6,34.3,44.5,44.6,70c2.9,7.1,6.2,7.5,10.5,7.5h41.4c7.9,0,8.6-4.3,7.2-8
	c-15.8-41.6-49.4-84.1-68.3-102c17.3-18.5,48.8-54.3,62.5-95.1c2-6-1.7-7.5-4.8-7.5h-34.7c-4.2,0-7,1.5-10.1,7.5
	c-18.7,35.2-35.5,55.9-42.7,63.4C92.1,60.6,77.1,36.2,66.2,10.7c-2.4-5.5-4.9-7.5-9.7-7.5C56.4,3.2,11.9,3.2,11.9,3.2z M809.7,3.2
	c-3.5,0-6,2.8-4.6,7.5c9.6,31.4,33.9,68.6,59.2,99.1c-32.2,29-54.6,67.5-65.9,98.5c-1.7,4.6,0.9,7.5,3.5,7.5h37.9
	c5.5,0,8-1.9,10.5-7.5c10.3-22.7,25.5-48.8,45.5-70c18.3,17.6,34.3,44.5,44.6,70c2.9,7.1,6.2,7.5,10.5,7.5h41.4c7.9,0,8.6-4.3,7.2-8
	c-15.8-41.6-49.4-84.1-68.3-102c17.3-18.5,48.8-54.3,62.5-95.1c2-6-1.7-7.5-4.8-7.5h-34.6c-4.2,0-7,1.5-10.1,7.5
	c-18.7,35.2-35.5,55.9-42.7,63.4C890,60.6,875,36.2,864,10.7c-2.4-5.5-4.9-7.5-9.7-7.5H809.7z M684.2,40c37.6,0,51.8,32.6,51.8,69.2
	c0,36.7-14.2,69.3-51.8,69.3c-37.7,0-52.2-32.6-52.2-69.3C632.1,72.6,646.6,40,684.2,40z M317.9,40.2c28.2,0,45.4,19.1,45.4,47.5V89
	H266c1-7.1,3.1-13.8,6.2-20.1C280.9,51.4,297.4,40.2,317.9,40.2z"/>
</svg>
