<svg width="20" height="16" viewBox="0 0 20 16" fill="none" xmlns="http://www.w3.org/2000/svg">
<path d="M1.54136 8.72579C1.15031 8.72579 0.833313 8.40084 0.833313 7.99998C0.833313 7.59913 1.15031 7.27417 1.54136 7.27417L16.7494 7.27417L11.3496 1.73893C11.0731 1.45548 11.0731 0.996033 11.3496 0.712587C11.6261 0.429141 12.0743 0.429141 12.3508 0.712587L18.9592 7.48681C19.2184 7.75247 19.2347 8.17279 19.0081 8.45786L18.9592 8.51315L12.3508 15.2874L12.2969 15.3375C12.0188 15.5698 11.6088 15.553 11.3496 15.2874C11.0904 15.0217 11.0741 14.6014 11.3007 14.3163L11.3496 14.261L16.7494 8.72579L1.54136 8.72579Z" fill="#FAF5FF"/>
</svg>
