<svg width="57" height="57" viewBox="0 0 57 57" fill="none" xmlns="http://www.w3.org/2000/svg">
<circle cx="28.5" cy="28.5" r="28" stroke="#139DD9" stroke-linejoin="bevel" stroke-dasharray="3 3"/>
<g clip-path="url(#clip0)">
<path d="M40.997 19.1307H30.2446L28.1027 16.5195C28.032 16.4332 27.9278 16.3836 27.8181 16.384H19.1495C17.8178 16.384 16.7383 17.4953 16.7383 18.8661V19.5906H16.004C14.6735 19.5906 13.5945 20.7 13.5928 22.0695V38.1339C13.5928 39.5047 14.6723 40.616 16.004 40.616H37.8514C39.1831 40.616 40.2626 39.5047 40.2626 38.1339V37.4094H40.997C42.3286 37.4094 43.4082 36.2981 43.4082 34.9273V21.6128C43.4082 20.242 42.3286 19.1307 40.997 19.1307ZM39.516 36.6629V38.1496C39.5143 39.097 38.7687 39.8646 37.8484 39.8663H16.004C15.0836 39.8646 14.338 39.097 14.3363 38.1496V22.0853C14.338 21.1379 15.0836 20.3704 16.004 20.3686H24.5226L26.6645 22.9799C26.7352 23.0662 26.8394 23.1158 26.9491 23.1153H37.8728C38.7789 23.1307 39.5078 23.8866 39.516 24.8194V36.6629ZM42.6615 34.9462C42.6599 35.8936 41.9143 36.6611 40.9939 36.6629H40.2595V24.8194C40.2595 23.4486 39.18 22.3373 37.8484 22.3373H27.099L24.9571 19.726C24.8865 19.6397 24.7823 19.5901 24.6726 19.5906H17.4849V18.8661C17.4866 17.9187 18.2322 17.1512 19.1526 17.1495H27.659L29.8009 19.7607C29.8716 19.847 29.9758 19.8966 30.0855 19.8961H41.0092C41.9295 19.8979 42.6752 20.6654 42.6768 21.6128L42.6615 34.9462Z" fill="#139DD9"/>
</g>
<defs>
<clipPath id="clip0">
<rect width="29.8154" height="30.6923" fill="white" transform="translate(13.5928 13.1539)"/>
</clipPath>
</defs>
</svg>
