<svg xmlns="http://www.w3.org/2000/svg" version="1.1" xmlns:xlink="http://www.w3.org/1999/xlink" xmlns:svgjs="http://svgjs.com/svgjs" width="512" height="512" x="0" y="0" viewBox="0 0 60 60" style="enable-background:new 0 0 512 512" xml:space="preserve" class=""><g><path d="M30 7a23 23 0 1 0 23 23A23.025 23.025 0 0 0 30 7Zm21 23c0 .338-.035.666-.051 1h-11a9.829 9.829 0 0 0 0-2h11c.016.334.051.662.051 1Zm-16.382 8.861 7.934 7.939A20.854 20.854 0 0 1 33 50.76V39.539a9.978 9.978 0 0 0 1.618-.678ZM30 38a8 8 0 1 1 8-8 8.009 8.009 0 0 1-8 8Zm-3 1.539V50.76a20.854 20.854 0 0 1-9.552-3.96l7.934-7.934a9.978 9.978 0 0 0 1.618.673ZM9 30c0-.338.035-.666.051-1h11a9.829 9.829 0 0 0 0 2h-11C9.035 30.666 9 30.338 9 30Zm11.461-3H9.24a20.854 20.854 0 0 1 3.965-9.552l7.934 7.934A9.978 9.978 0 0 0 20.461 27Zm0 6a9.978 9.978 0 0 0 .678 1.618l-7.934 7.934A20.854 20.854 0 0 1 9.24 33Zm4.921-11.861-7.934-7.934A20.854 20.854 0 0 1 27 9.24v11.221a9.978 9.978 0 0 0-1.618.678ZM33 20.461V9.24a20.854 20.854 0 0 1 9.552 3.965l-7.934 7.934A9.978 9.978 0 0 0 33 20.461ZM39.539 33H50.76a20.854 20.854 0 0 1-3.96 9.552l-7.934-7.934A9.978 9.978 0 0 0 39.539 33Zm0-6a9.978 9.978 0 0 0-.678-1.618l7.939-7.934A20.854 20.854 0 0 1 50.76 27Zm5.977-11.1-7.777 7.777a10.174 10.174 0 0 0-1.415-1.415l7.776-7.778q.742.675 1.416 1.416ZM31 9.051v11a9.829 9.829 0 0 0-2 0v-11c.334-.016.662-.051 1-.051s.666.035 1 .051Zm-15.1 5.433 7.777 7.777a10.174 10.174 0 0 0-1.415 1.415L14.484 15.9q.675-.742 1.416-1.416ZM14.484 44.1l7.777-7.777a10.174 10.174 0 0 0 1.415 1.415L15.9 45.516q-.742-.675-1.416-1.416ZM29 50.949v-11a9.829 9.829 0 0 0 2 0v11c-.334.016-.662.051-1 .051s-.666-.035-1-.051Zm15.1-5.433-7.777-7.777a10.174 10.174 0 0 0 1.415-1.415l7.778 7.776q-.675.742-1.416 1.416Z" fill="#169fdb" data-original="#000000" class="" opacity="1"></path><path d="m58.076 26.906-1.266-.063c-.084-.713-.2-1.424-.335-2.125l1.184-.451a2.009 2.009 0 0 0 1.221-2.39 31.152 31.152 0 0 0-.742-2.282 2 2 0 0 0-2.391-1.213l-1.215.328c-.3-.652-.628-1.294-.98-1.92l.98-.791a2 2 0 0 0 .425-2.648 31.158 31.158 0 0 0-1.41-1.941 2.009 2.009 0 0 0-2.651-.416l-1.064.694q-.729-.789-1.52-1.52l.694-1.068a2.005 2.005 0 0 0-.415-2.649 29.512 29.512 0 0 0-1.943-1.412A2 2 0 0 0 44 5.467l-.791.981a26.654 26.654 0 0 0-1.92-.98l.329-1.215a2.006 2.006 0 0 0-1.213-2.391 29.745 29.745 0 0 0-2.284-.742 2.01 2.01 0 0 0-2.389 1.221l-.451 1.184c-.7-.139-1.412-.251-2.125-.335l-.063-1.266A2.007 2.007 0 0 0 31.2.023a27.442 27.442 0 0 0-2.4 0 2.007 2.007 0 0 0-1.895 1.9l-.062 1.267c-.713.084-1.424.2-2.125.335l-.451-1.184a2.01 2.01 0 0 0-2.39-1.221q-.574.162-1.148.348c-.383.125-.761.255-1.134.394a2 2 0 0 0-1.213 2.391l.328 1.215c-.652.3-1.294.628-1.92.98l-.79-.98a2 2 0 0 0-2.648-.425 31.158 31.158 0 0 0-1.941 1.41 2.007 2.007 0 0 0-.417 2.647l.694 1.064q-.789.729-1.52 1.52l-1.068-.69a2 2 0 0 0-2.649.415 29.512 29.512 0 0 0-1.412 1.943A2 2 0 0 0 5.467 16l.981.791c-.352.626-.68 1.268-.98 1.92l-1.215-.329a2.013 2.013 0 0 0-2.391 1.213 30.395 30.395 0 0 0-.742 2.284 2.008 2.008 0 0 0 1.221 2.389l1.184.451c-.139.7-.251 1.412-.335 2.125l-1.266.063A2.007 2.007 0 0 0 .023 28.8C.006 29.2 0 29.6 0 30s.006.8.023 1.2a2.007 2.007 0 0 0 1.9 1.895l1.266.063c.084.713.2 1.424.335 2.125l-1.184.451a2.009 2.009 0 0 0-1.221 2.39 31.152 31.152 0 0 0 .742 2.282 2 2 0 0 0 2.391 1.213l1.215-.328c.3.652.628 1.294.98 1.92L5.468 44a2 2 0 0 0-.425 2.648 31.158 31.158 0 0 0 1.41 1.941 2.007 2.007 0 0 0 2.651.416l1.064-.694q.729.789 1.52 1.52l-.694 1.069a2.005 2.005 0 0 0 .415 2.649 28.073 28.073 0 0 0 1.941 1.41 2 2 0 0 0 2.65-.426l.791-.981c.626.352 1.268.68 1.92.98l-.329 1.215a2.006 2.006 0 0 0 1.213 2.391c.374.139.752.269 1.137.4s.764.24 1.147.347a2.01 2.01 0 0 0 2.389-1.221l.451-1.184c.7.139 1.412.251 2.125.335l.063 1.266a2.007 2.007 0 0 0 1.894 1.9c.4.017.8.023 1.2.023s.8-.006 1.2-.023a2.007 2.007 0 0 0 1.895-1.9l.063-1.266c.713-.084 1.424-.2 2.125-.335l.451 1.184a2.011 2.011 0 0 0 2.39 1.221 31.152 31.152 0 0 0 2.282-.742 2 2 0 0 0 1.213-2.391l-.328-1.215c.652-.3 1.294-.628 1.92-.98l.791.98a2 2 0 0 0 2.646.425 28.647 28.647 0 0 0 1.943-1.41 2.007 2.007 0 0 0 .416-2.651l-.694-1.064q.789-.729 1.52-1.52l1.064.694a2.007 2.007 0 0 0 2.649-.415 29.512 29.512 0 0 0 1.412-1.943A2 2 0 0 0 54.533 44l-.981-.791c.352-.626.68-1.268.98-1.92l1.215.329a2.007 2.007 0 0 0 2.391-1.213c.139-.374.269-.752.4-1.137s.24-.764.347-1.147a2.008 2.008 0 0 0-1.221-2.389l-1.184-.451c.139-.7.251-1.412.335-2.125l1.266-.063a2.007 2.007 0 0 0 1.9-1.894c.017-.4.023-.8.023-1.2s-.006-.8-.023-1.2a2.007 2.007 0 0 0-1.905-1.893Zm-.1 4.19-2.126.106a1 1 0 0 0-.947.915 25.069 25.069 0 0 1-.561 3.568 1 1 0 0 0 .617 1.161l1.994.738a28.523 28.523 0 0 1-.685 2.104l-2.043-.552a.993.993 0 0 0-1.182.576A25 25 0 0 1 51.4 42.93a1 1 0 0 0 .228 1.3l1.664 1.315c-.2.31-.42.614-.638.916s-.443.6-.665.872l-1.783-1.163a1 1 0 0 0-1.3.184 25.4 25.4 0 0 1-2.555 2.546 1 1 0 0 0-.184 1.3l1.18 1.775q-.435.345-.887.671c-.3.22-.607.434-.9.626l-1.331-1.65a1 1 0 0 0-1.3-.228 25 25 0 0 1-3.218 1.645 1 1 0 0 0-.576 1.182l.569 2.039c-.347.13-.7.25-1.05.364s-.713.225-1.052.317l-.757-1.986a1 1 0 0 0-1.161-.617 25.069 25.069 0 0 1-3.568.561 1 1 0 0 0-.915.947l-.088 2.128c-.74.031-1.507.033-2.21 0l-.103-2.123a1 1 0 0 0-.915-.947 25.069 25.069 0 0 1-3.568-.561.969.969 0 0 0-.226-.027 1 1 0 0 0-.935.644l-.738 1.994a28.523 28.523 0 0 1-2.104-.685l.552-2.043a1 1 0 0 0-.576-1.182 25 25 0 0 1-3.22-1.644 1 1 0 0 0-1.3.228l-1.317 1.662c-.309-.2-.612-.418-.914-.636s-.6-.443-.872-.665l1.163-1.783a1 1 0 0 0-.184-1.3 25.4 25.4 0 0 1-2.546-2.555 1 1 0 0 0-1.3-.184l-1.78 1.18q-.345-.435-.671-.887c-.22-.3-.435-.608-.626-.9l1.65-1.331a1 1 0 0 0 .228-1.3 25 25 0 0 1-1.645-3.218.992.992 0 0 0-1.182-.576l-2.039.569c-.13-.347-.25-.7-.364-1.05s-.225-.713-.317-1.052l1.986-.757a1 1 0 0 0 .617-1.161 25.069 25.069 0 0 1-.557-3.567 1 1 0 0 0-.947-.915l-2.128-.088C2.006 30.744 2 30.374 2 30s.006-.744.023-1.1l2.126-.1a1 1 0 0 0 .947-.915 25.069 25.069 0 0 1 .561-3.568 1 1 0 0 0-.617-1.161l-1.994-.738a28.523 28.523 0 0 1 .685-2.104l2.043.552a.994.994 0 0 0 1.182-.576A25 25 0 0 1 8.6 17.07a1 1 0 0 0-.228-1.3l-1.663-1.312c.205-.31.42-.614.638-.916s.443-.6.665-.872L9.8 13.833a1 1 0 0 0 1.3-.184 25.4 25.4 0 0 1 2.549-2.549 1 1 0 0 0 .184-1.3l-1.18-1.78q.435-.345.887-.671c.3-.22.608-.435.9-.626l1.331 1.65a1 1 0 0 0 1.3.228 25 25 0 0 1 3.218-1.645 1 1 0 0 0 .576-1.182L20.3 3.735a26.145 26.145 0 0 1 2.102-.681l.757 1.986a1 1 0 0 0 1.161.617 25.069 25.069 0 0 1 3.563-.557 1 1 0 0 0 .915-.947l.088-2.128c.74-.031 1.507-.033 2.21 0l.104 2.124a1 1 0 0 0 .915.947 25.069 25.069 0 0 1 3.568.561 1 1 0 0 0 1.161-.617l.738-1.994a26.616 26.616 0 0 1 2.104.685l-.552 2.043a1 1 0 0 0 .576 1.182A25 25 0 0 1 42.93 8.6a1 1 0 0 0 1.3-.228l1.315-1.664c.31.205.614.42.916.638s.6.443.872.665L46.167 9.8a1 1 0 0 0 .184 1.3 25.4 25.4 0 0 1 2.549 2.549 1 1 0 0 0 1.3.184l1.775-1.18q.345.435.671.887c.22.3.435.608.626.9l-1.65 1.331a1 1 0 0 0-.228 1.3 25 25 0 0 1 1.645 3.218.994.994 0 0 0 1.182.576l2.039-.569c.13.347.25.7.364 1.05s.225.713.317 1.052l-1.986.757a1 1 0 0 0-.617 1.161 25.069 25.069 0 0 1 .561 3.568 1 1 0 0 0 .947.915l2.128.11C58 29.27 58 29.633 58 30s-.006.744-.023 1.1Z" fill="#169fdb" data-original="#000000" class="" opacity="1"></path><path d="M30 24a6 6 0 1 0 6 6 6.006 6.006 0 0 0-6-6Zm0 10a4 4 0 1 1 4-4 4 4 0 0 1-4 4Z" fill="#169fdb" data-original="#000000" class="" opacity="1"></path></g></svg>