<?xml version="1.0" encoding="utf-8"?>
<!-- Generator: Adobe Illustrator 23.0.3, SVG Export Plug-In . SVG Version: 6.00 Build 0)  -->
<svg version="1.1" id="Layer_1" xmlns="http://www.w3.org/2000/svg" xmlns:xlink="http://www.w3.org/1999/xlink" x="0px" y="0px"
	 width="60px" height="60px" viewBox="0 0 60 60" enable-background="new 0 0 60 60" xml:space="preserve">
<g>
	<path fill="#FFFFFF" d="M55.81,57.817H44.665V23.081H55.81V57.817z M42.318,57.817H31.173V38.801h11.145V57.817z M28.828,57.817
		H17.683v-28.38h11.145V57.817z M15.336,57.817H4.191V41.779h11.145V57.817z M56.983,20.733H43.49c-0.644,0-1.173,0.516-1.173,1.173
		v14.548H31.173v-8.189c0-0.646-0.529-1.173-1.173-1.173H16.508c-0.646,0-1.173,0.527-1.173,1.173v11.169H3.016
		c-0.644,0-1.173,0.527-1.173,1.173V58.99c0,0.646,0.529,1.173,1.173,1.173h53.966c0.646,0,1.173-0.527,1.173-1.173V21.906
		C58.155,21.249,57.628,20.733,56.983,20.733"/>
	<path fill="#FFFFFF" d="M9.493,20.146c1.009,0,1.76,0.833,1.76,1.76c0,0.961-0.786,1.76-1.76,1.76c-0.927,0-1.76-0.774-1.76-1.76
		C7.733,20.909,8.566,20.146,9.493,20.146 M23.253,5.423c0.975,0,1.76,0.799,1.76,1.76c0,0.95-0.75,1.736-1.724,1.76h-0.036
		c-0.023,0-0.045,0-0.07-0.011c-0.903-0.025-1.63-0.74-1.677-1.643c-0.011-0.036-0.011-0.07-0.011-0.106
		C21.495,6.222,22.281,5.423,23.253,5.423 M34.998,19.514c0.023-0.891,0.727-1.632,1.63-1.69c0.599-0.198,1.877,0.516,1.877,1.749
		c0,0.973-0.786,1.758-1.76,1.758c-0.973,0-1.76-0.786-1.76-1.758C34.985,19.548,34.985,19.536,34.998,19.514 M50.237,3.348
		c0.973,0,1.76,0.786,1.76,1.758c0,0.975-0.788,1.76-1.76,1.76h-0.036c-0.903-0.023-1.643-0.716-1.713-1.607
		C48.313,4.532,49.029,3.348,50.237,3.348 M9.493,26.012c2.264,0,4.106-1.841,4.106-4.106c0-0.88-0.27-1.69-0.75-2.359l8.493-8.727
		c0.574,0.304,1.22,0.468,1.913,0.468c0.75,0,1.443-0.2,2.04-0.54l7.768,7.016c-0.27,0.54-0.423,1.161-0.423,1.807
		c0,2.263,1.841,4.106,4.106,4.106c2.264,0,4.106-1.843,4.106-4.106c0-0.763-0.21-1.49-0.585-2.1l8.13-8.693
		c0.551,0.281,1.173,0.434,1.841,0.434c2.264,0,4.106-1.843,4.106-4.108S52.502,1,50.237,1c-2.264,0-4.106,1.843-4.106,4.106
		c0,0.763,0.198,1.467,0.563,2.066l-8.153,8.716c-0.54-0.27-1.15-0.421-1.796-0.421c-0.763,0-1.479,0.21-2.089,0.574l-7.741-6.992
		c0.281-0.551,0.446-1.197,0.446-1.866c0-2.264-1.843-4.106-4.108-4.106c-2.263,0-4.106,1.841-4.106,4.106
		c0,0.716,0.189,1.407,0.517,1.994l-8.67,8.905c-0.468-0.176-0.975-0.281-1.501-0.281c-2.264,0-4.106,1.841-4.106,4.106
		C5.387,24.369,7.382,26.012,9.493,26.012"/>
</g>
</svg>
