<?xml version="1.0" encoding="utf-8"?>
<!-- Generator: Adobe Illustrator 23.0.3, SVG Export Plug-In . SVG Version: 6.00 Build 0)  -->
<svg version="1.1" id="Layer_1" xmlns="http://www.w3.org/2000/svg" xmlns:xlink="http://www.w3.org/1999/xlink" x="0px" y="0px"
	 width="60px" height="60px" viewBox="0 0 60 60" enable-background="new 0 0 60 60" xml:space="preserve">
<g id="XMLID_13_">
	<g>
		<path fill="#169FDB" d="M30,34.752c2.624,0,4.755-2.128,4.755-4.752c0-2.624-2.131-4.753-4.755-4.753
			c-2.624,0-4.753,2.128-4.753,4.753C25.247,32.624,27.376,34.752,30,34.752z M34.815,54.004c0,2.685-2.172,4.863-4.859,4.863
			c-2.685,0-4.864-2.179-4.864-4.863c0-2.152,1.403-3.977,3.34-4.614V37.434c-1.234-0.25-2.364-0.806-3.303-1.579l-9.268,9.265
			c0.847,1.332,0.688,3.113-0.476,4.273c-1.346,1.349-3.531,1.349-4.877,0c-1.346-1.346-1.346-3.528,0-4.874
			c1.167-1.164,2.947-1.318,4.279-0.479l9.272-9.268c-0.753-0.928-1.296-2.037-1.542-3.248H10.565
			c-0.637,1.936-2.458,3.339-4.617,3.339c-2.681,0-4.859-2.179-4.859-4.863c0-2.685,2.179-4.864,4.859-4.864
			c2.159,0,3.98,1.403,4.617,3.339h11.953c0.253-1.227,0.803-2.348,1.568-3.285l-9.281-9.282c-1.333,0.84-3.117,0.685-4.277-0.479
			c-1.346-1.346-1.346-3.528,0-4.873s3.531-1.346,4.877,0c1.161,1.16,1.315,2.941,0.476,4.273l9.285,9.288
			c0.932-0.759,2.044-1.305,3.266-1.551V10.61c-1.937-0.637-3.34-2.462-3.34-4.614c0-2.685,2.18-4.863,4.864-4.863
			c2.688,0,4.859,2.179,4.859,4.863c0,2.152-1.396,3.976-3.339,4.614v11.957c1.215,0.246,2.32,0.783,3.252,1.535l9.285-9.288
			c-0.844-1.332-0.685-3.113,0.476-4.273c1.353-1.346,3.531-1.346,4.877,0c1.349,1.346,1.349,3.528,0,4.874
			c-1.16,1.164-2.944,1.319-4.277,0.479l-9.278,9.282c0.776,0.938,1.326,2.065,1.579,3.302h12.047
			c0.641-1.936,2.462-3.339,4.61-3.339c2.692,0,4.864,2.179,4.864,4.864c0,2.685-2.172,4.863-4.864,4.863
			c-2.148,0-3.97-1.403-4.61-3.339H37.39c-0.246,1.221-0.789,2.334-1.549,3.265l9.266,9.269c1.335-0.84,3.119-0.681,4.279,0.479
			c1.346,1.346,1.346,3.528,0,4.873c-1.346,1.349-3.531,1.349-4.877,0c-1.16-1.16-1.321-2.941-0.475-4.273l-9.268-9.268
			c-0.938,0.769-2.055,1.315-3.289,1.565V49.39C33.42,50.027,34.815,51.852,34.815,54.004z"/>
	</g>
</g>
</svg>
