<?xml version="1.0" encoding="utf-8"?>
<!-- Generator: Adobe Illustrator 23.0.3, SVG Export Plug-In . SVG Version: 6.00 Build 0)  -->
<svg version="1.1" id="Layer_1" xmlns="http://www.w3.org/2000/svg" xmlns:xlink="http://www.w3.org/1999/xlink" x="0px" y="0px"
	 width="60px" height="60px" viewBox="0 0 60 60" enable-background="new 0 0 60 60" xml:space="preserve">
<path fill="#169FDB" d="M49.896,39.749h-0.54h-2.124V26.177c0-1.647-1.34-2.987-2.987-2.987h-6.589c-1.647,0-2.987,1.34-2.987,2.987
	v13.572h-2.124h-7.213v-2.615h2.124c0.84,0,1.58-0.473,1.929-1.234c0.351-0.764,0.226-1.635-0.326-2.277l-8.407-9.691
	c-0.801-0.933-2.408-0.927-3.198-0.005l-8.414,9.7c-0.55,0.637-0.674,1.508-0.323,2.272c0.349,0.761,1.087,1.234,1.927,1.234h2.124
	v2.615h-2.676c-4.241,0-7.692-3.449-7.692-7.692c0-4.248,3.451-7.704,7.692-7.704c0.374,0,0.787,0.035,1.229,0.105
	c0.654,0.102,1.264-0.339,1.371-0.99c0.852-5.157,6.402-7.846,10.892-5.668c0.668,0.322,1.456-0.029,1.671-0.726
	c1.52-4.928,6.191-8.37,11.357-8.37c6.543,0,11.867,5.325,11.867,11.868c0,0.781-0.078,1.56-0.241,2.385
	c-0.075,0.387,0.076,0.781,0.351,1.063c0.276,0.282,0.703,0.403,1.093,0.339c0.037-0.006,0.073-0.008,0.11-0.008
	c4.305-0.023,7.807,3.423,7.807,7.705C57.6,36.3,54.144,39.749,49.896,39.749 M40.949,51.134l-7.783-8.985h2.702
	c0.662,0,1.2-0.537,1.2-1.2V26.177c0-0.329,0.258-0.587,0.587-0.587h6.589c0.319,0,0.587,0.268,0.587,0.587v13.861
	c0,1.163,0.947,2.11,2.112,2.11h1.79L40.949,51.134z M22.931,50.705c0,0.319-0.268,0.589-0.587,0.589h-6.588
	c-0.329,0-0.589-0.258-0.589-0.589V35.934c0-0.662-0.537-1.2-1.2-1.2h-2.711l7.792-8.983l7.795,8.983h-1.799
	c-1.165,0-2.114,0.948-2.114,2.112V50.705z M50.808,21.995c0.049-0.477,0.072-0.948,0.072-1.421c0-7.867-6.4-14.268-14.267-14.268
	c-5.871,0-11.028,3.501-13.213,8.838c-5.371-1.769-11.26,1.26-12.827,6.824C4.878,21.661,0,26.277,0,32.057
	c0,5.564,4.527,10.092,10.092,10.092h2.676v8.556c0,1.648,1.34,2.989,2.989,2.989h6.588c1.648,0,2.987-1.34,2.987-2.989v-8.556h5.11
	c0.053,0.4,0.221,0.781,0.5,1.098l8.408,9.704c0.4,0.467,0.984,0.733,1.6,0.733c0.618,0,1.202-0.267,1.598-0.729l8.405-9.703
	c0.314-0.357,0.474-0.79,0.506-1.237C56.288,41.262,60,37.09,60,32.057C60,26.793,55.953,22.457,50.808,21.995"/>
</svg>
