<?xml version="1.0" encoding="utf-8"?>
<!-- Generator: Adobe Illustrator 23.0.3, SVG Export Plug-In . SVG Version: 6.00 Build 0)  -->
<svg version="1.1" id="Layer_1" xmlns="http://www.w3.org/2000/svg" xmlns:xlink="http://www.w3.org/1999/xlink" x="0px" y="0px"
	 width="40px" height="40px" viewBox="0 0 40 40" enable-background="new 0 0 40 40" xml:space="preserve">
<path fill="#FFFFFF" d="M20,1c5.25,0,9.995,2.125,13.435,5.565C36.875,10.006,39,14.75,39,20c0,5.25-2.125,9.994-5.565,13.435
	C29.995,36.875,25.25,39,20,39c-5.25,0-9.994-2.125-13.435-5.565C3.125,29.994,1,25.25,1,20c0-5.25,2.125-9.994,5.565-13.435
	C10.006,3.125,14.75,1,20,1L20,1z M32.393,7.617C29.216,4.451,24.839,2.483,20,2.483c-4.839,0-9.216,1.968-12.383,5.134
	C4.45,10.784,2.483,15.161,2.483,20c0,4.84,1.967,9.216,5.134,12.393c3.167,3.167,7.543,5.124,12.383,5.124
	c4.839,0,9.216-1.957,12.393-5.124C35.56,29.216,37.517,24.84,37.517,20C37.517,15.161,35.56,10.784,32.393,7.617L32.393,7.617z"/>
<path fill-rule="evenodd" clip-rule="evenodd" fill="#FFFFFF" d="M21.528,15.908v-1.639c0-0.786,0.52-0.974,0.897-0.974
	c0.365,0,2.292,0,2.292,0v-3.5h-3.156c-3.51,0-4.297,2.591-4.297,4.275v1.838h-2.038v2.469v1.617h2.06c0,4.64,0,10.211,0,10.211
	h4.087c0,0,0-5.648,0-10.211h3.023l0.133-1.606l0.244-2.481H21.528z"/>
</svg>
