<?xml version="1.0" encoding="utf-8"?>
<!-- Generator: Adobe Illustrator 23.0.3, SVG Export Plug-In . SVG Version: 6.00 Build 0)  -->
<svg version="1.1" id="Layer_1" xmlns="http://www.w3.org/2000/svg" xmlns:xlink="http://www.w3.org/1999/xlink" x="0px" y="0px"
	 width="60px" height="60px" viewBox="0 0 60 60" enable-background="new 0 0 60 60" xml:space="preserve">
<path fill="#169FDB" d="M20.393,20.156c-2.561,2.502-4.16,5.987-4.16,9.842s1.598,7.34,4.16,9.842
	c-8.446-2.593-15.051-7.789-17.433-9.842C5.342,27.943,11.947,22.747,20.393,20.156 M30,18.635c6.265,0,11.364,5.097,11.364,11.364
	c0,6.265-5.099,11.364-11.364,11.364s-11.364-5.099-11.364-11.364C18.636,23.731,23.735,18.635,30,18.635 M57.041,29.999
	c-2.382,2.054-8.987,7.25-17.433,9.842c2.561-2.502,4.16-5.987,4.16-9.842s-1.598-7.34-4.16-9.842
	C48.054,22.747,54.659,27.943,57.041,29.999 M6.424,11.348c-1.657,0-3.005-1.348-3.005-3.003c0-1.657,1.348-3.005,3.005-3.005
	c1.652,0,2.996,1.342,3.001,2.994c0,0.002,0,0.003,0,0.007c0,0.002,0.002,0.005,0.002,0.009C9.423,10.004,8.077,11.348,6.424,11.348
	 M53.582,48.652c1.657,0,3.003,1.348,3.003,3.003c0,1.655-1.346,3.003-3.003,3.003c-1.657,0-3.003-1.348-3.003-3.003
	C50.579,50,51.925,48.652,53.582,48.652 M30,43.766c1.214,0,2.407-0.077,3.581-0.205l8.13,8.905c0.228,0.249,0.55,0.391,0.887,0.391
	h5.723c0.55,2.403,2.695,4.205,5.262,4.205c2.982,0,5.406-2.424,5.406-5.406c0-2.981-2.424-5.406-5.406-5.406
	c-2.567,0-4.713,1.802-5.262,4.205h-5.193l-6.688-7.326c13.08-2.53,22.768-11.813,23.234-12.268
	c0.233-0.226,0.365-0.537,0.365-0.861c0-0.325-0.132-0.635-0.365-0.861C59.133,28.611,46.228,16.231,30,16.231
	c-1.21,0-2.401,0.077-3.572,0.203l-8.14-8.905c-0.228-0.249-0.548-0.39-0.887-0.39h-5.718c-0.551-2.401-2.695-4.203-5.26-4.203
	c-2.982,0-5.408,2.426-5.408,5.408c0,2.981,2.426,5.406,5.408,5.406c2.568,0,4.714-1.803,5.262-4.208h5.187l6.695,7.324
	C10.484,19.396,0.793,28.682,0.327,29.138c-0.233,0.226-0.365,0.536-0.365,0.861c0,0.323,0.132,0.635,0.365,0.861
	C0.868,31.386,13.772,43.766,30,43.766"/>
<path fill="#169FDB" d="M30,25.266c2.61,0,4.732,2.123,4.732,4.732c0,2.61-2.122,4.733-4.732,4.733c-2.61,0-4.732-2.123-4.732-4.733
	C25.269,27.389,27.39,25.266,30,25.266 M30,37.134c3.934,0,7.135-3.201,7.135-7.137c0-3.934-3.201-7.135-7.135-7.135
	s-7.135,3.201-7.135,7.135C22.865,33.933,26.067,37.134,30,37.134"/>
</svg>
