<?xml version="1.0" encoding="utf-8"?>
<!-- Generator: Adobe Illustrator 23.0.3, SVG Export Plug-In . SVG Version: 6.00 Build 0)  -->
<svg version="1.1" id="Layer_1" xmlns="http://www.w3.org/2000/svg" xmlns:xlink="http://www.w3.org/1999/xlink" x="0px" y="0px"
	 width="60px" height="60px" viewBox="0 0 60 60" enable-background="new 0 0 60 60" xml:space="preserve">
<g>
	<path fill="#169FDB" d="M41.407,15.612c-1.184,0-2.148-0.97-2.148-2.161c0-1.103,0.897-2.148,2.148-2.148
		c1.175,0,2.161,0.939,2.161,2.148C43.569,14.642,42.599,15.612,41.407,15.612 M30.138,7.156c0-1.19,0.964-2.16,2.15-2.16
		c1.192,0,2.161,0.97,2.161,2.16C34.449,9.96,30.138,9.971,30.138,7.156 M23.893,18.651c-1.19,0-2.156-0.966-2.156-2.156
		c0-1.188,0.966-2.154,2.156-2.154c1.188,0,2.156,0.966,2.156,2.154C26.049,17.686,25.081,18.651,23.893,18.651 M50.249,2.704
		c1.188,0,2.156,0.968,2.156,2.156s-0.968,2.156-2.156,2.156c-1.188,0-2.156-0.968-2.156-2.156S49.061,2.704,50.249,2.704
		 M50.249,8.796c2.171,0,3.937-1.766,3.937-3.937c0-2.169-1.766-3.937-3.937-3.937s-3.937,1.768-3.937,3.937
		c0,0.745,0.221,1.435,0.582,2.03l-3.365,3.258c-0.631-0.405-1.359-0.627-2.122-0.627c-0.996,0-1.933,0.378-2.639,1.027
		l-2.825-1.945c0.182-0.456,0.287-0.943,0.287-1.447c0-2.173-1.77-3.941-3.943-3.941c-2.169,0-3.931,1.768-3.931,3.941
		c0,0.808,0.259,1.589,0.717,2.243l-3.289,3.667c-0.565-0.314-1.203-0.506-1.892-0.506c-2.171,0-3.937,1.766-3.937,3.935
		c0,2.171,1.766,3.937,3.937,3.937s3.937-1.766,3.937-3.937c0-0.835-0.266-1.608-0.713-2.247l3.281-3.659
		c0.574,0.317,1.219,0.498,1.89,0.498c0.989,0,1.926-0.376,2.641-1.023l2.834,1.952c-0.181,0.454-0.285,0.935-0.285,1.433
		c0,2.175,1.762,3.943,3.929,3.943c2.175,0,3.943-1.768,3.943-3.943c0-0.726-0.207-1.418-0.576-2.028l3.359-3.253
		C48.745,8.563,49.469,8.796,50.249,8.796"/>
	<path fill="#169FDB" d="M56.273,47.141c-3.675,2.561-14.041,7.026-19.894,9.461c-3.561,1.483-7.711,1.321-11.151-0.437
		L8.847,47.803V35.135c0.12,0,10.716,0.006,10.041,0.006c1.819,0,3.553,0.825,4.699,2.298c1.688,2.175,4.243,3.218,6.574,3.218
		h9.178c1.061,0.051,2.03,0.766,2.243,1.814c0.243,1.401-0.876,2.563-2.15,2.563H23.884c-0.656,0-1.186,0.53-1.186,1.186
		c0,0.656,0.53,1.188,1.186,1.188h15.548c1.382,0,13.463-3.992,14.773-4.424c0.964-0.319,2.142-0.049,2.707,0.821
		C57.631,44.898,57.345,46.394,56.273,47.141 M6.467,49.193H2.695V33.294h3.772V49.193z M28.665,28.806v9.267
		c-3.448-0.876-2.899-3.35-6.924-4.808v-4.46H28.665z M30.446,22.761h6.924v15.508h-6.924V22.761z M46.086,26.253V43.1
		c-0.76,0.241-1.5,0.471-2.18,0.681c0.572-2.699-1.511-5.498-4.473-5.498h-0.093c-0.038-0.002-0.078-0.013-0.116-0.013h-0.072
		V26.253H46.086z M47.867,18.331h6.924v22.16c-0.454,0.019-0.907,0.095-1.335,0.238c-1.211,0.399-3.329,1.097-5.589,1.812V18.331z
		 M58.868,42.444l0.002-0.002c-0.555-0.806-1.361-1.384-2.298-1.698V17.442c0-0.492-0.397-0.892-0.89-0.892h-8.705
		c-0.492,0-0.892,0.399-0.892,0.892v7.03h-6.935v-2.601c0-0.492-0.397-0.892-0.89-0.892h-8.705c-0.492,0-0.892,0.399-0.892,0.892
		v5.154h-7.813c-0.492,0-0.892,0.397-0.892,0.89v4.918c-0.118-0.013-1.046-0.072-1.068-0.072H8.828
		c-0.074-1.027-0.922-1.84-1.966-1.84H2.305c-1.093,0-1.985,0.89-1.985,1.983v16.681c0,1.095,0.892,1.985,1.985,1.985h4.557
		c0.808,0,1.504-0.49,1.81-1.188l15.474,7.901c4.057,2.072,8.849,2.304,13.146,0.513c5.941-2.471,16.482-7.017,20.339-9.705
		C59.801,47.579,60.301,44.554,58.868,42.444"/>
</g>
</svg>
