<?xml version="1.0" encoding="utf-8"?>
<!-- Generator: Adobe Illustrator 23.0.3, SVG Export Plug-In . SVG Version: 6.00 Build 0)  -->
<svg version="1.1" id="Layer_1" xmlns="http://www.w3.org/2000/svg" xmlns:xlink="http://www.w3.org/1999/xlink" x="0px" y="0px"
	 width="60px" height="60px" viewBox="0 0 60 60" enable-background="new 0 0 60 60" xml:space="preserve">
<path fill="#169FDB" d="M40.358,47.383c-0.29,0.473-0.218,1.081,0.174,1.473l7.668,7.684c0.091,0.089,0.085,0.199,0.079,0.243
	c-0.012,0.07-0.042,0.12-0.104,0.151c-1.929,1.025-4.434,0.742-6.087-0.902l-6.033-6.058c-2.261-2.225-0.649-4.723,0.34-6.293
	c0.299-0.473,0.23-1.093-0.166-1.489l-6.089-6.089l6.033-6.031l6.089,6.089c0.404,0.406,1.037,0.465,1.514,0.149
	c0.529-0.353,1.068-0.676,1.62-0.967c1.497-0.832,3.462-0.56,4.654,0.637l6.04,6.042c1.601,1.583,1.956,4.067,0.921,6.069
	c-0.064,0.118-0.183,0.129-0.23,0.129c-0.073,0-0.137-0.025-0.185-0.075l-7.657-7.68c-0.39-0.392-1-0.465-1.473-0.18
	c-1.46,0.888-2.798,1.937-3.982,3.119C42.301,44.589,41.249,45.927,40.358,47.383 M14.934,47.905
	c-0.131,0.133-0.232,0.295-0.292,0.475l-1.321,4.017l-7.34,4.793l-3.242-3.242l4.795-7.342l4.019-1.332
	c0.178-0.06,0.338-0.158,0.471-0.292c6.454-6.454,15.91-15.91,22.23-22.23c0.12,0.12,3.109,3.109,2.92,2.92L14.934,47.905z
	 M3.635,9.598c-1.645-1.643-1.647-4.36,0-6.008c0.027-0.027,0.054-0.058,0.081-0.093c1.607-1.535,4.38-1.512,5.95,0.07
	l20.189,20.187l-6.031,6.033L3.635,9.598z M48.446,2.896c0.742-0.74,2.024-0.734,2.769,0.012l5.809,5.809
	c0.77,0.772,0.77,1.983,0,2.756L41.7,26.804c-2.171-2.172-6.498-6.504-8.57-8.58L48.446,2.896z M47.922,42.846l6.975,6.998
	c0.504,0.502,1.172,0.778,1.885,0.778c0.973,0,1.865-0.525,2.346-1.4c1.603-3.095,0.902-6.676-1.344-8.9l-6.035-6.035
	c-2.055-2.07-5.164-2.35-7.496-1.054c-0.324,0.172-0.649,0.355-0.975,0.552l-5.413-5.415l1.002-1.004l1.22,1.222
	c0.431,0.419,1,0.649,1.605,0.649c0.612,0,1.191-0.234,1.641-0.672l15.385-15.398c1.695-1.695,1.695-4.453,0-6.148l-5.807-5.811
	c-1.653-1.649-4.517-1.657-6.164-0.01L31.377,16.583c-0.44,0.427-0.691,1.025-0.693,1.641c0,0.624,0.245,1.205,0.678,1.626
	l1.199,1.199l-1.008,1.01L11.365,1.872C8.78-0.727,4.545-0.725,1.95,1.87C1.919,1.901,1.888,1.938,1.857,1.975
	c-2.499,2.588-2.479,6.761,0.081,9.321l20.189,20.189l-11.6,11.6l-4.146,1.373c-0.257,0.087-0.479,0.257-0.626,0.483l-5.558,8.51
	c-0.311,0.475-0.247,1.103,0.154,1.504l4.621,4.621c0.234,0.232,0.541,0.351,0.85,0.351c0.226,0,0.454-0.064,0.657-0.195
	l8.508-5.558c0.228-0.149,0.398-0.371,0.483-0.63l1.363-4.144l11.604-11.606l5.42,5.42c-2.103,3.486-1.5,6.486,0.504,8.46
	l6.029,6.054c2.437,2.422,6.089,2.821,8.9,1.329c0.738-0.384,1.232-1.079,1.359-1.912c0.129-0.842-0.151-1.705-0.751-2.304
	l-6.985-6.996c0.674-0.991,1.435-1.912,2.267-2.744C46.013,44.273,46.932,43.516,47.922,42.846"/>
<path fill="#169FDB" d="M6.78,4.186c1.392,0,2.522,1.13,2.522,2.522c0,1.394-1.13,2.524-2.522,2.524s-2.522-1.13-2.522-2.524
	C4.258,5.316,5.388,4.186,6.78,4.186"/>
</svg>
