<?xml version="1.0" encoding="utf-8"?>
<!-- Generator: Adobe Illustrator 23.0.3, SVG Export Plug-In . SVG Version: 6.00 Build 0)  -->
<svg version="1.1" id="Layer_1" xmlns="http://www.w3.org/2000/svg" xmlns:xlink="http://www.w3.org/1999/xlink" x="0px" y="0px"
	 width="40px" height="40px" viewBox="0 0 40 40" enable-background="new 0 0 40 40" xml:space="preserve">
<g>
	<path fill="#FFFFFF" d="M20,1c5.25,0,10.005,2.125,13.435,5.565C36.875,10.006,39,14.75,39,20c0,5.25-2.125,9.994-5.566,13.435
		C30.005,36.875,25.25,39,20,39c-5.239,0-9.994-2.125-13.435-5.565C3.125,29.994,1,25.25,1,20c0-5.25,2.125-9.994,5.565-13.435
		C10.006,3.125,14.761,1,20,1L20,1z M32.393,7.617C29.216,4.451,24.84,2.483,20,2.483c-4.829,0-9.216,1.968-12.382,5.134
		C4.451,10.784,2.483,15.161,2.483,20c0,4.84,1.967,9.216,5.134,12.393c3.166,3.167,7.554,5.124,12.382,5.124
		c4.84,0,9.216-1.957,12.393-5.124C35.56,29.216,37.517,24.84,37.517,20C37.517,15.161,35.56,10.784,32.393,7.617L32.393,7.617z"/>
	<path fill-rule="evenodd" clip-rule="evenodd" fill="#FFFFFF" d="M15.139,20c0-2.683,2.178-4.871,4.861-4.871
		c2.693,0,4.871,2.188,4.871,4.871c0,2.693-2.178,4.871-4.871,4.871C17.317,24.871,15.139,22.693,15.139,20L15.139,20z
		 M25.029,10.479H14.982c-2.472,0-4.503,2.02-4.503,4.503v10.047c0,2.472,2.031,4.502,4.503,4.502h10.047
		c2.483,0,4.503-2.031,4.503-4.502V14.982C29.532,12.499,27.512,10.479,25.029,10.479L25.029,10.479z M14.982,11.605h10.047
		c1.862,0,3.377,1.515,3.377,3.377v10.047c0,1.862-1.515,3.377-3.377,3.377H14.982c-1.862,0-3.377-1.515-3.377-3.377V14.982
		C11.605,13.119,13.119,11.605,14.982,11.605L14.982,11.605z M26.028,13.025c-0.547,0-0.989,0.442-0.989,0.989
		c0,0.547,0.442,0.989,0.989,0.989c0.547,0,0.989-0.442,0.989-0.989C27.017,13.467,26.575,13.025,26.028,13.025L26.028,13.025z
		 M26.144,20c0-3.388-2.746-6.144-6.144-6.144c-3.388,0-6.144,2.756-6.144,6.144c0,3.398,2.756,6.144,6.144,6.144
		C23.398,26.144,26.144,23.398,26.144,20L26.144,20z"/>
</g>
</svg>
