<?xml version="1.0" encoding="utf-8"?>
<!-- Generator: Adobe Illustrator 23.0.3, SVG Export Plug-In . SVG Version: 6.00 Build 0)  -->
<svg version="1.1" id="Layer_1" xmlns="http://www.w3.org/2000/svg" xmlns:xlink="http://www.w3.org/1999/xlink" x="0px" y="0px"
	 width="60px" height="60px" viewBox="0 0 60 60" enable-background="new 0 0 60 60" xml:space="preserve">
<path fill="#169FDB" d="M56.918,56.85c-0.911,0.909-2.549,0.851-3.392-0.129L47.811,50.1c0.145-0.143,2.522-2.52,2.371-2.369
	l6.615,5.709C57.812,54.326,57.88,55.886,56.918,56.85 M43.214,48.155c1.966-1.255,3.73-3.004,5.014-5.014l1.577,1.572
	c-0.189,0.189-5.138,5.138-5.018,5.016L43.214,48.155z M24.571,44.224c-5.451-5.449-5.443-14.27,0.012-19.725
	c5.452-5.451,14.259-5.451,19.713,0c8.835,8.837,2.464,23.814-9.86,23.814C30.71,48.314,27.208,46.862,24.571,44.224 M2.409,38.231
	v-5.284c3.124,2.672,9.022,4.474,15.99,4.616c0.529,2.678,1.724,5.167,3.497,7.279c-0.871,0.056-1.74,0.087-2.603,0.087
	C9.343,44.929,2.409,41.4,2.409,38.231 M19.288,2.323c9.953,0,16.888,3.527,16.888,6.694s-6.935,6.696-16.888,6.696
	S2.4,12.184,2.4,9.017S9.335,2.323,19.288,2.323 M18.13,35.16c-9.318-0.265-15.72-3.624-15.72-6.659v-5.283
	c4.124,3.522,11.571,4.657,17.043,4.63C18.427,30.203,18.006,32.58,18.13,35.16 M22.885,22.803c-0.803,0.805-1.508,1.68-2.118,2.608
	c-7.933,0.309-18.186-2.269-18.358-6.568v-5.366c3.261,2.784,9.524,4.636,16.879,4.636c7.364,0,13.633-1.855,16.89-4.645v4.643
	C31.123,17.578,26.339,19.351,22.885,22.803 M51.854,46.003c0.606-0.869,0.529-2.083-0.249-2.885L49.4,40.923
	c2.701-6.144,1.39-13.32-3.408-18.12c-2.085-2.083-4.638-3.518-7.414-4.242V9.023c0-0.008-0.004-0.015-0.004-0.023
	c-0.021-5.091-8.484-9.076-19.286-9.076C8.472-0.077,0,3.918,0,9.017c0,0.056,0.015,0.108,0.017,0.162
	c0,0.014-0.008,0.023-0.008,0.037v29.015c0,5.186,8.291,9.098,19.284,9.098c1.599,0,3.219-0.104,4.827-0.284
	c2.91,2.375,6.512,3.668,10.314,3.668c2.253,0,4.491-0.498,6.547-1.396l2.218,2.218c0.421,0.421,0.983,0.653,1.581,0.653
	c0.475,0,0.925-0.149,1.303-0.415l5.624,6.514c1.761,2.047,4.945,2.218,6.906,0.259c1.973-1.975,1.79-5.138-0.245-6.918
	L51.854,46.003z"/>
<path fill="#169FDB" d="M34.435,42.439c-4.456,0-8.082-3.626-8.082-8.082s3.626-8.082,8.082-8.082s8.082,3.626,8.082,8.082
	S38.891,42.439,34.435,42.439 M44.917,34.357c0-5.781-4.701-10.482-10.482-10.482s-10.482,4.701-10.482,10.482
	s4.701,10.482,10.482,10.482S44.917,40.138,44.917,34.357"/>
<path fill="#169FDB" d="M39.999,30.921c-0.432-0.502-1.191-0.558-1.693-0.124l-6.406,5.535l-1.272-1.274
	c-0.469-0.467-1.228-0.467-1.697,0c-0.469,0.469-0.469,1.23,0,1.697l2.062,2.062c0.234,0.234,0.541,0.351,0.848,0.351
	c0.28,0,0.56-0.095,0.786-0.292l7.25-6.263C40.377,32.18,40.431,31.423,39.999,30.921"/>
</svg>
