<?xml version="1.0" encoding="utf-8"?>
<!-- Generator: Adobe Illustrator 23.0.3, SVG Export Plug-In . SVG Version: 6.00 Build 0)  -->
<svg version="1.1" id="Layer_1" xmlns="http://www.w3.org/2000/svg" xmlns:xlink="http://www.w3.org/1999/xlink" x="0px" y="0px"
	 width="60px" height="60px" viewBox="0 0 60 60" enable-background="new 0 0 60 60" xml:space="preserve">
<g>
	<defs>
		<rect id="SVGID_1_" y="2.206" width="60" height="55.587"/>
	</defs>
	<use xlink:href="#SVGID_1_"  overflow="visible" fill="#FFFFFF"/>
	<clipPath id="SVGID_2_">
		<use xlink:href="#SVGID_1_"  overflow="visible"/>
	</clipPath>
	<path clip-path="url(#SVGID_2_)" fill="#FFFFFF" d="M55.648,50.785c-1.338-1.887-3.225-3.261-5.386-3.98
		c1.272-1.016,2.105-2.561,2.105-4.314c0-3.059-2.488-5.545-5.547-5.545c-3.057,0-5.545,2.486-5.545,5.545
		c0,1.749,0.832,3.295,2.102,4.311c-1.342,0.449-2.597,1.147-3.687,2.087c-0.644,0.563-1.209,1.211-1.696,1.9
		c-2.889-4.114-2.565-9.847,0.955-13.591c4.134-4.406,10.965-4.515,15.263-0.474C58.152,40.417,58.682,46.472,55.648,50.785
		 M46.82,48.036c0.011,0,0.02-0.004,0.03-0.004c3.12,0.011,5.942,1.597,7.588,4.191c-4.187,4.2-10.978,4.259-15.235,0.009
		c0.454-0.726,1.009-1.408,1.667-1.984c1.647-1.422,3.747-2.207,5.919-2.216C46.801,48.032,46.81,48.036,46.82,48.036 M43.077,42.49
		c0-2.066,1.68-3.746,3.744-3.746c2.066,0,3.746,1.68,3.746,3.746c0,2.055-1.664,3.726-3.717,3.742
		c-0.009,0-0.016-0.002-0.025-0.002c-0.011,0-0.023,0.002-0.034,0.002C44.74,46.215,43.077,44.544,43.077,42.49 M23.998,52.164
		c3.697-5.271,3.05-12.67-1.762-17.19c-2.742-2.579-6.447-3.885-10.278-3.518c0.757-4.1,2.896-7.822,6.067-10.557
		c2.125,4.653,6.767,7.704,11.99,7.704c4.987,0,9.797-2.885,11.985-7.697c3.17,2.733,5.314,6.45,6.08,10.545
		c-4.173-0.397-8.173,1.216-10.881,4.103c-4.307,4.585-4.697,11.605-1.172,16.612C32.163,53.502,27.874,53.504,23.998,52.164
		 M13.203,48.036c0.009,0,0.018-0.004,0.029-0.004c3.08,0.011,5.955,1.633,7.586,4.195c-2.036,2.039-4.722,3.166-7.618,3.166
		c-2.742,0-5.465-1.018-7.611-3.157c0.463-0.741,1.014-1.415,1.68-1.991c1.631-1.42,3.728-2.204,5.903-2.213
		C13.181,48.032,13.192,48.036,13.203,48.036 M9.457,42.49c0-2.066,1.68-3.746,3.746-3.746c2.064,0,3.744,1.68,3.744,3.746
		c0,2.055-1.664,3.726-3.715,3.742c-0.009,0-0.018-0.002-0.027-0.002c-0.011,0-0.021,0.002-0.034,0.002
		C11.121,46.215,9.457,44.544,9.457,42.49 M5.33,37.198c4.134-4.406,10.965-4.517,15.262-0.476
		c3.928,3.692,4.465,9.727,1.431,14.069c-1.331-1.864-3.236-3.247-5.393-3.975c1.279-1.016,2.118-2.567,2.118-4.325
		c0-3.059-2.488-5.545-5.545-5.545c-3.059,0-5.545,2.486-5.545,5.545c0,1.749,0.83,3.293,2.1,4.311
		c-1.34,0.447-2.592,1.145-3.671,2.084c-0.653,0.565-1.218,1.207-1.71,1.905C1.488,46.676,1.81,40.943,5.33,37.198 M30.012,18.845
		c0.011,0,0.02-0.002,0.03-0.002c3.125,0.011,5.946,1.599,7.591,4.195c-2.036,2.036-4.722,3.164-7.618,3.164
		c-2.722,0-5.449-1.003-7.615-3.159c1.708-2.726,4.602-4.191,7.574-4.202C29.988,18.841,29.999,18.845,30.012,18.845 M26.268,13.3
		c0-2.064,1.68-3.744,3.744-3.744c2.066,0,3.746,1.68,3.746,3.744c0,2.055-1.665,3.726-3.715,3.742
		c-0.013,0-0.023-0.002-0.034-0.002c-0.011,0-0.021,0.002-0.034,0.002C27.928,17.02,26.268,15.352,26.268,13.3 M22.145,8.009
		c4.132-4.395,10.967-4.517,15.262-0.478c3.917,3.69,4.456,9.722,1.433,14.065c-1.338-1.887-3.225-3.263-5.388-3.98
		c1.274-1.018,2.105-2.563,2.105-4.316c0-3.057-2.486-5.545-5.545-5.545c-3.057,0-5.545,2.488-5.545,5.545
		c0,1.749,0.83,3.293,2.1,4.311c-2.193,0.733-4.026,2.086-5.377,3.989C18.292,17.487,18.614,11.754,22.145,8.009 M50.579,31.939
		c-0.744-5.305-3.52-10.123-7.756-13.448c1.054-4.461-0.227-9.369-3.771-12.707c-5.347-5.028-13.707-4.685-18.655,0.58
		c-3.134,3.323-4.195,7.931-3.198,12.121c-4.236,3.329-7.008,8.15-7.742,13.464c-2.225,0.66-4.268,1.891-5.876,3.606
		c-7.879,8.384-1.901,22.24,9.618,22.24c3.384,0,6.649-1.333,9.132-3.701c2.438,0.98,5.012,1.501,7.677,1.501
		c2.667,0,5.236-0.519,7.667-1.492c5.885,5.677,15.412,4.23,18.932-0.667c4.803-5.289,4.465-13.571-0.751-18.46
		C54.337,33.547,52.532,32.518,50.579,31.939"/>
</g>
</svg>
