<?xml version="1.0" encoding="utf-8"?>
<!-- Generator: Adobe Illustrator 23.0.3, SVG Export Plug-In . SVG Version: 6.00 Build 0)  -->
<svg version="1.1" id="Layer_1" xmlns="http://www.w3.org/2000/svg" xmlns:xlink="http://www.w3.org/1999/xlink" x="0px" y="0px"
	 width="60px" height="60px" viewBox="0 0 60 60" enable-background="new 0 0 60 60" xml:space="preserve">
<path fill="#169FDB" d="M50.328,34.806h-4.62v-0.216c0-1.409-1.152-2.556-2.568-2.556v-4.896c0-7.154-5.774-13.139-13.153-13.139
	c-7.238,0-13.127,5.895-13.127,13.139v4.896h-0.012c-1.409,0-2.556,1.147-2.556,2.556v0.216H9.66c-4.002,0-7.26-3.262-7.26-7.272
	c0-4.545,4.132-7.906,8.378-7.181c0.686,0.116,1.317-0.368,1.394-1.05c0.395-3.506,3.763-5.759,6.943-5.068
	c0.635,0.134,1.263-0.255,1.419-0.887c1.07-4.351,4.964-7.391,9.465-7.391c4.496,0,8.384,3.039,9.455,7.391
	c0.334,1.341,1.726,0.769,2.558,0.769c2.976,0,5.471,2.229,5.805,5.187c0.036,0.327,0.206,0.625,0.468,0.822
	c0.262,0.199,0.596,0.281,0.919,0.228c0.369-0.061,0.747-0.092,1.125-0.092c4.009,0,7.272,3.262,7.272,7.272
	S54.338,34.806,50.328,34.806 M24.181,32.033v-4.896c0-3.209,2.604-5.82,5.806-5.82c3.255,0,5.832,2.638,5.832,5.82v4.896H24.181z
	 M40.741,32.033h-2.52v-4.896c0-4.493-3.633-8.219-8.233-8.219c-4.525,0-8.207,3.686-8.207,8.219v4.896h-2.52v-4.896
	c0-5.922,4.813-10.74,10.728-10.74c6.014,0,10.753,4.872,10.753,10.74V32.033z M43.309,53.885c0,0.09-0.071,0.157-0.168,0.157
	H16.848c-0.094,0-0.157-0.063-0.157-0.157V34.589c0-0.077,0.058-0.155,0.157-0.155H43.14c0.092,0,0.168,0.071,0.168,0.155V53.885z
	 M49.985,17.868c-0.973-3.734-4.472-6.388-8.505-6.133c-1.666-4.865-6.242-8.177-11.48-8.177c-5.243,0-9.824,3.312-11.49,8.177
	c-3.951-0.255-7.517,2.336-8.505,6.133c-5.457-0.197-10.005,4.2-10.005,9.666c0,5.333,4.334,9.671,9.661,9.671h4.632v16.68
	c0,1.409,1.147,2.556,2.556,2.556H43.14c1.416,0,2.568-1.147,2.568-2.556v-16.68h4.62c5.333,0,9.671-4.338,9.671-9.671
	C59.999,22.087,55.449,17.679,49.985,17.868"/>
<path fill="#169FDB" d="M38.702,37.809H28.625c-0.33,0-0.599,0.269-0.599,0.601c0,0.33,0.269,0.599,0.599,0.599h10.078
	c0.332,0,0.601-0.269,0.601-0.599C39.303,38.078,39.034,37.809,38.702,37.809"/>
<path fill="#169FDB" d="M38.702,43.641H28.625c-0.33,0-0.599,0.269-0.599,0.601c0,0.332,0.269,0.599,0.599,0.599h10.078
	c0.332,0,0.601-0.267,0.601-0.599C39.303,43.91,39.034,43.641,38.702,43.641"/>
<path fill="#169FDB" d="M38.702,49.473H28.625c-0.33,0-0.599,0.269-0.599,0.601c0,0.33,0.269,0.599,0.599,0.599h10.078
	c0.332,0,0.601-0.269,0.601-0.599C39.303,49.741,39.034,49.473,38.702,49.473"/>
<path fill="#169FDB" d="M22.527,51.002c-0.512,0-0.929-0.417-0.929-0.929c0-0.512,0.417-0.929,0.929-0.929s0.929,0.417,0.929,0.929
	C23.456,50.585,23.039,51.002,22.527,51.002 M22.527,47.944c-1.174,0-2.129,0.955-2.129,2.129c0,1.174,0.955,2.129,2.129,2.129
	s2.129-0.955,2.129-2.129C24.656,48.899,23.701,47.944,22.527,47.944"/>
<path fill="#169FDB" d="M22.527,45.171c-0.512,0-0.929-0.417-0.929-0.929c0-0.512,0.417-0.929,0.929-0.929s0.929,0.417,0.929,0.929
	C23.456,44.754,23.039,45.171,22.527,45.171 M22.527,42.112c-1.174,0-2.129,0.955-2.129,2.129c0,1.174,0.955,2.129,2.129,2.129
	s2.129-0.955,2.129-2.129C24.656,43.067,23.701,42.112,22.527,42.112"/>
<path fill="#169FDB" d="M22.527,39.339c-0.512,0-0.929-0.417-0.929-0.929c0-0.512,0.417-0.929,0.929-0.929s0.929,0.417,0.929,0.929
	C23.456,38.922,23.039,39.339,22.527,39.339 M22.527,36.281c-1.174,0-2.129,0.955-2.129,2.129c0,1.174,0.955,2.129,2.129,2.129
	s2.129-0.955,2.129-2.129C24.656,37.235,23.701,36.281,22.527,36.281"/>
</svg>
