<?xml version="1.0" encoding="utf-8"?>
<!-- Generator: Adobe Illustrator 23.0.3, SVG Export Plug-In . SVG Version: 6.00 Build 0)  -->
<svg version="1.1" id="Layer_1" xmlns="http://www.w3.org/2000/svg" xmlns:xlink="http://www.w3.org/1999/xlink" x="0px" y="0px"
	 width="60px" height="60px" viewBox="0 0 60 60" enable-background="new 0 0 60 60" xml:space="preserve">
<path fill="#FFFFFF" d="M-945.23,33.077c-0.248-0.661-0.477-1.321-0.685-1.98h14.93v20.664c-3.107-2.359-5.832-5.014-8.118-7.909
	C-941.708,40.557-943.77,36.93-945.23,33.077 M-947.748,19.996c4.472-0.178,8.38-1.437,11.632-3.744
	c2.323-1.648,3.98-3.595,5.13-5.348v17.81h-15.605C-947.593,24.755-947.746,21.569-947.748,19.996 M-947.347,6.394
	c-0.882,0-1.601-0.719-1.601-1.601c0-0.884,0.719-1.601,1.601-1.601s1.601,0.717,1.601,1.601
	C-945.746,5.675-946.465,6.394-947.347,6.394 M-928.601,31.098h14.916c-0.124,0.388-0.253,0.781-0.392,1.175
	c-1.496,4.23-3.667,8.157-6.453,11.674c-2.28,2.871-4.988,5.496-8.071,7.825V31.098z M-928.601,10.893
	c1.214,1.845,2.986,3.907,5.511,5.613c3.171,2.15,6.939,3.327,11.265,3.503c-0.002,1.559-0.161,4.71-1.182,8.705h-15.594V10.893z
	 M-911.076,2.584c0.882,0,1.601,0.719,1.601,1.601c0,0.882-0.719,1.601-1.601,1.601c-0.417,0-0.792-0.171-1.077-0.433
	c-0.015-0.019-0.021-0.041-0.039-0.06c-0.015-0.015-0.038-0.021-0.054-0.036c-0.261-0.285-0.43-0.657-0.43-1.071
	C-912.677,3.303-911.958,2.584-911.076,2.584 M-909.002,54.214c0.882,0,1.601,0.719,1.601,1.603c0,0.882-0.719,1.601-1.601,1.601
	c-0.884,0-1.601-0.719-1.601-1.601C-910.603,54.933-909.886,54.214-909.002,54.214 M-950.997,57.389
	c-0.884,0-1.601-0.719-1.601-1.603c0-0.882,0.717-1.601,1.601-1.601c0.882,0,1.601,0.719,1.601,1.601
	C-949.396,56.671-950.115,57.389-950.997,57.389 M-950.997,51.803c-2.197,0-3.986,1.788-3.986,3.984
	c0,2.197,1.788,3.986,3.986,3.986s3.984-1.788,3.984-3.986c0-0.726-0.208-1.398-0.55-1.985l7.457-7.457
	c2.717,3.239,5.935,6.183,9.636,8.733c0.156,0.107,0.43,0.21,0.677,0.21c0.244,0,0.514-0.101,0.672-0.208
	c3.667-2.511,6.864-5.417,9.576-8.624l7.119,7.352c-0.349,0.593-0.563,1.274-0.563,2.01c0,2.196,1.788,3.984,3.986,3.984
	s3.984-1.788,3.984-3.984c0-2.197-1.786-3.986-3.984-3.986c-0.593,0-1.152,0.139-1.657,0.372l-7.384-7.624
	c2.642-3.507,4.749-7.363,6.215-11.514c2.777-7.928,2.338-14.106,2.353-14.23c0-0.685-0.58-1.229-1.274-1.186
	c-3.691-0.002-6.966-0.796-9.758-2.353l7.594-7.596c0.552,0.289,1.171,0.469,1.837,0.469c2.197,0,3.986-1.786,3.986-3.984
	c0-2.197-1.788-3.986-3.986-3.986s-3.984,1.788-3.984,3.986c0,0.662,0.176,1.276,0.464,1.826l-7.945,7.947
	c-4.661-3.563-6.087-8.516-6.102-8.566c-0.004-0.021-0.019-0.034-0.024-0.053c-0.131-0.4-0.537-0.801-1.118-0.807
	c-0.589-0.006-1.03,0.405-1.156,0.858c-0.015,0.051-1.366,4.779-5.757,8.311l-7.11-7.112c0.276-0.542,0.448-1.147,0.448-1.796
	c0-2.197-1.788-3.986-3.986-3.986s-3.986,1.788-3.986,3.986s1.788,3.984,3.986,3.984c0.679,0,1.308-0.186,1.867-0.486l6.789,6.789
	c-2.772,1.633-6.05,2.49-9.808,2.554c-0.118,0.008-0.235,0.009-0.347,0.009c-0.646,0-1.197,0.456-1.25,1.094
	c-0.308,3.77,0.61,9.784,2.635,15.183c1.424,3.757,3.408,7.292,5.858,10.55l-7.716,7.716
	C-949.829,51.948-950.394,51.803-950.997,51.803"/>
<g>
	<path fill="#FFFFFF" d="M-824.19,57.817h-11.144V23.081h11.144V57.817z M-837.682,57.817h-11.145V38.801h11.145V57.817z
		 M-851.172,57.817h-11.145v-28.38h11.145V57.817z M-864.664,57.817h-11.144V41.779h11.144V57.817z M-823.017,20.733h-13.492
		c-0.644,0-1.173,0.516-1.173,1.173v14.548h-11.145v-8.189c0-0.646-0.529-1.173-1.173-1.173h-13.492
		c-0.646,0-1.173,0.527-1.173,1.173v11.169h-12.319c-0.644,0-1.173,0.527-1.173,1.173V58.99c0,0.646,0.529,1.173,1.173,1.173h53.966
		c0.646,0,1.173-0.527,1.173-1.173V21.906C-821.845,21.249-822.372,20.733-823.017,20.733"/>
	<path fill="#FFFFFF" d="M-870.507,20.146c1.008,0,1.76,0.833,1.76,1.76c0,0.961-0.786,1.76-1.76,1.76
		c-0.927,0-1.76-0.774-1.76-1.76C-872.267,20.909-871.434,20.146-870.507,20.146 M-856.747,5.423c0.974,0,1.76,0.799,1.76,1.76
		c0,0.95-0.75,1.736-1.724,1.76h-0.036c-0.023,0-0.045,0-0.07-0.011c-0.903-0.025-1.63-0.74-1.677-1.643
		c-0.011-0.036-0.011-0.07-0.011-0.106C-858.505,6.222-857.719,5.423-856.747,5.423 M-845.002,19.514
		c0.023-0.891,0.727-1.632,1.63-1.69c0.599-0.198,1.877,0.516,1.877,1.749c0,0.973-0.786,1.758-1.76,1.758
		c-0.973,0-1.76-0.786-1.76-1.758C-845.015,19.548-845.015,19.536-845.002,19.514 M-829.763,3.348c0.973,0,1.76,0.786,1.76,1.758
		c0,0.975-0.788,1.76-1.76,1.76h-0.036c-0.903-0.023-1.643-0.716-1.713-1.607C-831.687,4.532-830.971,3.348-829.763,3.348
		 M-870.507,26.012c2.264,0,4.106-1.841,4.106-4.106c0-0.88-0.27-1.69-0.75-2.359l8.493-8.727c0.574,0.304,1.22,0.468,1.913,0.468
		c0.75,0,1.443-0.2,2.04-0.54l7.768,7.016c-0.27,0.54-0.423,1.161-0.423,1.807c0,2.263,1.841,4.106,4.106,4.106
		s4.106-1.843,4.106-4.106c0-0.763-0.21-1.49-0.585-2.1l8.13-8.693c0.552,0.281,1.173,0.434,1.841,0.434
		c2.264,0,4.106-1.843,4.106-4.108S-827.498,1-829.763,1s-4.106,1.843-4.106,4.106c0,0.763,0.198,1.467,0.563,2.066l-8.153,8.716
		c-0.54-0.27-1.15-0.421-1.796-0.421c-0.763,0-1.479,0.21-2.089,0.574l-7.741-6.992c0.281-0.551,0.446-1.197,0.446-1.866
		c0-2.264-1.843-4.106-4.108-4.106c-2.263,0-4.106,1.841-4.106,4.106c0,0.716,0.189,1.407,0.517,1.994l-8.67,8.905
		c-0.468-0.176-0.974-0.281-1.501-0.281c-2.264,0-4.106,1.841-4.106,4.106C-874.613,24.369-872.618,26.012-870.507,26.012"/>
</g>
<path fill="#FFFFFF" d="M-789.387,31.167c0.483,2.48,2.505,4.392,5.026,4.752c0.299,2.915,0.808,5.653,1.504,8.152
	c-2.488,0.931-4.873,2.139-7.107,3.591c-3.925-4.436-6.4-10.183-6.669-16.495H-789.387z M-775.751,44.539
	c0.73,2.536,3.162,4.334,5.75,4.334c2.521,0,4.998-1.721,5.752-4.334c1.43,0.239,2.841,0.58,4.229,0.999
	c-2.273,6.695-5.937,11.139-9.981,11.139c-4.002,0-7.697-4.386-9.983-11.131C-778.594,45.122-777.181,44.78-775.751,44.539
	 M-764.516,15.224c0,0.106,0.002,0.211,0.007,0.315c-1.409,0.23-2.865,0.343-4.334,0.392V3.481c2.574,0.554,5.067,2.926,7.049,6.734
	C-763.422,11.275-764.516,13.199-764.516,15.224 M-771.16,15.931c-3.022-0.101-5.978-0.592-8.826-1.465
	c2.103-6.196,5.366-10.23,8.826-10.976V15.931z M-768.842,28.849V18.27c1.669-0.052,3.313-0.215,4.912-0.487
	c0.993,2.111,3.173,3.464,5.513,3.417c0.026,0,0.05,0.006,0.075,0.004c0.412,2.445,0.636,5.008,0.689,7.645H-768.842z
	 M-773.665,42.889c0-2.019,1.642-3.664,3.664-3.664c2.021,0,3.664,1.644,3.664,3.664c0,2.034-1.665,3.666-3.664,3.666
	C-772.034,46.555-773.665,44.875-773.665,42.889 M-764.085,42.232c-0.289-2.6-2.225-4.709-4.757-5.207v-5.859h11.198
	c-0.091,4.384-0.702,8.529-1.698,12.158C-760.897,42.854-762.481,42.49-764.085,42.232 M-754.868,15.224
	c0,1.698-1.152,3.162-2.818,3.561c-2.212,0.571-4.511-1.165-4.511-3.561c0-2.102,1.721-3.664,3.664-3.664
	C-756.459,11.56-754.868,13.259-754.868,15.224 M-776.776,4.225c-2.159,2.18-4.02,5.411-5.407,9.505
	c-2.139-0.806-4.201-1.818-6.15-3.05C-784.956,7.478-780.987,5.334-776.776,4.225 M-782.056,24.222
	c0.276-2.661,0.752-5.181,1.4-7.536c3.063,0.939,6.243,1.463,9.496,1.564v10.599h-6.495
	C-778.109,26.562-779.953,24.746-782.056,24.222 M-783.499,26.351c0.047,0.007,0.093,0.013,0.14,0.015
	c1.954,0.08,3.494,1.682,3.501,3.654c0,1.967-1.538,3.572-3.606,3.662l-0.058,0.002c-2.019,0-3.664-1.644-3.664-3.671
	C-787.176,27.996-785.533,26.355-783.499,26.351 M-782.054,35.818c2.279-0.566,3.987-2.499,4.405-4.651h6.489v5.859
	c-2.533,0.498-4.468,2.607-4.757,5.207c-1.601,0.259-3.186,0.623-4.741,1.096C-781.289,41.019-781.772,38.501-782.054,35.818
	 M-788.331,49.351c1.945-1.228,4.013-2.255,6.157-3.068c1.379,4.041,3.259,7.309,5.459,9.522
	C-781.199,54.649-785.115,52.402-788.331,49.351 M-763.148,55.751c2.178-2.217,4.022-5.47,5.371-9.457
	c2.135,0.81,4.192,1.831,6.122,3.05C-754.775,52.305-758.566,54.526-763.148,55.751 M-750.021,47.654
	c-2.221-1.445-4.597-2.647-7.077-3.576c1.056-3.83,1.685-8.21,1.775-12.912h11.964C-743.629,37.475-746.1,43.218-750.021,47.654
	 M-743.36,28.849h-11.977c-0.054-2.815-0.308-5.551-0.756-8.167c2.128-0.944,3.542-3.053,3.542-5.457
	c0-0.439-0.054-0.866-0.146-1.278c0.9-0.483,1.788-1.012,2.663-1.581C-746.108,16.797-743.633,22.54-743.36,28.849 M-751.662,10.679
	c-0.642,0.407-1.293,0.791-1.947,1.148c-1.267-1.85-3.636-2.938-6.027-2.48c-1.051-2.064-2.238-3.768-3.529-5.086
	C-758.639,5.466-754.82,7.684-751.662,10.679 M-789.962,12.367c2.243,1.46,4.627,2.66,7.109,3.582
	c-0.711,2.553-1.215,5.291-1.508,8.173c-2.503,0.358-4.52,2.256-5.021,4.728h-7.251C-796.36,22.542-793.885,16.801-789.962,12.367
	 M-798.98,30.049C-798.962,45.814-786.164,59-769.996,59c16.112,0,28.983-13.179,28.983-28.985
	c0-26.124-32.038-38.914-50.006-19.959c-4.843,5.099-7.949,12.169-7.962,19.909c0,0.015-0.008,0.028-0.008,0.043
	C-798.988,30.023-798.98,30.034-798.98,30.049"/>
<path fill="#FFFFFF" d="M-670.104,39.749h-0.54h-2.124V26.177c0-1.647-1.34-2.987-2.987-2.987h-6.589
	c-1.647,0-2.987,1.34-2.987,2.987v13.572h-2.124h-7.213v-2.615h2.124c0.84,0,1.58-0.473,1.929-1.234
	c0.351-0.764,0.226-1.635-0.326-2.277l-8.407-9.691c-0.801-0.933-2.408-0.927-3.198-0.005l-8.414,9.7
	c-0.55,0.637-0.674,1.508-0.323,2.272c0.349,0.761,1.087,1.234,1.927,1.234h2.124v2.615h-2.676c-4.241,0-7.692-3.449-7.692-7.692
	c0-4.248,3.451-7.704,7.692-7.704c0.374,0,0.787,0.035,1.229,0.105c0.654,0.102,1.264-0.339,1.371-0.99
	c0.852-5.157,6.401-7.846,10.892-5.668c0.668,0.322,1.456-0.029,1.671-0.726c1.52-4.928,6.191-8.37,11.357-8.37
	c6.543,0,11.867,5.325,11.867,11.868c0,0.781-0.078,1.56-0.241,2.385c-0.075,0.387,0.076,0.781,0.351,1.063
	c0.276,0.282,0.703,0.403,1.093,0.339c0.037-0.006,0.073-0.008,0.11-0.008c4.305-0.023,7.807,3.423,7.807,7.705
	C-662.4,36.3-665.856,39.749-670.104,39.749 M-679.051,51.134l-7.783-8.985h2.702c0.662,0,1.2-0.537,1.2-1.2V26.177
	c0-0.329,0.258-0.587,0.587-0.587h6.589c0.319,0,0.587,0.268,0.587,0.587v13.861c0,1.163,0.947,2.11,2.112,2.11h1.79
	L-679.051,51.134z M-697.069,50.705c0,0.319-0.268,0.589-0.587,0.589h-6.588c-0.329,0-0.589-0.258-0.589-0.589V35.934
	c0-0.662-0.537-1.2-1.2-1.2h-2.711l7.792-8.983l7.795,8.983h-1.799c-1.165,0-2.113,0.948-2.113,2.112V50.705z M-669.192,21.995
	c0.049-0.477,0.072-0.948,0.072-1.421c0-7.867-6.4-14.268-14.267-14.268c-5.871,0-11.028,3.501-13.213,8.838
	c-5.371-1.769-11.26,1.26-12.827,6.824C-715.122,21.661-720,26.277-720,32.057c0,5.564,4.527,10.092,10.092,10.092h2.676v8.556
	c0,1.648,1.34,2.989,2.989,2.989h6.588c1.648,0,2.987-1.34,2.987-2.989v-8.556h5.11c0.053,0.4,0.221,0.781,0.5,1.098l8.408,9.704
	c0.4,0.467,0.984,0.733,1.6,0.733c0.618,0,1.202-0.267,1.598-0.729l8.405-9.703c0.314-0.357,0.474-0.79,0.506-1.237
	c4.829-0.755,8.541-4.927,8.541-9.959C-660,26.793-664.047,22.457-669.192,21.995"/>
<path fill="#FFFFFF" d="M-599.642,47.383c-0.29,0.473-0.218,1.081,0.174,1.473l7.668,7.684c0.091,0.089,0.085,0.199,0.079,0.243
	c-0.012,0.07-0.042,0.12-0.104,0.151c-1.929,1.025-4.434,0.742-6.087-0.902l-6.033-6.058c-2.261-2.225-0.649-4.723,0.34-6.293
	c0.299-0.473,0.23-1.093-0.166-1.489l-6.089-6.089l6.033-6.031l6.089,6.089c0.404,0.406,1.037,0.465,1.514,0.149
	c0.529-0.353,1.068-0.676,1.62-0.967c1.497-0.832,3.462-0.56,4.654,0.637l6.04,6.042c1.601,1.583,1.956,4.067,0.921,6.069
	c-0.064,0.118-0.183,0.129-0.23,0.129c-0.073,0-0.137-0.025-0.185-0.075l-7.657-7.68c-0.39-0.392-1-0.465-1.473-0.18
	c-1.46,0.888-2.798,1.937-3.982,3.119C-597.699,44.589-598.751,45.927-599.642,47.383 M-625.066,47.905
	c-0.131,0.133-0.232,0.295-0.292,0.475l-1.321,4.017l-7.34,4.793l-3.242-3.242l4.795-7.342l4.019-1.332
	c0.178-0.06,0.338-0.158,0.471-0.292c6.454-6.454,15.91-15.91,22.23-22.23c0.12,0.12,3.109,3.109,2.92,2.92L-625.066,47.905z
	 M-636.365,9.598c-1.645-1.643-1.647-4.36,0-6.008c0.027-0.027,0.054-0.058,0.081-0.093c1.607-1.535,4.38-1.512,5.95,0.07
	l20.189,20.187l-6.031,6.033L-636.365,9.598z M-591.554,2.896c0.742-0.74,2.024-0.734,2.769,0.012l5.809,5.809
	c0.771,0.772,0.771,1.983,0,2.756l-15.323,15.333c-2.171-2.172-6.498-6.504-8.57-8.58L-591.554,2.896z M-592.078,42.846l6.975,6.998
	c0.504,0.502,1.172,0.778,1.885,0.778c0.973,0,1.865-0.525,2.346-1.4c1.603-3.095,0.902-6.676-1.344-8.9l-6.035-6.035
	c-2.055-2.07-5.164-2.35-7.496-1.054c-0.324,0.172-0.649,0.355-0.975,0.552l-5.413-5.415l1.002-1.004l1.22,1.222
	c0.431,0.419,1,0.649,1.605,0.649c0.612,0,1.191-0.234,1.641-0.672l15.385-15.398c1.695-1.695,1.695-4.453,0-6.148l-5.807-5.811
	c-1.653-1.649-4.517-1.657-6.164-0.01l-15.371,15.385c-0.44,0.427-0.691,1.025-0.693,1.641c0,0.624,0.245,1.205,0.678,1.626
	l1.199,1.199l-1.008,1.01l-20.187-20.187c-2.586-2.599-6.821-2.597-9.416-0.002c-0.031,0.031-0.062,0.068-0.093,0.104
	c-2.499,2.588-2.479,6.761,0.081,9.321l20.189,20.189l-11.6,11.6l-4.146,1.373c-0.257,0.087-0.479,0.257-0.626,0.483l-5.558,8.51
	c-0.311,0.475-0.247,1.103,0.154,1.504l4.621,4.621c0.234,0.232,0.541,0.351,0.85,0.351c0.226,0,0.454-0.064,0.657-0.195
	l8.508-5.558c0.228-0.149,0.398-0.371,0.483-0.63l1.363-4.144l11.604-11.606l5.42,5.42c-2.103,3.486-1.5,6.486,0.504,8.46
	l6.029,6.054c2.437,2.422,6.089,2.821,8.9,1.329c0.738-0.384,1.232-1.079,1.359-1.912c0.129-0.842-0.151-1.705-0.751-2.304
	l-6.985-6.996c0.674-0.991,1.435-1.912,2.267-2.744C-593.987,44.273-593.068,43.516-592.078,42.846"/>
<path fill="#FFFFFF" d="M-633.22,4.186c1.392,0,2.522,1.13,2.522,2.522c0,1.394-1.13,2.524-2.522,2.524s-2.522-1.13-2.522-2.524
	C-635.742,5.316-634.612,4.186-633.22,4.186"/>
<path fill="#FFFFFF" d="M-509.672,34.806h-4.62v-0.216c0-1.409-1.152-2.556-2.568-2.556v-4.896c0-7.154-5.774-13.139-13.153-13.139
	c-7.237,0-13.127,5.895-13.127,13.139v4.896h-0.012c-1.409,0-2.556,1.147-2.556,2.556v0.216h-4.632c-4.003,0-7.26-3.262-7.26-7.272
	c0-4.545,4.132-7.906,8.378-7.181c0.686,0.116,1.317-0.368,1.394-1.05c0.395-3.506,3.763-5.759,6.943-5.068
	c0.635,0.134,1.263-0.255,1.419-0.887c1.07-4.351,4.964-7.391,9.465-7.391c4.496,0,8.384,3.039,9.455,7.391
	c0.334,1.341,1.726,0.769,2.558,0.769c2.976,0,5.471,2.229,5.805,5.187c0.036,0.327,0.206,0.625,0.468,0.822
	c0.262,0.199,0.596,0.281,0.919,0.228c0.369-0.061,0.747-0.092,1.125-0.092c4.009,0,7.272,3.262,7.272,7.272
	S-505.662,34.806-509.672,34.806 M-535.819,32.033v-4.896c0-3.209,2.604-5.82,5.806-5.82c3.255,0,5.832,2.638,5.832,5.82v4.896
	H-535.819z M-519.259,32.033h-2.52v-4.896c0-4.493-3.633-8.219-8.233-8.219c-4.525,0-8.207,3.686-8.207,8.219v4.896h-2.52v-4.896
	c0-5.922,4.813-10.74,10.728-10.74c6.014,0,10.753,4.872,10.753,10.74V32.033z M-516.691,53.885c0,0.09-0.071,0.157-0.169,0.157
	h-26.292c-0.094,0-0.157-0.063-0.157-0.157V34.589c0-0.077,0.058-0.155,0.157-0.155h26.292c0.092,0,0.169,0.071,0.169,0.155V53.885z
	 M-510.015,17.868c-0.973-3.734-4.472-6.388-8.505-6.133c-1.666-4.865-6.242-8.177-11.48-8.177c-5.243,0-9.824,3.312-11.49,8.177
	c-3.951-0.255-7.517,2.336-8.505,6.133c-5.457-0.197-10.005,4.2-10.005,9.666c0,5.333,4.334,9.671,9.661,9.671h4.632v16.68
	c0,1.409,1.147,2.556,2.556,2.556h26.292c1.416,0,2.568-1.147,2.568-2.556v-16.68h4.62c5.333,0,9.671-4.338,9.671-9.671
	C-500.001,22.087-504.551,17.679-510.015,17.868"/>
<path fill="#FFFFFF" d="M-521.298,37.809h-10.078c-0.33,0-0.599,0.269-0.599,0.601c0,0.33,0.269,0.599,0.599,0.599h10.078
	c0.332,0,0.601-0.269,0.601-0.599C-520.697,38.078-520.966,37.809-521.298,37.809"/>
<path fill="#FFFFFF" d="M-521.298,43.641h-10.078c-0.33,0-0.599,0.269-0.599,0.601c0,0.332,0.269,0.599,0.599,0.599h10.078
	c0.332,0,0.601-0.267,0.601-0.599C-520.697,43.91-520.966,43.641-521.298,43.641"/>
<path fill="#FFFFFF" d="M-521.298,49.473h-10.078c-0.33,0-0.599,0.269-0.599,0.601c0,0.33,0.269,0.599,0.599,0.599h10.078
	c0.332,0,0.601-0.269,0.601-0.599C-520.697,49.741-520.966,49.473-521.298,49.473"/>
<path fill="#FFFFFF" d="M-537.473,51.002c-0.512,0-0.929-0.417-0.929-0.929c0-0.512,0.417-0.929,0.929-0.929
	c0.512,0,0.929,0.417,0.929,0.929C-536.544,50.585-536.961,51.002-537.473,51.002 M-537.473,47.944
	c-1.174,0-2.129,0.955-2.129,2.129c0,1.174,0.955,2.129,2.129,2.129s2.129-0.955,2.129-2.129
	C-535.344,48.899-536.299,47.944-537.473,47.944"/>
<path fill="#FFFFFF" d="M-537.473,45.171c-0.512,0-0.929-0.417-0.929-0.929c0-0.512,0.417-0.929,0.929-0.929
	c0.512,0,0.929,0.417,0.929,0.929C-536.544,44.754-536.961,45.171-537.473,45.171 M-537.473,42.112
	c-1.174,0-2.129,0.955-2.129,2.129c0,1.174,0.955,2.129,2.129,2.129s2.129-0.955,2.129-2.129
	C-535.344,43.067-536.299,42.112-537.473,42.112"/>
<path fill="#FFFFFF" d="M-537.473,39.339c-0.512,0-0.929-0.417-0.929-0.929c0-0.512,0.417-0.929,0.929-0.929
	c0.512,0,0.929,0.417,0.929,0.929C-536.544,38.922-536.961,39.339-537.473,39.339 M-537.473,36.281
	c-1.174,0-2.129,0.955-2.129,2.129c0,1.174,0.955,2.129,2.129,2.129s2.129-0.955,2.129-2.129
	C-535.344,37.235-536.299,36.281-537.473,36.281"/>
<path fill="#FFFFFF" d="M-423.082,56.85c-0.911,0.909-2.549,0.851-3.392-0.129l-5.715-6.621c0.145-0.143,2.522-2.52,2.371-2.369
	l6.615,5.709C-422.188,54.326-422.12,55.886-423.082,56.85 M-436.786,48.155c1.965-1.255,3.73-3.004,5.014-5.014l1.577,1.572
	c-0.189,0.189-5.138,5.138-5.018,5.016L-436.786,48.155z M-455.429,44.224c-5.451-5.449-5.443-14.27,0.012-19.725
	c5.452-5.451,14.259-5.451,19.713,0c8.835,8.837,2.464,23.814-9.86,23.814C-449.29,48.314-452.792,46.862-455.429,44.224
	 M-477.591,38.231v-5.284c3.124,2.672,9.022,4.474,15.99,4.616c0.529,2.678,1.724,5.167,3.497,7.279
	c-0.871,0.056-1.74,0.087-2.603,0.087C-470.657,44.929-477.591,41.4-477.591,38.231 M-460.712,2.323
	c9.953,0,16.888,3.527,16.888,6.694s-6.935,6.696-16.888,6.696c-9.953,0-16.888-3.529-16.888-6.696S-470.665,2.323-460.712,2.323
	 M-461.87,35.16c-9.318-0.265-15.72-3.624-15.72-6.659v-5.283c4.124,3.522,11.571,4.657,17.043,4.63
	C-461.573,30.203-461.994,32.58-461.87,35.16 M-457.115,22.803c-0.803,0.805-1.508,1.68-2.118,2.608
	c-7.933,0.309-18.186-2.269-18.358-6.568v-5.366c3.261,2.784,9.524,4.636,16.879,4.636c7.364,0,13.633-1.855,16.89-4.645v4.643
	C-448.876,17.578-453.661,19.351-457.115,22.803 M-428.146,46.003c0.606-0.869,0.529-2.083-0.249-2.885l-2.205-2.195
	c2.701-6.144,1.39-13.32-3.408-18.12c-2.085-2.083-4.638-3.518-7.414-4.242V9.023c0-0.008-0.004-0.015-0.004-0.023
	c-0.021-5.091-8.484-9.076-19.286-9.076C-471.528-0.077-480,3.918-480,9.017c0,0.056,0.015,0.108,0.017,0.162
	c0,0.014-0.008,0.023-0.008,0.037v29.015c0,5.186,8.291,9.098,19.284,9.098c1.599,0,3.219-0.104,4.827-0.284
	c2.91,2.375,6.512,3.668,10.314,3.668c2.253,0,4.491-0.498,6.547-1.396l2.218,2.218c0.421,0.421,0.983,0.653,1.581,0.653
	c0.475,0,0.925-0.149,1.303-0.415l5.624,6.514c1.761,2.047,4.945,2.218,6.906,0.259c1.973-1.975,1.79-5.138-0.245-6.918
	L-428.146,46.003z"/>
<path fill="#FFFFFF" d="M-445.565,42.439c-4.456,0-8.082-3.626-8.082-8.082s3.626-8.082,8.082-8.082s8.082,3.626,8.082,8.082
	S-441.109,42.439-445.565,42.439 M-435.083,34.357c0-5.781-4.701-10.482-10.482-10.482s-10.482,4.701-10.482,10.482
	s4.701,10.482,10.482,10.482S-435.083,40.138-435.083,34.357"/>
<path fill="#FFFFFF" d="M-440.001,30.921c-0.432-0.502-1.191-0.558-1.693-0.124l-6.406,5.535l-1.272-1.274
	c-0.469-0.467-1.228-0.467-1.697,0c-0.469,0.469-0.469,1.23,0,1.697l2.062,2.062c0.234,0.234,0.541,0.351,0.848,0.351
	c0.28,0,0.56-0.095,0.786-0.292l7.25-6.263C-439.623,32.18-439.569,31.423-440.001,30.921"/>
<g>
	<path fill="#FFFFFF" d="M-369.997,46.076c-1.786-1.534-12.84-4.894-12.84-16.604V18.163l12.84-5.466l12.833,5.466v11.309
		C-357.164,41.166-368.304,44.622-369.997,46.076 M-355.406,29.472v-11.89c0-0.353-0.21-0.672-0.534-0.81l-13.712-5.84
		c-0.221-0.093-0.469-0.093-0.689,0l-13.719,5.84c-0.326,0.138-0.536,0.457-0.536,0.81v11.89c0,12.983,12.214,16.713,14.153,18.383
		c0.138,0.081,0.293,0.121,0.446,0.121c0.155,0,0.309-0.04,0.446-0.121C-367.57,46.147-355.406,42.477-355.406,29.472"/>
	<path fill="#FFFFFF" d="M-375.567,26.73c-0.465-0.589-1.319-0.689-1.908-0.224c-0.588,0.464-0.689,1.319-0.224,1.908l3.906,4.949
		c0.267,0.34,0.665,0.517,1.067,0.517c0.279,0,0.562-0.086,0.803-0.264l11.025-8.098c0.603-0.445,0.734-1.294,0.29-1.898
		c-0.445-0.605-1.294-0.736-1.898-0.291l-9.966,7.322L-375.567,26.73z"/>
	<path fill="#FFFFFF" d="M-393.483,23.038c0.35,0.105,0.717-0.093,0.822-0.441c2.156-7.174,7.751-12.997,14.777-15.491l-0.608,1.465
		c-0.14,0.336,0.019,0.722,0.355,0.862c0.34,0.141,0.724-0.021,0.864-0.355l1.158-2.787c0.14-0.333-0.038-0.731-0.357-0.862
		l-2.787-1.158c-0.336-0.141-0.722,0.019-0.862,0.355c-0.14,0.336,0.019,0.722,0.355,0.862l1.158,0.483
		c-7.283,2.687-13.071,8.77-15.317,16.246C-394.03,22.565-393.832,22.932-393.483,23.038"/>
	<path fill="#FFFFFF" d="M-393.483,23.038c0.35,0.105,0.717-0.093,0.822-0.441c2.156-7.174,7.751-12.997,14.777-15.491l-0.608,1.465
		c-0.14,0.336,0.019,0.722,0.355,0.862c0.34,0.141,0.724-0.021,0.864-0.355l1.158-2.787c0.14-0.333-0.038-0.731-0.357-0.862
		l-2.787-1.158c-0.336-0.141-0.722,0.019-0.862,0.355c-0.14,0.336,0.019,0.722,0.355,0.862l1.158,0.483
		c-7.283,2.687-13.071,8.77-15.317,16.246C-394.03,22.565-393.832,22.932-393.483,23.038z"/>
	<path fill="#FFFFFF" d="M-345.775,37.345c0.1-0.35-0.102-0.715-0.452-0.815c-0.352-0.102-0.715,0.1-0.817,0.452
		c-2.296,8.003-8.555,14.126-16.511,16.285l0.776-1.479c0.171-0.322,0.045-0.721-0.277-0.889c-0.322-0.171-0.721-0.045-0.889,0.278
		l-1.422,2.708c-0.153,0.222-0.205,0.738,0.236,0.969l2.787,1.462c0.319,0.167,0.719,0.048,0.889-0.278
		c0.171-0.322,0.047-0.722-0.277-0.891l-1.258-0.66C-354.693,52.155-348.18,45.722-345.775,37.345"/>
	<path fill="#FFFFFF" d="M-345.775,37.345c0.1-0.35-0.102-0.715-0.452-0.815c-0.352-0.102-0.715,0.1-0.817,0.452
		c-2.296,8.003-8.555,14.126-16.511,16.285l0.776-1.479c0.171-0.322,0.045-0.721-0.277-0.889c-0.322-0.171-0.721-0.045-0.889,0.278
		l-1.422,2.708c-0.153,0.222-0.205,0.738,0.236,0.969l2.787,1.462c0.319,0.167,0.719,0.048,0.889-0.278
		c0.171-0.322,0.047-0.722-0.277-0.891l-1.258-0.66C-354.693,52.155-348.18,45.722-345.775,37.345z"/>
	<path fill="#FFFFFF" d="M-362.979,6.816c7.393,2.294,13.233,8.151,15.548,15.479l-1.296-0.681
		c-0.322-0.171-0.722-0.045-0.891,0.278s-0.045,0.72,0.278,0.889l2.673,1.403c0,0,0,0,0.002,0c0.35,0.174,0.729,0.026,0.889-0.278
		l1.401-2.672c0.169-0.324,0.045-0.722-0.277-0.891c-0.322-0.171-0.722-0.045-0.891,0.278l-0.645,1.229
		c-2.455-7.713-8.61-13.877-16.399-16.294c-0.346-0.109-0.717,0.086-0.826,0.434C-363.522,6.338-363.328,6.707-362.979,6.816"/>
	<path fill="#FFFFFF" d="M-362.979,6.816c7.393,2.294,13.233,8.151,15.548,15.479l-1.296-0.681
		c-0.322-0.171-0.722-0.045-0.891,0.278s-0.045,0.72,0.278,0.889l2.673,1.403c0,0,0,0,0.002,0c0.35,0.174,0.729,0.026,0.889-0.278
		l1.401-2.672c0.169-0.324,0.045-0.722-0.277-0.891c-0.322-0.171-0.722-0.045-0.891,0.278l-0.645,1.229
		c-2.455-7.713-8.61-13.877-16.399-16.294c-0.346-0.109-0.717,0.086-0.826,0.434C-363.522,6.338-363.328,6.707-362.979,6.816z"/>
	<path fill="#FFFFFF" d="M-370,2.594c1.381,0,2.505,1.124,2.505,2.505c0,1.381-1.124,2.505-2.505,2.505s-2.505-1.124-2.505-2.505
		C-372.504,3.717-371.38,2.594-370,2.594 M-370,9.361c2.351,0,4.263-1.913,4.263-4.263c0-2.351-1.912-4.264-4.263-4.264
		s-4.263,1.913-4.263,4.264C-374.262,7.448-372.351,9.361-370,9.361"/>
	<path fill="#FFFFFF" d="M-343.176,29.604c0,1.381-1.124,2.505-2.504,2.505c-1.381,0-2.505-1.124-2.505-2.505
		c0-1.381,1.124-2.505,2.505-2.505C-344.299,27.099-343.176,28.223-343.176,29.604 M-349.943,29.604
		c0,2.351,1.913,4.263,4.263,4.263c2.351,0,4.264-1.912,4.264-4.263s-1.913-4.263-4.264-4.263
		C-348.029,25.341-349.943,27.252-349.943,29.604"/>
	<path fill="#FFFFFF" d="M-394.32,27.1c1.381,0,2.505,1.124,2.505,2.505c0,1.381-1.124,2.505-2.505,2.505s-2.505-1.124-2.505-2.505
		C-396.824,28.224-395.7,27.1-394.32,27.1 M-394.32,33.867c2.351,0,4.263-1.913,4.263-4.263c0-2.351-1.912-4.264-4.263-4.264
		s-4.263,1.913-4.263,4.264C-398.582,31.954-396.671,33.867-394.32,33.867"/>
	<path fill="#FFFFFF" d="M-369.169,53.737c0,1.381-1.124,2.505-2.505,2.505c-1.381,0-2.505-1.124-2.505-2.505
		c0-1.381,1.124-2.505,2.505-2.505C-370.292,51.233-369.169,52.357-369.169,53.737 M-375.936,53.737
		c0,2.351,1.912,4.263,4.263,4.263s4.264-1.912,4.264-4.263c0-2.351-1.913-4.263-4.264-4.263S-375.936,51.386-375.936,53.737"/>
	<path fill="#FFFFFF" d="M-390.037,38.14c0.169-0.322,0.045-0.722-0.277-0.891l-2.667-1.398l-0.005-0.003
		c-0.309-0.164-0.712-0.057-0.888,0.274c-0.002,0.002-0.003,0.002-0.003,0.003l-1.403,2.672c-0.169,0.322-0.045,0.722,0.278,0.891
		c0.321,0.169,0.72,0.045,0.891-0.278l0.686-1.308c2.548,6.86,8.05,12.343,14.982,14.832c0.074,0.026,0.148,0.038,0.222,0.038
		c0.271,0,0.524-0.167,0.621-0.436c0.124-0.343-0.053-0.72-0.396-0.845c-6.519-2.341-11.699-7.476-14.134-13.905l1.203,0.631
		C-390.606,38.586-390.206,38.462-390.037,38.14"/>
	<path fill="#FFFFFF" d="M-390.037,38.14c0.169-0.322,0.045-0.722-0.277-0.891l-2.667-1.398l-0.005-0.003
		c-0.309-0.164-0.712-0.057-0.888,0.274c-0.002,0.002-0.003,0.002-0.003,0.003l-1.403,2.672c-0.169,0.322-0.045,0.722,0.278,0.891
		c0.321,0.169,0.72,0.045,0.891-0.278l0.686-1.308c2.548,6.86,8.05,12.343,14.982,14.832c0.074,0.026,0.148,0.038,0.222,0.038
		c0.271,0,0.524-0.167,0.621-0.436c0.124-0.343-0.053-0.72-0.396-0.845c-6.519-2.341-11.699-7.476-14.134-13.905l1.203,0.631
		C-390.606,38.586-390.206,38.462-390.037,38.14z"/>
</g>
<path fill="#FFFFFF" d="M-274.386,30.137l-11.791,13.343c-0.326,0.371-0.508,0.847-0.508,1.342v12.167l-6.528-3.494v-8.674
	c0-0.495-0.182-0.971-0.508-1.342l-11.791-13.343v-5.353h31.125V30.137z M-268.386,15.392c1.346,0,2.44,1.095,2.44,2.44
	c0,1.346-1.095,2.442-2.44,2.442c-1.346,0-2.442-1.096-2.442-2.442C-270.829,16.487-269.732,15.392-268.386,15.392 M-311.614,20.274
	c-1.346,0-2.44-1.096-2.44-2.442c0-1.346,1.095-2.44,2.44-2.44c1.346,0,2.442,1.095,2.442,2.44
	C-309.171,19.178-310.268,20.274-311.614,20.274 M-313.192,9.679c-1.346,0-2.442-1.095-2.442-2.44c0-1.346,1.096-2.442,2.442-2.442
	c1.34,0,2.431,1.087,2.44,2.425c0,0.004-0.004,0.007-0.004,0.011c0,0.006,0.004,0.011,0.004,0.015
	C-310.757,8.591-311.85,9.679-313.192,9.679 M-292.39,5.217c0-1.346,1.095-2.44,2.44-2.44c1.348,0,2.442,1.095,2.442,2.44
	c0,1.346-1.095,2.442-2.442,2.442C-291.295,7.659-292.39,6.563-292.39,5.217 M-266.808,4.797c1.346,0,2.442,1.096,2.442,2.442
	c0,1.346-1.096,2.44-2.442,2.44c-1.342,0-2.433-1.087-2.44-2.427c0-0.006,0.004-0.011,0.004-0.019c0-0.004-0.002-0.009-0.002-0.015
	C-269.235,5.882-268.147,4.797-266.808,4.797 M-275.795,8.418h4.343c0.529,2.08,2.401,3.63,4.644,3.63
	c2.652,0,4.809-2.157,4.809-4.809c0-2.652-2.157-4.809-4.809-4.809c-2.24,0-4.11,1.546-4.642,3.621h-4.836
	c-0.317,0-0.617,0.126-0.84,0.349c-2.935,2.946-4.579,4.59-7.514,7.525c-0.223,0.223-0.347,0.523-0.347,0.838v7.654h-3.777V9.859
	c2.077-0.53,3.623-2.403,3.623-4.642c0-2.65-2.157-4.807-4.809-4.807c-2.65,0-4.807,2.157-4.807,4.807
	c0,2.242,1.548,4.114,3.627,4.644v12.555h-3.882v-7.654c0-0.315-0.126-0.615-0.347-0.838c-2.935-2.935-4.581-4.579-7.514-7.525
	c-0.223-0.223-0.525-0.349-0.84-0.349h-4.837c-0.532-2.075-2.403-3.621-4.642-3.621c-2.652,0-4.809,2.157-4.809,4.809
	c0,2.652,2.157,4.809,4.809,4.809c2.243,0,4.116-1.55,4.644-3.63h4.344c2.609,2.62,4.215,4.225,6.824,6.833v7.165h-3.184v-2.363
	c0-0.317-0.127-0.62-0.352-0.843c-0.872-0.858-1.355-1.342-2.213-2.213c-0.223-0.225-0.527-0.352-0.843-0.352h-2.999
	c-0.532-2.075-2.403-3.619-4.642-3.619c-2.652,0-4.807,2.155-4.807,4.807s2.155,4.809,4.807,4.809c2.243,0,4.116-1.55,4.646-3.63
	h2.5c0.557,0.562,0.975,0.98,1.537,1.537v1.869h-2.922c-1.117,0-2.026,0.909-2.026,2.026v5.823c0,0.493,0.18,0.969,0.508,1.34
	l11.789,13.344v8.747c0,0.688,0.345,1.323,1.008,1.749l7.128,3.816c0.332,0.216,0.712,0.328,1.102,0.328
	c1.117,0,2.026-0.909,2.026-2.026V44.951l11.791-13.344c0.328-0.371,0.508-0.847,0.508-1.34v-5.823c0-1.117-0.909-2.026-2.026-2.026
	h-3.023v-1.874l1.531-1.531h2.504c0.53,2.08,2.403,3.63,4.646,3.63c2.652,0,4.809-2.157,4.809-4.809s-2.157-4.807-4.809-4.807
	c-2.24,0-4.11,1.544-4.642,3.619h-2.997c-0.315,0-0.615,0.126-0.838,0.347l-2.227,2.225c-0.221,0.223-0.345,0.525-0.345,0.838v2.363
	h-3.184v-7.165C-280.01,12.643-278.404,11.038-275.795,8.418"/>
<g>
	<path fill="#FFFFFF" d="M-198.593,15.612c-1.184,0-2.148-0.97-2.148-2.161c0-1.103,0.897-2.148,2.148-2.148
		c1.175,0,2.161,0.939,2.161,2.148C-196.431,14.642-197.401,15.612-198.593,15.612 M-209.862,7.156c0-1.19,0.964-2.16,2.15-2.16
		c1.192,0,2.161,0.97,2.161,2.16C-205.551,9.96-209.862,9.971-209.862,7.156 M-216.107,18.651c-1.19,0-2.156-0.966-2.156-2.156
		c0-1.188,0.966-2.154,2.156-2.154c1.188,0,2.156,0.966,2.156,2.154C-213.951,17.686-214.919,18.651-216.107,18.651 M-189.751,2.704
		c1.188,0,2.156,0.968,2.156,2.156s-0.968,2.156-2.156,2.156c-1.188,0-2.156-0.968-2.156-2.156S-190.939,2.704-189.751,2.704
		 M-189.751,8.796c2.171,0,3.937-1.766,3.937-3.937c0-2.169-1.766-3.937-3.937-3.937c-2.171,0-3.937,1.768-3.937,3.937
		c0,0.745,0.221,1.435,0.582,2.03l-3.365,3.258c-0.631-0.405-1.359-0.627-2.122-0.627c-0.996,0-1.933,0.378-2.639,1.027
		l-2.825-1.945c0.182-0.456,0.287-0.943,0.287-1.447c0-2.173-1.77-3.941-3.943-3.941c-2.169,0-3.931,1.768-3.931,3.941
		c0,0.808,0.259,1.589,0.717,2.243l-3.289,3.667c-0.565-0.314-1.203-0.506-1.892-0.506c-2.171,0-3.937,1.766-3.937,3.935
		c0,2.171,1.766,3.937,3.937,3.937c2.171,0,3.937-1.766,3.937-3.937c0-0.835-0.266-1.608-0.713-2.247l3.281-3.659
		c0.574,0.317,1.219,0.498,1.89,0.498c0.989,0,1.926-0.376,2.641-1.023l2.834,1.952c-0.181,0.454-0.285,0.935-0.285,1.433
		c0,2.175,1.762,3.943,3.929,3.943c2.175,0,3.943-1.768,3.943-3.943c0-0.726-0.207-1.418-0.576-2.028l3.359-3.253
		C-191.255,8.563-190.531,8.796-189.751,8.796"/>
	<path fill="#FFFFFF" d="M-183.727,47.141c-3.675,2.561-14.041,7.026-19.894,9.461c-3.561,1.483-7.711,1.321-11.151-0.437
		l-16.381-8.363V35.135c0.12,0,10.716,0.006,10.041,0.006c1.819,0,3.553,0.825,4.699,2.298c1.688,2.175,4.243,3.218,6.574,3.218
		h9.178c1.061,0.051,2.03,0.766,2.243,1.814c0.243,1.401-0.876,2.563-2.15,2.563h-15.548c-0.656,0-1.186,0.53-1.186,1.186
		c0,0.656,0.53,1.188,1.186,1.188h15.548c1.382,0,13.463-3.992,14.773-4.424c0.964-0.319,2.142-0.049,2.707,0.821
		C-182.369,44.898-182.655,46.394-183.727,47.141 M-233.533,49.193h-3.772V33.294h3.772V49.193z M-211.335,28.806v9.267
		c-3.448-0.876-2.899-3.35-6.923-4.808v-4.46H-211.335z M-209.554,22.761h6.923v15.508h-6.923V22.761z M-193.914,26.253V43.1
		c-0.76,0.241-1.5,0.471-2.18,0.681c0.572-2.699-1.511-5.498-4.473-5.498h-0.093c-0.038-0.002-0.078-0.013-0.116-0.013h-0.072
		V26.253H-193.914z M-192.133,18.331h6.924v22.16c-0.454,0.019-0.907,0.095-1.335,0.238c-1.211,0.399-3.329,1.097-5.589,1.812
		V18.331z M-181.132,42.444l0.002-0.002c-0.555-0.806-1.361-1.384-2.298-1.698V17.442c0-0.492-0.397-0.892-0.89-0.892h-8.705
		c-0.492,0-0.892,0.399-0.892,0.892v7.03h-6.935v-2.601c0-0.492-0.397-0.892-0.89-0.892h-8.705c-0.492,0-0.892,0.399-0.892,0.892
		v5.154h-7.813c-0.492,0-0.892,0.397-0.892,0.89v4.918c-0.118-0.013-1.046-0.072-1.068-0.072h-10.064
		c-0.074-1.027-0.922-1.84-1.966-1.84h-4.557c-1.093,0-1.985,0.89-1.985,1.983v16.681c0,1.095,0.892,1.985,1.985,1.985h4.557
		c0.808,0,1.504-0.49,1.81-1.188l15.474,7.901c4.057,2.072,8.849,2.304,13.146,0.513c5.941-2.471,16.482-7.017,20.339-9.705
		C-180.199,47.579-179.699,44.554-181.132,42.444"/>
</g>
<path fill="#FFFFFF" d="M-156.679,3.756c0-0.244,0.198-0.442,0.442-0.442h23.054c0.242,0,0.442,0.198,0.442,0.442v18.099
	c0,0.244-0.2,0.442-0.442,0.442h-23.054c-0.244,0-0.442-0.198-0.442-0.442V3.756z M-116.442,16.45v22.933l-2.642-2.814
	c-0.505-0.547-1.216-0.861-1.952-0.861h-7.427c-1.471,0-2.668,1.203-2.668,2.681v5.163h-12.426V29.514h4.294
	c0.651,0,1.255-0.326,1.609-0.872c0.356-0.547,0.409-1.229,0.167-1.778l-0.879-2.246h5.181c1.522,0,2.761-1.239,2.761-2.763V16.45
	H-116.442z M-103.321,42.542v13.796c0,0.195-0.153,0.348-0.348,0.348h-24.795c-0.195,0-0.348-0.153-0.348-0.348V38.389
	c0-0.198,0.156-0.361,0.348-0.361h7.427c0.117,0,0.2,0.063,0.255,0.122l2.988,3.185c0.505,0.546,1.199,0.848,1.954,0.848h0.557
	h11.614C-103.477,42.183-103.321,42.344-103.321,42.542 M-148.59,24.617h7.732l1.009,2.576h-9.746L-148.59,24.617z M-156.238,24.617
	h5.156l-0.859,2.201c-0.261,0.594-0.205,1.275,0.151,1.822c0.357,0.547,0.958,0.874,1.608,0.874h4.304v15.198
	c0,0.642,0.52,1.161,1.161,1.161h13.585v10.465c0,1.47,1.197,2.668,2.668,2.668h24.795c1.471,0,2.668-1.199,2.668-2.668V42.542
	c0-1.478-1.197-2.68-2.668-2.68h-10.452V15.288c0-0.64-0.52-1.16-1.161-1.16h-15.141V3.756c0-1.523-1.239-2.761-2.761-2.761h-23.054
	c-1.523,0-2.763,1.238-2.763,2.761v18.099C-159,23.378-157.761,24.617-156.238,24.617"/>
<g>
	<defs>
		<rect id="SVGID_1_" x="-80" y="2.206" width="60" height="55.587"/>
	</defs>
	<use xlink:href="#SVGID_1_"  overflow="visible" fill="#FFFFFF"/>
	<clipPath id="SVGID_2_">
		<use xlink:href="#SVGID_1_"  overflow="visible"/>
	</clipPath>
	<path clip-path="url(#SVGID_2_)" fill="#FFFFFF" d="M-24.352,50.785c-1.338-1.887-3.225-3.261-5.386-3.98
		c1.272-1.016,2.105-2.561,2.105-4.314c0-3.059-2.488-5.545-5.547-5.545c-3.057,0-5.545,2.486-5.545,5.545
		c0,1.749,0.832,3.295,2.102,4.311c-1.342,0.449-2.597,1.147-3.687,2.087c-0.644,0.563-1.209,1.211-1.696,1.9
		c-2.889-4.114-2.565-9.847,0.955-13.591c4.134-4.406,10.965-4.515,15.263-0.474C-21.848,40.417-21.318,46.472-24.352,50.785
		 M-33.18,48.036c0.011,0,0.02-0.004,0.03-0.004c3.12,0.011,5.942,1.597,7.588,4.191c-4.187,4.2-10.978,4.259-15.235,0.009
		c0.454-0.726,1.009-1.408,1.667-1.984c1.647-1.422,3.747-2.207,5.919-2.216C-33.199,48.032-33.19,48.036-33.18,48.036
		 M-36.923,42.49c0-2.066,1.68-3.746,3.744-3.746c2.066,0,3.746,1.68,3.746,3.746c0,2.055-1.664,3.726-3.717,3.742
		c-0.009,0-0.016-0.002-0.025-0.002c-0.011,0-0.023,0.002-0.034,0.002C-35.26,46.215-36.923,44.544-36.923,42.49 M-56.002,52.164
		c3.697-5.271,3.05-12.67-1.762-17.19c-2.742-2.579-6.447-3.885-10.278-3.518c0.757-4.1,2.896-7.822,6.067-10.557
		c2.125,4.653,6.767,7.704,11.99,7.704c4.987,0,9.797-2.885,11.985-7.697c3.17,2.733,5.314,6.45,6.08,10.545
		c-4.173-0.397-8.173,1.216-10.881,4.103c-4.307,4.585-4.697,11.605-1.172,16.612C-47.837,53.502-52.126,53.504-56.002,52.164
		 M-66.797,48.036c0.009,0,0.018-0.004,0.029-0.004c3.08,0.011,5.955,1.633,7.586,4.195c-2.036,2.039-4.722,3.166-7.618,3.166
		c-2.742,0-5.465-1.018-7.611-3.157c0.463-0.741,1.014-1.415,1.68-1.991c1.631-1.42,3.728-2.204,5.903-2.213
		C-66.819,48.032-66.808,48.036-66.797,48.036 M-70.543,42.49c0-2.066,1.68-3.746,3.746-3.746c2.064,0,3.744,1.68,3.744,3.746
		c0,2.055-1.664,3.726-3.715,3.742c-0.009,0-0.018-0.002-0.027-0.002c-0.011,0-0.021,0.002-0.034,0.002
		C-68.879,46.215-70.543,44.544-70.543,42.49 M-74.67,37.198c4.134-4.406,10.965-4.517,15.262-0.476
		c3.928,3.692,4.465,9.727,1.431,14.069c-1.331-1.864-3.236-3.247-5.393-3.975c1.279-1.016,2.118-2.567,2.118-4.325
		c0-3.059-2.488-5.545-5.545-5.545c-3.059,0-5.545,2.486-5.545,5.545c0,1.749,0.83,3.293,2.1,4.311
		c-1.34,0.447-2.592,1.145-3.671,2.084c-0.653,0.565-1.218,1.207-1.71,1.905C-78.512,46.676-78.19,40.943-74.67,37.198
		 M-49.988,18.845c0.011,0,0.02-0.002,0.03-0.002c3.125,0.011,5.946,1.599,7.591,4.195c-2.036,2.036-4.722,3.164-7.618,3.164
		c-2.722,0-5.449-1.003-7.615-3.159c1.708-2.726,4.602-4.191,7.574-4.202C-50.012,18.841-50.001,18.845-49.988,18.845 M-53.732,13.3
		c0-2.064,1.68-3.744,3.744-3.744c2.066,0,3.746,1.68,3.746,3.744c0,2.055-1.665,3.726-3.715,3.742
		c-0.013,0-0.023-0.002-0.034-0.002c-0.011,0-0.021,0.002-0.034,0.002C-52.072,17.02-53.732,15.352-53.732,13.3 M-57.855,8.009
		c4.132-4.395,10.967-4.517,15.262-0.478c3.917,3.69,4.456,9.722,1.433,14.065c-1.338-1.887-3.225-3.263-5.388-3.98
		c1.274-1.018,2.105-2.563,2.105-4.316c0-3.057-2.486-5.545-5.545-5.545c-3.057,0-5.545,2.488-5.545,5.545
		c0,1.749,0.83,3.293,2.1,4.311c-2.193,0.733-4.026,2.086-5.377,3.989C-61.708,17.487-61.386,11.754-57.855,8.009 M-29.421,31.939
		c-0.744-5.305-3.52-10.123-7.756-13.448c1.054-4.461-0.227-9.369-3.771-12.707c-5.347-5.028-13.707-4.685-18.655,0.58
		c-3.134,3.323-4.195,7.931-3.198,12.121c-4.236,3.329-7.008,8.15-7.742,13.464c-2.225,0.66-4.268,1.891-5.876,3.606
		c-7.879,8.384-1.901,22.24,9.618,22.24c3.384,0,6.649-1.333,9.132-3.701c2.438,0.98,5.012,1.501,7.677,1.501
		c2.667,0,5.236-0.519,7.667-1.492c5.885,5.677,15.412,4.23,18.932-0.667c4.803-5.289,4.465-13.571-0.751-18.46
		C-25.663,33.547-27.468,32.518-29.421,31.939"/>
</g>
<path fill="#FFFFFF" d="M20.393,20.156c-2.561,2.502-4.16,5.987-4.16,9.842s1.598,7.34,4.16,9.842
	c-8.446-2.593-15.051-7.789-17.433-9.842C5.342,27.943,11.947,22.747,20.393,20.156 M30,18.635c6.265,0,11.364,5.097,11.364,11.364
	c0,6.265-5.099,11.364-11.364,11.364s-11.364-5.099-11.364-11.364C18.636,23.731,23.735,18.635,30,18.635 M57.041,29.999
	c-2.382,2.054-8.987,7.25-17.433,9.842c2.561-2.502,4.16-5.987,4.16-9.842s-1.598-7.34-4.16-9.842
	C48.054,22.747,54.659,27.943,57.041,29.999 M6.424,11.348c-1.657,0-3.005-1.348-3.005-3.003c0-1.657,1.348-3.005,3.005-3.005
	c1.652,0,2.996,1.342,3.001,2.994c0,0.002,0,0.003,0,0.007c0,0.002,0.002,0.005,0.002,0.009C9.423,10.004,8.077,11.348,6.424,11.348
	 M53.582,48.652c1.657,0,3.003,1.348,3.003,3.003c0,1.655-1.346,3.003-3.003,3.003c-1.657,0-3.003-1.348-3.003-3.003
	C50.579,50,51.925,48.652,53.582,48.652 M30,43.766c1.214,0,2.407-0.077,3.581-0.205l8.13,8.905c0.228,0.249,0.55,0.391,0.887,0.391
	h5.723c0.55,2.403,2.695,4.205,5.262,4.205c2.982,0,5.406-2.424,5.406-5.406c0-2.981-2.424-5.406-5.406-5.406
	c-2.567,0-4.713,1.802-5.262,4.205h-5.193l-6.688-7.326c13.08-2.53,22.768-11.813,23.234-12.268
	c0.233-0.226,0.365-0.537,0.365-0.861c0-0.325-0.132-0.635-0.365-0.861C59.133,28.611,46.228,16.231,30,16.231
	c-1.21,0-2.401,0.077-3.572,0.203l-8.14-8.905c-0.228-0.249-0.548-0.39-0.887-0.39h-5.718c-0.551-2.401-2.695-4.203-5.26-4.203
	c-2.982,0-5.408,2.426-5.408,5.408c0,2.981,2.426,5.406,5.408,5.406c2.568,0,4.714-1.803,5.262-4.208h5.187l6.695,7.324
	C10.484,19.396,0.793,28.682,0.327,29.138c-0.233,0.226-0.365,0.536-0.365,0.861c0,0.323,0.132,0.635,0.365,0.861
	C0.868,31.386,13.772,43.766,30,43.766"/>
<path fill="#FFFFFF" d="M30,25.266c2.61,0,4.732,2.123,4.732,4.732c0,2.61-2.122,4.733-4.732,4.733c-2.61,0-4.732-2.123-4.732-4.733
	C25.269,27.389,27.39,25.266,30,25.266 M30,37.134c3.934,0,7.135-3.201,7.135-7.137c0-3.934-3.201-7.135-7.135-7.135
	s-7.135,3.201-7.135,7.135C22.865,33.933,26.067,37.134,30,37.134"/>
</svg>
