<?xml version="1.0" encoding="utf-8"?>
<!-- Generator: Adobe Illustrator 23.0.3, SVG Export Plug-In . SVG Version: 6.00 Build 0)  -->
<svg version="1.1" id="Layer_1" xmlns="http://www.w3.org/2000/svg" xmlns:xlink="http://www.w3.org/1999/xlink" x="0px" y="0px"
	 width="60px" height="60px" viewBox="0 0 60 60" enable-background="new 0 0 60 60" xml:space="preserve">
<path fill="#FFFFFF" d="M14.77,33.077c-0.248-0.661-0.477-1.321-0.685-1.98h14.929v20.664c-3.107-2.359-5.832-5.014-8.118-7.909
	C18.292,40.557,16.23,36.93,14.77,33.077 M12.252,19.996c4.472-0.178,8.38-1.437,11.632-3.744c2.323-1.648,3.98-3.595,5.13-5.348
	v17.81H13.409C12.407,24.755,12.254,21.569,12.252,19.996 M12.653,6.394c-0.882,0-1.601-0.719-1.601-1.601
	c0-0.884,0.719-1.601,1.601-1.601s1.601,0.717,1.601,1.601C14.254,5.675,13.535,6.394,12.653,6.394 M31.399,31.098h14.916
	c-0.124,0.388-0.253,0.781-0.392,1.175c-1.496,4.23-3.667,8.157-6.453,11.674c-2.28,2.871-4.988,5.496-8.071,7.825V31.098z
	 M31.399,10.893c1.214,1.845,2.986,3.907,5.511,5.613c3.171,2.15,6.939,3.327,11.265,3.503c-0.002,1.559-0.161,4.71-1.182,8.705
	H31.399V10.893z M48.924,2.584c0.882,0,1.601,0.719,1.601,1.601c0,0.882-0.719,1.601-1.601,1.601c-0.417,0-0.792-0.171-1.077-0.433
	c-0.015-0.019-0.021-0.041-0.039-0.06c-0.015-0.015-0.038-0.021-0.054-0.036c-0.261-0.285-0.43-0.657-0.43-1.071
	C47.324,3.303,48.042,2.584,48.924,2.584 M50.998,54.214c0.882,0,1.601,0.719,1.601,1.603c0,0.882-0.719,1.601-1.601,1.601
	c-0.884,0-1.601-0.719-1.601-1.601C49.397,54.933,50.114,54.214,50.998,54.214 M9.003,57.389c-0.884,0-1.601-0.719-1.601-1.603
	c0-0.882,0.717-1.601,1.601-1.601c0.882,0,1.601,0.719,1.601,1.601C10.604,56.671,9.885,57.389,9.003,57.389 M9.003,51.803
	c-2.197,0-3.986,1.788-3.986,3.984c0,2.197,1.788,3.986,3.986,3.986s3.984-1.788,3.984-3.986c0-0.726-0.208-1.398-0.55-1.985
	l7.457-7.457c2.717,3.239,5.935,6.183,9.636,8.733c0.156,0.107,0.43,0.21,0.677,0.21c0.244,0,0.514-0.101,0.672-0.208
	c3.667-2.511,6.864-5.417,9.576-8.624l7.119,7.352c-0.349,0.593-0.563,1.274-0.563,2.01c0,2.196,1.788,3.984,3.986,3.984
	c2.197,0,3.984-1.788,3.984-3.984c0-2.197-1.786-3.986-3.984-3.986c-0.593,0-1.152,0.139-1.657,0.372l-7.384-7.624
	c2.642-3.507,4.749-7.363,6.215-11.514c2.777-7.928,2.338-14.106,2.353-14.23c0-0.685-0.58-1.229-1.274-1.186
	c-3.691-0.002-6.966-0.796-9.758-2.353L47.087,7.7c0.552,0.289,1.171,0.469,1.837,0.469c2.197,0,3.986-1.786,3.986-3.984
	c0-2.197-1.788-3.986-3.986-3.986c-2.197,0-3.984,1.788-3.984,3.986c0,0.662,0.176,1.276,0.464,1.826l-7.945,7.947
	c-4.661-3.563-6.087-8.516-6.102-8.566c-0.004-0.021-0.019-0.034-0.024-0.053c-0.131-0.4-0.537-0.801-1.118-0.807
	c-0.589-0.006-1.03,0.405-1.156,0.858c-0.015,0.051-1.366,4.779-5.757,8.311l-7.11-7.112c0.276-0.542,0.448-1.147,0.448-1.796
	c0-2.197-1.788-3.986-3.986-3.986S8.668,2.596,8.668,4.793s1.788,3.984,3.986,3.984c0.679,0,1.308-0.186,1.867-0.486l6.789,6.789
	c-2.772,1.633-6.05,2.49-9.808,2.554c-0.118,0.008-0.235,0.009-0.347,0.009c-0.646,0-1.197,0.456-1.25,1.094
	c-0.308,3.77,0.61,9.784,2.635,15.183c1.424,3.757,3.408,7.292,5.858,10.55l-7.716,7.716C10.171,51.948,9.606,51.803,9.003,51.803"
	/>
</svg>
