<?xml version="1.0" encoding="utf-8"?>
<!-- Generator: Adobe Illustrator 23.0.3, SVG Export Plug-In . SVG Version: 6.00 Build 0)  -->
<svg version="1.1" id="Layer_1" xmlns="http://www.w3.org/2000/svg" xmlns:xlink="http://www.w3.org/1999/xlink" x="0px" y="0px"
	 width="60px" height="60px" viewBox="0 0 60 60" enable-background="new 0 0 60 60" xml:space="preserve">
<path fill="#169FDB" d="M10.613,31.167c0.483,2.48,2.505,4.392,5.026,4.752c0.299,2.915,0.808,5.653,1.504,8.152
	c-2.488,0.931-4.873,2.139-7.107,3.591c-3.925-4.436-6.4-10.183-6.669-16.495H10.613z M24.249,44.539
	c0.73,2.536,3.162,4.334,5.75,4.334c2.521,0,4.998-1.721,5.752-4.334c1.43,0.239,2.841,0.58,4.229,0.999
	c-2.273,6.695-5.937,11.139-9.981,11.139c-4.002,0-7.697-4.386-9.983-11.131C21.406,45.122,22.819,44.78,24.249,44.539
	 M35.484,15.224c0,0.106,0.002,0.211,0.007,0.315c-1.409,0.23-2.865,0.343-4.334,0.392V3.481c2.574,0.554,5.067,2.926,7.049,6.734
	C36.578,11.275,35.484,13.199,35.484,15.224 M28.84,15.931c-3.022-0.101-5.978-0.592-8.826-1.465
	C22.117,8.27,25.38,4.237,28.84,3.49V15.931z M31.158,28.849V18.27c1.669-0.052,3.313-0.215,4.912-0.487
	c0.993,2.111,3.173,3.464,5.513,3.417c0.026,0,0.05,0.006,0.075,0.004c0.412,2.445,0.636,5.008,0.689,7.645H31.158z M26.335,42.889
	c0-2.019,1.642-3.664,3.664-3.664s3.664,1.644,3.664,3.664c0,2.034-1.665,3.666-3.664,3.666
	C27.966,46.555,26.335,44.875,26.335,42.889 M35.915,42.232c-0.289-2.6-2.225-4.709-4.757-5.207v-5.859h11.198
	c-0.091,4.384-0.702,8.529-1.698,12.158C39.103,42.854,37.519,42.49,35.915,42.232 M45.132,15.224c0,1.698-1.152,3.162-2.818,3.561
	c-2.212,0.571-4.511-1.165-4.511-3.561c0-2.102,1.721-3.664,3.664-3.664C43.541,11.56,45.132,13.259,45.132,15.224 M23.224,4.225
	c-2.159,2.18-4.02,5.411-5.407,9.505c-2.139-0.806-4.201-1.818-6.15-3.05C15.044,7.478,19.013,5.334,23.224,4.225 M17.944,24.222
	c0.276-2.661,0.752-5.181,1.4-7.536c3.063,0.939,6.243,1.463,9.496,1.564v10.599h-6.495C21.891,26.562,20.047,24.746,17.944,24.222
	 M16.501,26.351c0.047,0.007,0.093,0.013,0.14,0.015c1.954,0.08,3.494,1.682,3.501,3.654c0,1.967-1.538,3.572-3.606,3.662
	l-0.058,0.002c-2.019,0-3.664-1.644-3.664-3.671C12.824,27.996,14.467,26.355,16.501,26.351 M17.946,35.818
	c2.279-0.566,3.987-2.499,4.405-4.651h6.489v5.859c-2.533,0.498-4.468,2.607-4.757,5.207c-1.601,0.259-3.186,0.623-4.741,1.096
	C18.711,41.019,18.228,38.501,17.946,35.818 M11.669,49.351c1.945-1.228,4.013-2.255,6.157-3.068
	c1.379,4.041,3.259,7.309,5.459,9.522C18.801,54.649,14.885,52.402,11.669,49.351 M36.852,55.751
	c2.178-2.217,4.022-5.47,5.371-9.457c2.135,0.81,4.192,1.831,6.122,3.05C45.225,52.305,41.434,54.526,36.852,55.751 M49.979,47.654
	c-2.221-1.445-4.597-2.647-7.077-3.576c1.056-3.83,1.685-8.21,1.775-12.912H56.64C56.371,37.475,53.9,43.218,49.979,47.654
	 M56.64,28.849H44.663c-0.054-2.815-0.308-5.551-0.756-8.167c2.128-0.944,3.542-3.053,3.542-5.457c0-0.439-0.054-0.866-0.146-1.278
	c0.9-0.483,1.788-1.012,2.663-1.581C53.892,16.797,56.367,22.54,56.64,28.849 M48.338,10.679c-0.642,0.407-1.293,0.791-1.947,1.148
	c-1.267-1.85-3.636-2.938-6.027-2.48c-1.051-2.064-2.238-3.768-3.529-5.086C41.361,5.466,45.18,7.684,48.338,10.679 M10.038,12.367
	c2.243,1.46,4.627,2.66,7.109,3.582c-0.711,2.553-1.215,5.291-1.508,8.173c-2.503,0.358-4.52,2.256-5.021,4.728H3.367
	C3.64,22.542,6.115,16.801,10.038,12.367 M1.02,30.049C1.038,45.814,13.836,59,30.004,59c16.113,0,28.983-13.179,28.983-28.985
	c0-26.124-32.038-38.914-50.006-19.959C4.138,15.155,1.033,22.225,1.02,29.965c0,0.015-0.007,0.028-0.007,0.043
	C1.012,30.023,1.02,30.034,1.02,30.049"/>
</svg>
