<?xml version="1.0" encoding="utf-8"?>
<!-- Generator: Adobe Illustrator 23.0.3, SVG Export Plug-In . SVG Version: 6.00 Build 0)  -->
<svg version="1.1" id="Layer_1" xmlns="http://www.w3.org/2000/svg" xmlns:xlink="http://www.w3.org/1999/xlink" x="0px" y="0px"
	 width="60px" height="60px" viewBox="0 0 60 60" enable-background="new 0 0 60 60" xml:space="preserve">
<path fill="#FFFFFF" d="M3.321,3.756c0-0.244,0.198-0.442,0.442-0.442h23.054c0.242,0,0.442,0.198,0.442,0.442v18.099
	c0,0.244-0.2,0.442-0.442,0.442H3.762c-0.244,0-0.442-0.198-0.442-0.442V3.756z M43.558,16.45v22.933l-2.642-2.814
	c-0.505-0.547-1.216-0.861-1.952-0.861h-7.427c-1.471,0-2.668,1.203-2.668,2.681v5.163H16.443V29.514h4.294
	c0.651,0,1.255-0.326,1.609-0.872c0.356-0.547,0.409-1.229,0.167-1.778l-0.879-2.246h5.181c1.522,0,2.761-1.239,2.761-2.763V16.45
	H43.558z M56.679,42.542v13.796c0,0.195-0.153,0.348-0.348,0.348H31.537c-0.195,0-0.348-0.153-0.348-0.348V38.389
	c0-0.198,0.156-0.361,0.348-0.361h7.427c0.117,0,0.2,0.063,0.255,0.122l2.988,3.185c0.505,0.546,1.199,0.848,1.954,0.848h0.557
	h11.614C56.523,42.183,56.679,42.344,56.679,42.542 M11.41,24.617h7.732l1.009,2.576h-9.746L11.41,24.617z M3.762,24.617h5.156
	L8.06,26.818c-0.261,0.594-0.205,1.275,0.151,1.822c0.357,0.547,0.958,0.874,1.608,0.874h4.304v15.198
	c0,0.642,0.52,1.161,1.161,1.161h13.585v10.465c0,1.47,1.197,2.668,2.668,2.668h24.794c1.471,0,2.668-1.199,2.668-2.668V42.542
	c0-1.478-1.197-2.68-2.668-2.68H45.879V15.288c0-0.64-0.52-1.16-1.161-1.16H29.577V3.756c0-1.523-1.239-2.761-2.761-2.761H3.762
	C2.239,0.995,1,2.233,1,3.756v18.099C1,23.378,2.239,24.617,3.762,24.617"/>
</svg>
