<?xml version="1.0" encoding="utf-8"?>
<!-- Generator: Adobe Illustrator 23.0.3, SVG Export Plug-In . SVG Version: 6.00 Build 0)  -->
<svg version="1.1" id="Layer_1" xmlns="http://www.w3.org/2000/svg" xmlns:xlink="http://www.w3.org/1999/xlink" x="0px" y="0px"
	 width="60px" height="60px" viewBox="0 0 60 60" enable-background="new 0 0 60 60" xml:space="preserve">
<path fill="#169FDB" d="M45.614,30.137L33.823,43.479c-0.326,0.371-0.508,0.847-0.508,1.342v12.167l-6.528-3.494v-8.674
	c0-0.495-0.182-0.971-0.508-1.342L14.489,30.137v-5.353h31.125V30.137z M51.614,15.392c1.346,0,2.44,1.095,2.44,2.44
	c0,1.346-1.095,2.442-2.44,2.442s-2.442-1.096-2.442-2.442C49.171,16.487,50.268,15.392,51.614,15.392 M8.386,20.274
	c-1.346,0-2.44-1.096-2.44-2.442c0-1.346,1.095-2.44,2.44-2.44s2.442,1.095,2.442,2.44C10.829,19.178,9.732,20.274,8.386,20.274
	 M6.808,9.679c-1.346,0-2.442-1.095-2.442-2.44c0-1.346,1.096-2.442,2.442-2.442c1.34,0,2.431,1.087,2.44,2.425
	c0,0.004-0.004,0.007-0.004,0.011c0,0.006,0.004,0.011,0.004,0.015C9.243,8.591,8.15,9.679,6.808,9.679 M27.61,5.217
	c0-1.346,1.095-2.44,2.44-2.44c1.348,0,2.442,1.095,2.442,2.44c0,1.346-1.095,2.442-2.442,2.442
	C28.705,7.659,27.61,6.563,27.61,5.217 M53.192,4.797c1.346,0,2.442,1.096,2.442,2.442c0,1.346-1.096,2.44-2.442,2.44
	c-1.342,0-2.433-1.087-2.44-2.427c0-0.006,0.004-0.011,0.004-0.019c0-0.004-0.002-0.009-0.002-0.015
	C50.765,5.882,51.853,4.797,53.192,4.797 M44.205,8.418h4.343c0.529,2.08,2.401,3.63,4.644,3.63c2.652,0,4.809-2.157,4.809-4.809
	c0-2.652-2.157-4.809-4.809-4.809c-2.24,0-4.11,1.546-4.642,3.621h-4.836c-0.317,0-0.617,0.126-0.84,0.349
	c-2.935,2.946-4.579,4.59-7.514,7.525c-0.223,0.223-0.347,0.523-0.347,0.838v7.654h-3.777V9.859c2.077-0.53,3.623-2.403,3.623-4.642
	c0-2.65-2.157-4.807-4.809-4.807c-2.65,0-4.807,2.157-4.807,4.807c0,2.242,1.548,4.114,3.627,4.644v12.555h-3.882v-7.654
	c0-0.315-0.126-0.615-0.347-0.838c-2.935-2.935-4.581-4.579-7.514-7.525c-0.223-0.223-0.525-0.349-0.84-0.349h-4.837
	C10.919,3.976,9.048,2.43,6.808,2.43c-2.652,0-4.809,2.157-4.809,4.809c0,2.652,2.157,4.809,4.809,4.809
	c2.243,0,4.116-1.55,4.644-3.63h4.344c2.609,2.62,4.215,4.225,6.824,6.833v7.165h-3.184v-2.363c0-0.317-0.127-0.62-0.352-0.843
	c-0.872-0.858-1.355-1.342-2.213-2.213c-0.223-0.225-0.527-0.352-0.843-0.352h-2.999c-0.532-2.075-2.403-3.619-4.642-3.619
	c-2.652,0-4.807,2.155-4.807,4.807s2.155,4.809,4.807,4.809c2.243,0,4.116-1.55,4.646-3.63h2.5c0.557,0.562,0.975,0.98,1.537,1.537
	v1.869h-2.922c-1.117,0-2.026,0.909-2.026,2.026v5.823c0,0.493,0.18,0.969,0.508,1.34l11.789,13.344v8.747
	c0,0.688,0.345,1.323,1.008,1.749l7.128,3.816c0.332,0.216,0.712,0.328,1.102,0.328c1.117,0,2.026-0.909,2.026-2.026V44.951
	l11.791-13.344c0.328-0.371,0.508-0.847,0.508-1.34v-5.823c0-1.117-0.909-2.026-2.026-2.026h-3.023v-1.874l1.531-1.531h2.504
	c0.53,2.08,2.403,3.63,4.646,3.63c2.652,0,4.809-2.157,4.809-4.809s-2.157-4.807-4.809-4.807c-2.24,0-4.11,1.544-4.642,3.619h-2.997
	c-0.315,0-0.615,0.126-0.838,0.347l-2.227,2.225c-0.221,0.223-0.345,0.525-0.345,0.838v2.363h-3.184v-7.165
	C39.99,12.643,41.596,11.038,44.205,8.418"/>
</svg>
