<?xml version="1.0" encoding="utf-8"?>
<!-- Generator: Adobe Illustrator 23.0.3, SVG Export Plug-In . SVG Version: 6.00 Build 0)  -->
<svg version="1.1" id="Layer_1" xmlns="http://www.w3.org/2000/svg" xmlns:xlink="http://www.w3.org/1999/xlink" x="0px" y="0px"
	 width="60px" height="60px" viewBox="0 0 60 60" enable-background="new 0 0 60 60" xml:space="preserve">
<g>
	<path fill="#169FDB" d="M30.003,46.076c-1.786-1.534-12.84-4.894-12.84-16.604V18.163l12.84-5.466l12.833,5.466v11.309
		C42.836,41.166,31.696,44.622,30.003,46.076 M44.594,29.472v-11.89c0-0.353-0.21-0.672-0.534-0.81l-13.712-5.84
		c-0.221-0.093-0.469-0.093-0.689,0l-13.719,5.84c-0.326,0.138-0.536,0.457-0.536,0.81v11.89c0,12.983,12.214,16.713,14.153,18.383
		c0.138,0.081,0.293,0.121,0.446,0.121c0.155,0,0.309-0.04,0.446-0.121C32.43,46.147,44.594,42.477,44.594,29.472"/>
	<path fill="#169FDB" d="M24.433,26.73c-0.465-0.589-1.319-0.689-1.908-0.224c-0.588,0.464-0.689,1.319-0.224,1.908l3.906,4.949
		c0.267,0.34,0.665,0.517,1.067,0.517c0.279,0,0.562-0.086,0.803-0.264l11.025-8.098c0.603-0.445,0.734-1.294,0.29-1.898
		c-0.445-0.605-1.294-0.736-1.898-0.291l-9.966,7.322L24.433,26.73z"/>
	<path fill="#169FDB" d="M6.517,23.038c0.35,0.105,0.717-0.093,0.822-0.441C9.495,15.422,15.09,9.6,22.116,7.106l-0.608,1.465
		c-0.14,0.336,0.019,0.722,0.355,0.862c0.34,0.141,0.724-0.021,0.864-0.355l1.158-2.787c0.14-0.333-0.038-0.731-0.357-0.862
		L20.74,4.27c-0.336-0.141-0.722,0.019-0.862,0.355c-0.14,0.336,0.019,0.722,0.355,0.862l1.158,0.483
		C14.109,8.657,8.321,14.74,6.075,22.215C5.97,22.565,6.168,22.932,6.517,23.038"/>
	<path fill="#169FDB" d="M6.517,23.038c0.35,0.105,0.717-0.093,0.822-0.441C9.495,15.422,15.09,9.6,22.116,7.106l-0.608,1.465
		c-0.14,0.336,0.019,0.722,0.355,0.862c0.34,0.141,0.724-0.021,0.864-0.355l1.158-2.787c0.14-0.333-0.038-0.731-0.357-0.862
		L20.74,4.27c-0.336-0.141-0.722,0.019-0.862,0.355c-0.14,0.336,0.019,0.722,0.355,0.862l1.158,0.483
		C14.109,8.657,8.321,14.74,6.075,22.215C5.97,22.565,6.168,22.932,6.517,23.038z"/>
	<path fill="#169FDB" d="M54.225,37.345c0.1-0.35-0.102-0.715-0.452-0.815c-0.352-0.102-0.715,0.1-0.817,0.452
		c-2.296,8.003-8.555,14.126-16.511,16.285l0.776-1.479c0.171-0.322,0.045-0.721-0.278-0.889c-0.322-0.171-0.721-0.045-0.889,0.278
		l-1.422,2.708c-0.153,0.222-0.205,0.738,0.236,0.969l2.787,1.462c0.319,0.167,0.719,0.048,0.889-0.278
		c0.171-0.322,0.047-0.722-0.278-0.891l-1.258-0.66C45.307,52.155,51.82,45.722,54.225,37.345"/>
	<path fill="#169FDB" d="M54.225,37.345c0.1-0.35-0.102-0.715-0.452-0.815c-0.352-0.102-0.715,0.1-0.817,0.452
		c-2.296,8.003-8.555,14.126-16.511,16.285l0.776-1.479c0.171-0.322,0.045-0.721-0.278-0.889c-0.322-0.171-0.721-0.045-0.889,0.278
		l-1.422,2.708c-0.153,0.222-0.205,0.738,0.236,0.969l2.787,1.462c0.319,0.167,0.719,0.048,0.889-0.278
		c0.171-0.322,0.047-0.722-0.278-0.891l-1.258-0.66C45.307,52.155,51.82,45.722,54.225,37.345z"/>
	<path fill="#169FDB" d="M37.021,6.816c7.393,2.294,13.233,8.151,15.548,15.479l-1.296-0.681c-0.322-0.171-0.722-0.045-0.891,0.278
		c-0.169,0.322-0.045,0.72,0.278,0.889l2.673,1.403c0,0,0,0,0.002,0c0.35,0.174,0.729,0.026,0.889-0.278l1.401-2.672
		c0.169-0.324,0.045-0.722-0.278-0.891c-0.322-0.171-0.722-0.045-0.891,0.278l-0.645,1.229c-2.455-7.713-8.61-13.877-16.399-16.294
		c-0.346-0.109-0.717,0.086-0.826,0.434C36.478,6.338,36.672,6.707,37.021,6.816"/>
	<path fill="#169FDB" d="M37.021,6.816c7.393,2.294,13.233,8.151,15.548,15.479l-1.296-0.681c-0.322-0.171-0.722-0.045-0.891,0.278
		c-0.169,0.322-0.045,0.72,0.278,0.889l2.673,1.403c0,0,0,0,0.002,0c0.35,0.174,0.729,0.026,0.889-0.278l1.401-2.672
		c0.169-0.324,0.045-0.722-0.278-0.891c-0.322-0.171-0.722-0.045-0.891,0.278l-0.645,1.229c-2.455-7.713-8.61-13.877-16.399-16.294
		c-0.346-0.109-0.717,0.086-0.826,0.434C36.478,6.338,36.672,6.707,37.021,6.816z"/>
	<path fill="#169FDB" d="M30,2.594c1.381,0,2.505,1.124,2.505,2.505c0,1.381-1.124,2.505-2.505,2.505
		c-1.381,0-2.505-1.124-2.505-2.505C27.496,3.717,28.62,2.594,30,2.594 M30,9.361c2.351,0,4.263-1.913,4.263-4.263
		c0-2.351-1.912-4.264-4.263-4.264c-2.351,0-4.263,1.913-4.263,4.264C25.738,7.448,27.649,9.361,30,9.361"/>
	<path fill="#169FDB" d="M56.825,29.604c0,1.381-1.124,2.505-2.505,2.505c-1.381,0-2.505-1.124-2.505-2.505
		c0-1.381,1.124-2.505,2.505-2.505C55.701,27.099,56.825,28.223,56.825,29.604 M50.057,29.604c0,2.351,1.913,4.263,4.263,4.263
		c2.351,0,4.264-1.912,4.264-4.263s-1.913-4.263-4.264-4.263C51.971,25.341,50.057,27.252,50.057,29.604"/>
	<path fill="#169FDB" d="M5.68,27.1c1.381,0,2.505,1.124,2.505,2.505c0,1.381-1.124,2.505-2.505,2.505s-2.505-1.124-2.505-2.505
		C3.176,28.224,4.3,27.1,5.68,27.1 M5.68,33.867c2.351,0,4.263-1.913,4.263-4.263c0-2.351-1.912-4.264-4.263-4.264
		s-4.263,1.913-4.263,4.264C1.418,31.954,3.329,33.867,5.68,33.867"/>
	<path fill="#169FDB" d="M30.831,53.737c0,1.381-1.124,2.505-2.505,2.505c-1.381,0-2.505-1.124-2.505-2.505
		c0-1.381,1.124-2.505,2.505-2.505C29.708,51.233,30.831,52.357,30.831,53.737 M24.064,53.737c0,2.351,1.912,4.263,4.263,4.263
		s4.264-1.912,4.264-4.263c0-2.351-1.913-4.263-4.264-4.263S24.064,51.386,24.064,53.737"/>
	<path fill="#169FDB" d="M9.963,38.14c0.169-0.322,0.045-0.722-0.278-0.891l-2.667-1.398l-0.005-0.003
		c-0.309-0.164-0.712-0.057-0.888,0.274c-0.002,0.002-0.003,0.002-0.003,0.003l-1.403,2.672c-0.169,0.322-0.045,0.722,0.278,0.891
		c0.321,0.169,0.72,0.045,0.891-0.278l0.686-1.308c2.548,6.86,8.05,12.343,14.982,14.832c0.074,0.026,0.148,0.038,0.222,0.038
		c0.271,0,0.524-0.167,0.621-0.436c0.124-0.343-0.053-0.72-0.396-0.845c-6.519-2.341-11.699-7.476-14.134-13.905l1.203,0.631
		C9.394,38.586,9.794,38.462,9.963,38.14"/>
	<path fill="#169FDB" d="M9.963,38.14c0.169-0.322,0.045-0.722-0.278-0.891l-2.667-1.398l-0.005-0.003
		c-0.309-0.164-0.712-0.057-0.888,0.274c-0.002,0.002-0.003,0.002-0.003,0.003l-1.403,2.672c-0.169,0.322-0.045,0.722,0.278,0.891
		c0.321,0.169,0.72,0.045,0.891-0.278l0.686-1.308c2.548,6.86,8.05,12.343,14.982,14.832c0.074,0.026,0.148,0.038,0.222,0.038
		c0.271,0,0.524-0.167,0.621-0.436c0.124-0.343-0.053-0.72-0.396-0.845c-6.519-2.341-11.699-7.476-14.134-13.905l1.203,0.631
		C9.394,38.586,9.794,38.462,9.963,38.14z"/>
</g>
</svg>
