<svg width="48" height="46" viewBox="0 0 48 46" fill="none" xmlns="http://www.w3.org/2000/svg">
<path d="M12.6387 19.3894C12.6387 19.3894 23.6501 18.8018 24.7853 7.29709L25.0502 4.8521C25.3151 2.46397 27.3206 0.663391 29.7234 0.663391C32.4668 0.663391 34.6237 3.01362 34.4156 5.74291C34.1696 8.83232 33.7345 12.7178 32.9777 15.5418H42.3998C44.5378 15.5418 46.2595 17.2666 46.2595 19.4083C46.2595 21.5501 44.5378 23.2748 42.3998 23.2748" stroke="#139DD9" stroke-width="2" stroke-miterlimit="10" stroke-linecap="round" stroke-linejoin="round"/>
<path d="M41.1133 30.8941H43.554C45.6541 30.8941 47.3569 29.1883 47.3569 27.0845C47.3569 24.9806 45.6541 23.2748 43.554 23.2748H42.7593" stroke="#139DD9" stroke-width="2" stroke-miterlimit="10" stroke-linecap="round" stroke-linejoin="round"/>
<path d="M38.918 38.4186H41.1316C43.2128 38.4186 44.8967 36.7318 44.8967 34.6469C44.8967 32.562 43.2128 30.8752 41.1316 30.8752H41.1127" stroke="#139DD9" stroke-width="2" stroke-miterlimit="10" stroke-linecap="round" stroke-linejoin="round"/>
<path d="M12.6387 40.0108L25.561 44.5406C27.0746 45.0713 28.6639 45.3367 30.2721 45.3367H38.7482C40.6592 45.3367 42.2106 43.7825 42.2106 41.8682C42.2106 39.9539 40.6592 38.3997 38.7482 38.3997" stroke="#139DD9" stroke-width="2" stroke-miterlimit="10" stroke-linecap="round" stroke-linejoin="round"/>
<path d="M10.4248 17.3045H2.87575C1.64595 17.3045 0.662109 18.2901 0.662109 19.5221V40.2192C0.662109 41.4512 1.64595 42.4368 2.87575 42.4368H10.4248C11.6546 42.4368 12.6385 41.4512 12.6385 40.2192V19.5221C12.6385 18.2901 11.6546 17.3045 10.4248 17.3045Z" stroke="#139DD9" stroke-width="2" stroke-miterlimit="10" stroke-linecap="round" stroke-linejoin="round"/>
</svg>
