<svg width="48" height="46" viewBox="0 0 48 46" fill="none" xmlns="http://www.w3.org/2000/svg">
<path d="M32.0047 39.2106H16.5117C13.9831 39.2106 11.9395 41.2592 11.9395 43.7828V45H36.5819V43.7828C36.5819 41.2592 34.5333 39.2106 32.0047 39.2106Z" stroke="#139DD9" stroke-width="2" stroke-miterlimit="10" stroke-linecap="round" stroke-linejoin="round"/>
<path d="M24.2613 9.17445C26.0377 9.17445 27.4777 7.73443 27.4777 5.95808C27.4777 4.18172 26.0377 2.7417 24.2613 2.7417C22.4849 2.7417 21.0449 4.18172 21.0449 5.95808C21.0449 7.73443 22.4849 9.17445 24.2613 9.17445Z" stroke="#139DD9" stroke-width="2" stroke-miterlimit="10" stroke-linecap="round" stroke-linejoin="round"/>
<path d="M24.2598 39.2107V9.17468" stroke="#139DD9" stroke-width="2" stroke-miterlimit="10" stroke-linecap="round" stroke-linejoin="round"/>
<path d="M1.48828 30.3037C2.69071 33.5102 5.78338 35.7963 9.41541 35.7963C13.0474 35.7963 16.1352 33.5102 17.3376 30.3037H1.48828Z" stroke="#139DD9" stroke-width="2" stroke-miterlimit="10" stroke-linecap="round" stroke-linejoin="round"/>
<path d="M3.01367 30.3036L9.41673 10.3126" stroke="#139DD9" stroke-width="2" stroke-miterlimit="10" stroke-linecap="round" stroke-linejoin="round"/>
<path d="M15.8122 30.3036L9.41406 10.3126" stroke="#139DD9" stroke-width="2" stroke-miterlimit="10" stroke-linecap="round" stroke-linejoin="round"/>
<path d="M30.7305 21.7927C31.9329 24.9992 35.0256 27.2853 38.6576 27.2853C42.2896 27.2853 45.3774 24.9992 46.5798 21.7927H30.7305Z" stroke="#139DD9" stroke-width="2" stroke-miterlimit="10" stroke-linecap="round" stroke-linejoin="round"/>
<path d="M32.2559 21.7927L38.6589 1.80164" stroke="#139DD9" stroke-width="2" stroke-miterlimit="10" stroke-linecap="round" stroke-linejoin="round"/>
<path d="M45.0583 21.7927L38.6602 1.80164" stroke="#139DD9" stroke-width="2" stroke-miterlimit="10" stroke-linecap="round" stroke-linejoin="round"/>
<path d="M21.1662 6.85376L9.41406 10.2483" stroke="#139DD9" stroke-width="2" stroke-miterlimit="10" stroke-linecap="round" stroke-linejoin="round"/>
<path d="M38.6623 1.80164L27.3555 5.06749" stroke="#139DD9" stroke-width="2" stroke-miterlimit="10" stroke-linecap="round" stroke-linejoin="round"/>
<path d="M24.2598 2.74179V1" stroke="#139DD9" stroke-width="2" stroke-miterlimit="10" stroke-linecap="round" stroke-linejoin="round"/>
</svg>
