<svg width="53" height="48" viewBox="0 0 53 48" fill="none" xmlns="http://www.w3.org/2000/svg">
<path d="M25.9899 1C15.7945 1 7.53516 9.24143 7.53516 19.4147V31.5021" stroke="#139DD9" stroke-width="2" stroke-miterlimit="10" stroke-linecap="round" stroke-linejoin="round"/>
<path d="M4.26821 19.1666C2.47424 19.1666 1 20.62 1 22.4277V28.2765C1 30.0666 2.45648 31.5376 4.26821 31.5376H7.57193V19.1666H4.26821Z" stroke="#139DD9" stroke-width="2" stroke-miterlimit="10" stroke-linecap="round" stroke-linejoin="round"/>
<path d="M25.9922 1C36.1876 1 44.4469 9.24143 44.4469 19.4147V31.5021" stroke="#139DD9" stroke-width="2" stroke-miterlimit="10" stroke-linecap="round" stroke-linejoin="round"/>
<path d="M47.7334 19.1666C49.5274 19.1666 51.0016 20.62 51.0016 22.4277V28.2765C51.0016 30.0666 49.5451 31.5376 47.7334 31.5376H44.4297V19.1666H47.7334Z" stroke="#139DD9" stroke-width="2" stroke-miterlimit="10" stroke-linecap="round" stroke-linejoin="round"/>
<path d="M28.0166 41.7996H23.9846C23.3452 41.7996 22.8301 42.3135 22.8301 42.9516V44.9721C22.8301 45.6101 23.3452 46.1241 23.9846 46.1241H28.0166C28.656 46.1241 29.1711 45.6101 29.1711 44.9721V42.9516C29.1534 42.3135 28.656 41.7996 28.0166 41.7996Z" stroke="#139DD9" stroke-width="2" stroke-miterlimit="10" stroke-linecap="round" stroke-linejoin="round"/>
<path d="M29.1523 43.9618H37.1097C42.4028 43.9618 46.7012 39.6727 46.7012 34.3911V31.5199" stroke="#139DD9" stroke-width="2" stroke-miterlimit="10" stroke-linecap="round" stroke-linejoin="round"/>
<path d="M37.1091 22.8886C37.1091 16.7563 32.1357 11.7937 25.9901 11.7937C19.8445 11.7937 14.8711 16.7563 14.8711 22.8886C14.8711 28.0816 18.4413 32.4416 23.2725 33.6468L25.9901 37.7232L28.7077 33.6468C33.5389 32.4416 37.1091 28.0816 37.1091 22.8886Z" stroke="#139DD9" stroke-width="2" stroke-miterlimit="10" stroke-linecap="round" stroke-linejoin="round"/>
<path d="M31 23.1721C31 22.8885 31.2309 22.6581 31.5151 22.6581C31.7993 22.6581 32.0302 22.8885 32.0302 23.1721C32.0302 23.4556 31.7993 23.686 31.5151 23.686C31.2309 23.7038 31 23.4734 31 23.1721Z" stroke="#139DD9" stroke-width="2" stroke-miterlimit="10" stroke-linecap="round" stroke-linejoin="round"/>
<path d="M25.4766 23.1721C25.4766 22.8885 25.7075 22.6581 25.9917 22.6581C26.2759 22.6581 26.5068 22.8885 26.5068 23.1721C26.5068 23.4556 26.2759 23.686 25.9917 23.686C25.7075 23.7038 25.4766 23.4734 25.4766 23.1721Z" stroke="#139DD9" stroke-width="2" stroke-miterlimit="10" stroke-linecap="round" stroke-linejoin="round"/>
<path d="M19.9531 23.1721C19.9531 22.8885 20.184 22.6581 20.4682 22.6581C20.7524 22.6581 20.9833 22.8885 20.9833 23.1721C20.9833 23.4556 20.7524 23.686 20.4682 23.686C20.184 23.7038 19.9531 23.4734 19.9531 23.1721Z" stroke="#139DD9" stroke-width="2" stroke-miterlimit="10" stroke-linecap="round" stroke-linejoin="round"/>
</svg>
