<svg width="48" height="46" viewBox="0 0 48 46" fill="none" xmlns="http://www.w3.org/2000/svg">
<path d="M23.746 39.663H1.50977V41.8766C1.50977 43.6051 2.90617 45 4.63649 45H23.7612" stroke="#139DD9" stroke-width="2" stroke-miterlimit="10" stroke-linecap="round" stroke-linejoin="round"/>
<path d="M18.0842 13.0689H6.70045C5.07637 13.0689 3.75586 14.388 3.75586 16.0103V39.6781" stroke="#139DD9" stroke-width="2" stroke-miterlimit="10" stroke-linecap="round" stroke-linejoin="round"/>
<path d="M23.7925 39.663H46.0287V41.8766C46.0287 43.6051 44.6323 45 42.902 45H23.7773" stroke="#139DD9" stroke-width="2" stroke-miterlimit="10" stroke-linecap="round" stroke-linejoin="round"/>
<path d="M43.7656 21.969V39.663" stroke="#139DD9" stroke-width="2" stroke-miterlimit="10" stroke-linecap="round" stroke-linejoin="round"/>
<path d="M16.0316 19.7552C13.6182 19.7552 11.6602 21.7111 11.6602 24.1219V25.259C11.1745 25.5016 10.9013 26.0171 10.962 26.5478L10.9924 26.8662C11.0683 27.4878 11.4933 28.0185 12.1004 28.2308L12.2066 28.6553C12.4495 29.5953 13.1629 30.3534 14.0887 30.6264V32.1274H12.5254C10.6585 32.1274 9.14062 33.6436 9.14062 35.5237V37.237" stroke="#139DD9" stroke-width="2" stroke-miterlimit="10" stroke-linecap="round" stroke-linejoin="round"/>
<path d="M15.9844 19.7552C18.3977 19.7552 20.3557 21.7111 20.3557 24.1219V25.259C20.8414 25.5016 21.1146 26.0171 21.0539 26.5478L21.0084 26.851C20.9325 27.4727 20.5075 28.0033 19.9004 28.2156L19.7941 28.6401C19.5513 29.5802 18.8379 30.3383 17.912 30.6112V32.1122H19.4906C21.3575 32.1122 22.8905 33.6284 22.8905 35.5085V37.2218" stroke="#139DD9" stroke-width="2" stroke-miterlimit="10" stroke-linecap="round" stroke-linejoin="round"/>
<path d="M44.7079 1H22.9726C22.0923 1 21.3789 1.71261 21.3789 2.592V17.011C21.3789 17.8904 22.0923 18.603 22.9726 18.603H27.9359V25.1075L34.4474 18.603H44.7079C45.5883 18.603 46.3017 17.8904 46.3017 17.011V2.592C46.3017 1.71261 45.5883 1 44.7079 1Z" stroke="#139DD9" stroke-width="2" stroke-miterlimit="10" stroke-linecap="round" stroke-linejoin="round"/>
</svg>
