<svg width="46" height="45" viewBox="0 0 46 45" fill="none" xmlns="http://www.w3.org/2000/svg">
<path fill-rule="evenodd" clip-rule="evenodd" d="M30.859 25.4349C32.0305 26.4276 32.8049 27.063 33.4998 27.6388C38.7019 31.9673 41.2434 34.072 45.2939 38.9763C45.6315 39.3734 45.5918 39.9492 45.2344 40.3066L40.7868 44.7145C40.4095 45.0918 39.794 45.0918 39.4167 44.7344C34.5521 40.7037 32.4475 38.1622 28.119 32.9601C27.5432 32.2651 26.9078 31.5106 25.915 30.3193C24.7237 31.0937 23.4529 31.7092 22.0829 32.146C20.4746 32.6623 18.767 32.9601 16.98 32.9601C12.4331 32.9601 8.3032 31.1135 5.32488 28.1352C2.34656 25.1569 0.5 21.0269 0.5 16.48C0.5 11.9331 2.34656 7.8032 5.32488 4.82488C8.3032 1.84656 12.4331 0 16.98 0C21.5269 0 25.6569 1.84656 28.6352 4.82488C31.6135 7.8032 33.4601 11.9331 33.4601 16.48C33.4601 18.2472 33.1821 19.9746 32.646 21.5829C32.229 22.9529 31.6135 24.2435 30.859 25.4349ZM16.9999 3.73283C13.4656 3.73283 10.2887 5.16242 7.96566 7.46566C5.66242 9.76889 4.23283 12.9656 4.23283 16.4999C4.23283 20.0342 5.66242 23.211 7.96566 25.5341C10.2689 27.8374 13.4656 29.267 16.9999 29.267C20.5342 29.267 23.7111 27.8374 26.0341 25.5341C28.3374 23.2309 29.767 20.0342 29.767 16.4999C29.767 12.9656 28.3374 9.78875 26.0341 7.46566C23.7111 5.16242 20.5342 3.73283 16.9999 3.73283ZM24.6244 8.8754C22.6786 6.92956 19.9782 5.71838 16.9999 5.71838C14.0216 5.71838 11.3212 6.92956 9.3754 8.8754C7.42956 10.8212 6.21838 13.5216 6.21838 16.4999C6.21838 19.4782 7.42956 22.1786 9.3754 24.1244C11.3212 26.0702 14.0216 27.2814 16.9999 27.2814C19.9782 27.2814 22.6786 26.0702 24.6244 24.1244C26.5702 22.1786 27.7814 19.4782 27.7814 16.4999C27.7814 13.5216 26.5702 10.8212 24.6244 8.8754ZM32.229 29.1478L29.6677 27.0233L29.6478 27.0432C29.2309 27.5395 28.7543 28.0359 28.2579 28.5125C28.0197 28.7309 27.7814 28.9493 27.5233 29.1478L29.6478 31.6893C33.6785 36.5341 35.7435 39.016 40.0322 42.6496L43.1694 39.5124C39.5557 35.2435 37.0539 33.1586 32.229 29.1478ZM27.2453 6.25447C24.6244 3.63355 20.9908 2.0054 16.9999 2.0054C13.0089 2.0054 9.3754 3.63355 6.75448 6.25447C4.13355 8.8754 2.5054 12.5089 2.5054 16.4999C2.5054 20.4908 4.13355 24.1244 6.75448 26.7453C9.3754 29.3662 13.0089 30.9944 16.9999 30.9944C18.5685 30.9944 20.0775 30.7561 21.4872 30.2796C22.9565 29.8031 24.3266 29.1081 25.5378 28.2146C26.0143 27.8572 26.4908 27.48 26.9078 27.0829C27.3247 26.6858 27.7417 26.2489 28.1388 25.7923C28.2381 25.693 28.3374 25.554 28.4366 25.415C28.5558 25.276 28.6551 25.137 28.7345 25.0179C29.628 23.8067 30.3229 22.4367 30.7995 20.9674C31.2561 19.5576 31.5142 18.0486 31.5142 16.48C31.4944 12.4891 29.8662 8.8754 27.2453 6.25447Z" fill="#139DD9"/>
</svg>
