<svg width="51" height="47" viewBox="0 0 51 47" fill="none" xmlns="http://www.w3.org/2000/svg">
<path d="M15.8926 18.2362C15.8926 13.2634 20.1741 9.22766 25.4586 9.22766C30.7432 9.22766 35.0247 13.2598 35.0247 18.2362" stroke="#139DD9" stroke-width="1.5" stroke-miterlimit="10" stroke-linecap="round" stroke-linejoin="round"/>
<path d="M30.5078 18.2362H38.8298V20.9373V39.3839" stroke="#139DD9" stroke-width="1.5" stroke-miterlimit="10" stroke-linecap="round" stroke-linejoin="round"/>
<path d="M12.0879 39.3839V18.2362H20.4099" stroke="#139DD9" stroke-width="1.5" stroke-miterlimit="10" stroke-linecap="round" stroke-linejoin="round"/>
<path d="M9.13637 46.0001H1.59766V23.4788H12.0852V42.692" stroke="#139DD9" stroke-width="1.5" stroke-miterlimit="10" stroke-linecap="round" stroke-linejoin="round"/>
<path d="M38.8262 42.692V23.4788H49.3137V46.0001H41.775" stroke="#139DD9" stroke-width="1.5" stroke-miterlimit="10" stroke-linecap="round" stroke-linejoin="round"/>
<path d="M38.8296 39.3839H12.0879V42.692H38.8296V39.3839Z" stroke="#139DD9" stroke-width="1.5" stroke-miterlimit="10" stroke-linecap="round" stroke-linejoin="round"/>
<path d="M41.7781 42.6918H9.13867V45.9999H41.7781V42.6918Z" stroke="#139DD9" stroke-width="1.5" stroke-miterlimit="10" stroke-linecap="round" stroke-linejoin="round"/>
<path d="M38.8296 23.4788H12.0879L25.4605 15.0594L38.8296 23.4788Z" stroke="#139DD9" stroke-width="1.5" stroke-miterlimit="10" stroke-linecap="round" stroke-linejoin="round"/>
<path d="M15.3912 23.4786H12.0879V39.3838H15.3912V23.4786Z" stroke="#139DD9" stroke-width="1.5" stroke-miterlimit="10" stroke-linecap="round" stroke-linejoin="round"/>
<path d="M21.4088 23.4786H18.1055V39.3838H21.4088V23.4786Z" stroke="#139DD9" stroke-width="1.5" stroke-miterlimit="10" stroke-linecap="round" stroke-linejoin="round"/>
<path d="M32.8111 23.4786H29.5078V39.3838H32.8111V23.4786Z" stroke="#139DD9" stroke-width="1.5" stroke-miterlimit="10" stroke-linecap="round" stroke-linejoin="round"/>
<path d="M38.8306 23.4786H35.5273V39.3838H38.8306V23.4786Z" stroke="#139DD9" stroke-width="1.5" stroke-miterlimit="10" stroke-linecap="round" stroke-linejoin="round"/>
<path d="M12.0852 23.4788H1.59766V26.7869H12.0852V23.4788Z" stroke="#139DD9" stroke-width="1.5" stroke-miterlimit="10" stroke-linecap="round" stroke-linejoin="round"/>
<path d="M49.3157 23.4788H38.8281V26.7869H49.3157V23.4788Z" stroke="#139DD9" stroke-width="1.5" stroke-miterlimit="10" stroke-linecap="round" stroke-linejoin="round"/>
<path d="M25.459 9.23119V1" stroke="#139DD9" stroke-width="1.5" stroke-miterlimit="10" stroke-linecap="round" stroke-linejoin="round"/>
<path d="M31.2114 1H25.459V5.44392H31.2114V1Z" stroke="#139DD9" stroke-width="1.5" stroke-miterlimit="10" stroke-linecap="round" stroke-linejoin="round"/>
</svg>
