<svg width="34" height="45" viewBox="0 0 34 45" fill="none" xmlns="http://www.w3.org/2000/svg">
<path d="M14.9959 36.7479L12.0684 33.7397L13.1761 32.5609L14.9959 34.4308L20.4554 28.821L21.5631 29.9999L14.9959 36.7479Z" fill="#139DD9"/>
<path d="M30.4623 45H3.44184C1.54289 45 0 43.4146 0 41.4634V23.5772C0 21.626 1.54289 20.0406 3.44184 20.0406H30.4623C32.3612 20.0406 33.9041 21.626 33.9041 23.5772V41.4634C33.9041 43.4146 32.3612 45 30.4623 45ZM3.44184 21.626C2.41325 21.626 1.58246 22.4797 1.58246 23.5366V41.4228C1.58246 42.4797 2.41325 43.3333 3.44184 43.3333H30.4623C31.4909 43.3333 32.3217 42.4797 32.3217 41.4228V23.5366C32.3217 22.4797 31.4909 21.626 30.4623 21.626H3.44184Z" fill="#139DD9"/>
<path d="M30.7809 18.6585H29.1984V14.2276C29.1984 7.27642 23.6994 1.62602 16.9344 1.62602C10.1694 1.62602 4.67035 7.27642 4.67035 14.2276V18.6992H3.08789V14.2276C3.08789 6.38211 9.29903 0 16.9344 0C24.5697 0 30.7809 6.38211 30.7809 14.2276V18.6585Z" fill="#139DD9"/>
<path d="M26.8266 18.6587H25.2441V14.2278C25.2441 9.55299 21.5254 5.73185 16.9758 5.73185C12.4262 5.73185 8.70746 9.51234 8.70746 14.2278V18.6993H7.125V14.2278C7.125 8.65868 11.5559 4.10583 16.9758 4.10583C22.3957 4.10583 26.8266 8.61803 26.8266 14.2278V18.6587Z" fill="#139DD9"/>
</svg>
