<svg width="50" height="44" viewBox="0 0 50 44" fill="none" xmlns="http://www.w3.org/2000/svg">
<path fill-rule="evenodd" clip-rule="evenodd" d="M14.5646 26.8834H16.9795V13.7577C16.9795 13.1008 16.7042 12.5059 16.2788 12.0845C15.8408 11.6507 15.2402 11.3904 14.5896 11.3904H3.65365C2.99049 11.3904 2.38989 11.6631 1.95195 12.0845C1.52653 12.5183 1.25125 13.1132 1.25125 13.7577V26.871H3.66617V16.1251C3.66617 15.778 3.94144 15.5054 4.29179 15.5054C4.64214 15.5054 4.91742 15.778 4.91742 16.1251V42.7606H8.48348V31.5065C8.48348 31.1594 8.75876 30.8868 9.10911 30.8868C9.45946 30.8868 9.73473 31.1594 9.73473 31.5065V42.7606H13.3008V16.1251C13.3008 15.778 13.5761 15.5054 13.9264 15.5054C14.2768 15.5054 14.5521 15.778 14.5521 16.1251V26.8834H14.5646ZM9.12162 1.23944C8.15816 1.23944 7.29479 1.62366 6.65666 2.24338C6.03103 2.8631 5.64314 3.7307 5.64314 4.68507C5.64314 5.63944 6.03103 6.49465 6.65666 7.12676C7.28228 7.74648 8.15816 8.1307 9.12162 8.1307C10.0851 8.1307 10.9484 7.74648 11.5866 7.12676C12.2122 6.50704 12.6001 5.63944 12.6001 4.68507C12.6001 3.7307 12.2122 2.87549 11.5866 2.24338C10.9484 1.62366 10.0851 1.23944 9.12162 1.23944ZM5.76827 1.37577C6.63163 0.520563 7.80781 0 9.12162 0C10.4229 0 11.6116 0.520563 12.4625 1.37577C13.3133 2.21859 13.8513 3.39606 13.8513 4.68507C13.8513 5.97408 13.3258 7.15155 12.4625 7.99437C11.6116 8.83718 10.4229 9.37014 9.12162 9.37014C7.82032 9.37014 6.63163 8.84958 5.78078 7.99437C4.92993 7.13915 4.39189 5.98648 4.39189 4.68507C4.39189 3.39606 4.91742 2.21859 5.76827 1.37577ZM3.66617 28.1228H0.625626C0.275275 28.1228 0 27.8501 0 27.5031V13.7577C0 12.7662 0.412913 11.8614 1.07608 11.2045C1.73924 10.5476 2.65265 10.1386 3.65365 10.1386H14.5896C15.5906 10.1386 16.504 10.5476 17.1672 11.2045C17.8303 11.8614 18.2432 12.7662 18.2432 13.7577V27.4907C18.2432 27.8377 17.968 28.1104 17.6176 28.1104H14.5771V43.3803C14.5771 43.7273 14.3018 44 13.9514 44H4.29179C3.94144 44 3.66617 43.7273 3.66617 43.3803V28.1228Z" fill="#139DD9"/>
<path fill-rule="evenodd" clip-rule="evenodd" d="M39.0879 2.25574H45.5819C46.1325 2.25574 46.633 2.47884 46.9958 2.83827C47.3587 3.19771 47.5839 3.69348 47.5839 4.23884V10.6715C47.5839 11.2169 47.3587 11.7126 46.9958 12.0721L46.9583 12.1093C46.5954 12.4439 46.12 12.6546 45.5819 12.6546H39.0879C38.5374 12.6546 38.0369 12.4315 37.674 12.0721C37.3112 11.7126 37.0859 11.2169 37.0859 10.6715V4.23884C37.0859 3.69348 37.3112 3.19771 37.674 2.83827L37.7116 2.80109C38.0744 2.46644 38.5624 2.25574 39.0879 2.25574ZM45.5819 3.49517H39.0879C38.8877 3.49517 38.7126 3.56954 38.5874 3.69348L38.5624 3.71827C38.4248 3.85461 38.3372 4.04053 38.3372 4.23884V10.6715C38.3372 10.8698 38.4248 11.0557 38.5624 11.1921C38.7001 11.3284 38.8877 11.4028 39.0879 11.4028H45.5819C45.7821 11.4028 45.9573 11.3284 46.0824 11.2045L46.1075 11.1797C46.2451 11.0433 46.3327 10.8574 46.3327 10.6591V4.23884C46.3327 4.04053 46.2451 3.85461 46.1075 3.71827C45.9698 3.58193 45.7821 3.49517 45.5819 3.49517Z" fill="#139DD9"/>
<path fill-rule="evenodd" clip-rule="evenodd" d="M40.6783 7.43662C40.453 7.18873 40.4655 6.79211 40.7283 6.55662C40.9786 6.33352 41.379 6.34591 41.6167 6.60619L43.6437 8.83718L48.924 3.59436C49.1742 3.34648 49.5621 3.34648 49.8124 3.59436C50.0626 3.84225 50.0626 4.22648 49.8124 4.47436L44.0566 10.1758L44.0316 10.2006C43.7814 10.4237 43.381 10.4113 43.1432 10.151L40.6783 7.43662Z" fill="#139DD9"/>
<path fill-rule="evenodd" clip-rule="evenodd" d="M34.1355 35.9313C34.4859 35.9313 34.7612 36.204 34.7612 36.551C34.7612 36.8981 34.4859 37.1708 34.1355 37.1708H26.9909C26.6405 37.1708 26.3653 36.8981 26.3653 36.551V22.6198H20.7096C20.3593 22.6198 20.084 22.3471 20.084 22.0001C20.084 21.653 20.3593 21.3803 20.7096 21.3803H26.3653V7.44906C26.3653 7.10202 26.6405 6.82935 26.9909 6.82935H34.1355C34.4859 6.82935 34.7612 7.10202 34.7612 7.44906C34.7612 7.79611 34.4859 8.06878 34.1355 8.06878H27.6165V21.3803H34.1355C34.4859 21.3803 34.7612 21.653 34.7612 22.0001C34.7612 22.3471 34.4859 22.6198 34.1355 22.6198H27.6165V35.9313H34.1355Z" fill="#139DD9"/>
<path fill-rule="evenodd" clip-rule="evenodd" d="M39.0879 16.8068H45.5819C46.1325 16.8068 46.633 17.0299 46.9958 17.3893C47.3587 17.7487 47.5839 18.2445 47.5839 18.7899V25.2225C47.5839 25.7679 47.3587 26.2637 46.9958 26.6231C46.633 26.9825 46.1325 27.2056 45.5819 27.2056H39.0879C38.5374 27.2056 38.0369 26.9825 37.674 26.6231C37.3112 26.2637 37.0859 25.7679 37.0859 25.2225V18.7899C37.0859 18.2445 37.3112 17.7487 37.674 17.3893C38.0369 17.0299 38.5374 16.8068 39.0879 16.8068ZM45.5819 18.0462H39.0879C38.8752 18.0462 38.6875 18.133 38.5624 18.2569C38.4248 18.3932 38.3497 18.5792 38.3497 18.7775V25.2101C38.3497 25.4208 38.4373 25.6068 38.5624 25.7307C38.7001 25.867 38.8877 25.9414 39.0879 25.9414H45.5819C45.7946 25.9414 45.9823 25.8547 46.1075 25.7307C46.2451 25.5944 46.3202 25.4085 46.3202 25.2101V18.7775C46.3202 18.5668 46.2326 18.3808 46.1075 18.2569C45.9698 18.133 45.7821 18.0462 45.5819 18.0462Z" fill="#139DD9"/>
<path fill-rule="evenodd" clip-rule="evenodd" d="M40.6783 21.9876C40.453 21.7398 40.4655 21.3431 40.7283 21.1076C40.9786 20.8845 41.379 20.8969 41.6167 21.1572L43.6437 23.3882L48.9365 18.1454C49.1868 17.8975 49.5747 17.8975 49.8249 18.1454C50.0752 18.3933 50.0752 18.7775 49.8249 19.0254L44.0691 24.7268L44.0441 24.7516C43.7939 24.9747 43.3935 24.9623 43.1557 24.702L40.6783 21.9876Z" fill="#139DD9"/>
<path fill-rule="evenodd" clip-rule="evenodd" d="M39.0879 31.3578H45.5819C46.1325 31.3578 46.633 31.5809 46.9958 31.9403C47.3587 32.2998 47.5839 32.7955 47.5839 33.3409V39.7736C47.5839 40.3189 47.3587 40.8147 46.9958 41.1741L46.9583 41.2113C46.5954 41.546 46.12 41.7567 45.5819 41.7567H39.0879C38.5374 41.7567 38.0369 41.5336 37.674 41.1741C37.3112 40.8147 37.0859 40.3189 37.0859 39.7736V33.3409C37.0859 32.7955 37.3112 32.2998 37.674 31.9403L37.7116 31.9031C38.0744 31.5561 38.5624 31.3578 39.0879 31.3578ZM45.5819 32.5972H39.0879C38.8877 32.5972 38.7126 32.6716 38.5874 32.7955L38.5624 32.8203C38.4248 32.9567 38.3372 33.1426 38.3372 33.3409V39.7736C38.3372 39.9719 38.4248 40.1578 38.5624 40.2941C38.7001 40.4305 38.8877 40.5048 39.0879 40.5048H45.5819C45.7821 40.5048 45.9573 40.4305 46.0824 40.3065L46.1075 40.2817C46.2451 40.1454 46.3327 39.9595 46.3327 39.7612V33.3285C46.3327 33.1302 46.2451 32.9443 46.1075 32.8079C45.9698 32.6716 45.7821 32.5972 45.5819 32.5972Z" fill="#139DD9"/>
<path fill-rule="evenodd" clip-rule="evenodd" d="M40.6783 36.5387C40.453 36.2908 40.4655 35.8942 40.7283 35.6587C40.9786 35.4356 41.379 35.448 41.6167 35.7082L43.6437 37.9392L48.9365 32.6964C49.1868 32.4485 49.5747 32.4485 49.8249 32.6964C50.0752 32.9443 50.0752 33.3285 49.8249 33.5764L44.0691 39.2778L44.0441 39.3026C43.7939 39.5257 43.3935 39.5133 43.1557 39.253L40.6783 36.5387Z" fill="#139DD9"/>
</svg>
