<svg width="179" height="100" viewBox="0 0 179 100" fill="none" xmlns="http://www.w3.org/2000/svg">
<path d="M48.9567 75.4752C34.8971 75.4752 23.4583 64.0468 23.4583 49.9991C23.4583 35.9523 34.8971 24.5239 48.9567 24.5239C63.0172 24.5239 74.456 35.9523 74.456 49.9991C74.4552 64.0468 63.0164 75.4752 48.9567 75.4752ZM48.9567 27.3848C36.4759 27.3848 26.3209 37.5297 26.3209 49.9991C26.3209 62.4686 36.4751 72.6143 48.9567 72.6143C61.4383 72.6143 71.5925 62.4686 71.5925 49.9991C71.5925 37.5297 61.4383 27.3848 48.9567 27.3848Z" fill="#139DD9"/>
<path d="M48.9567 83.4904C30.4729 83.4904 15.4357 68.4669 15.4357 49.9992C15.4357 31.5331 30.4729 16.5088 48.9567 16.5088V19.3697C32.0518 19.3697 18.2991 33.1098 18.2991 49.9992C18.2991 66.8886 32.0526 80.6295 48.9567 80.6295V83.4904Z" fill="#139DD9"/>
<path d="M48.9567 91.5056C26.0497 91.5056 7.41321 72.8861 7.41321 50C7.41321 27.1139 26.0497 8.49438 48.9567 8.49438V11.3553C27.6286 11.3553 10.2767 28.6905 10.2767 50C10.2767 71.3095 27.6286 88.6455 48.9567 88.6455V91.5056Z" fill="#139DD9"/>
<path d="M48.9567 32.5392C39.3203 32.5392 31.4807 40.3716 31.4807 50C31.4807 59.6284 39.3203 67.4608 48.9567 67.4608C58.5931 67.4608 66.4326 59.6276 66.4326 49.9992C66.4326 40.3708 58.5931 32.5392 48.9567 32.5392ZM34.3434 49.9992C34.3434 42.4322 40.1372 36.1931 47.5249 35.4716V64.5269C40.1372 63.8053 34.3434 57.567 34.3434 49.9992ZM50.3884 64.5269V35.4724C57.7762 36.1939 63.57 42.4322 63.57 50C63.57 57.5678 57.7762 63.8053 50.3884 64.5269Z" fill="#139DD9"/>
<path d="M112.223 55.5436V57.1187H117.011V67.4568H118.756V57.1187H123.545V55.5428L112.223 55.5436Z" fill="white"/>
<path d="M114.915 32.5177L106.856 41.8545V32.5177H105.14V44.4316H106.574L114.635 35.0909V44.4316H116.352V32.5177H114.915Z" fill="white"/>
<path d="M151.837 38.303L159.09 32.5177H156.69L150.49 37.436V32.5177H148.774V44.4316H150.49V39.201L156.917 44.4316H159.334L151.837 38.303Z" fill="white"/>
<path d="M143.293 32.5177L135.234 41.8545V32.5177H133.518V44.4316H134.952L143.013 35.0909V44.4316H144.73V32.5177H143.293Z" fill="white"/>
<path d="M136.223 55.5437L128.163 64.8805V55.5437H126.447V67.4568H127.881L135.943 58.1161V67.4568H137.659V55.5437H136.223Z" fill="white"/>
<path d="M91.3975 56.6705C92.7036 56.6705 93.981 57.1084 95.194 57.9722L95.5766 58.244V56.5076L95.4827 56.4345C94.3644 55.5643 92.9613 55.1233 91.3124 55.1233C89.4074 55.1233 87.8285 55.7209 86.6203 56.8986C85.4104 58.0771 84.7964 59.5862 84.7964 61.3814C84.7964 63.1766 85.4096 64.6849 86.6203 65.8635C87.8285 67.0412 89.4074 67.6388 91.3124 67.6388C92.9613 67.6388 94.3644 67.1977 95.4827 66.3276L95.5766 66.2544V64.5204L95.194 64.7922C93.981 65.6552 92.7028 66.0931 91.3975 66.0931C89.9753 66.0931 88.7933 65.6449 87.8826 64.762C86.9742 63.8815 86.5137 62.7435 86.5137 61.3822C86.5137 60.0201 86.9742 58.8822 87.8834 58.0016C88.7933 57.1187 89.9761 56.6705 91.3975 56.6705Z" fill="white"/>
<path d="M109.01 57.0591C107.95 55.7757 106.469 55.1249 104.608 55.1249C102.793 55.1249 101.292 55.7241 100.149 56.905C99.0064 58.0843 98.4274 59.591 98.4274 61.383C98.4274 63.2323 99.0271 64.7541 100.21 65.9072C101.389 67.0571 102.954 67.6412 104.861 67.6412C106.589 67.6412 108.015 67.1969 109.099 66.322L109.189 66.2489V64.5149L108.807 64.7875C107.59 65.6545 106.3 66.0939 104.972 66.0939C103.568 66.0939 102.408 65.6735 101.524 64.8447C100.697 64.0667 100.245 63.0217 100.18 61.7359H110.164L110.196 61.5324C110.468 59.8453 110.069 58.3402 109.01 57.0591ZM101.568 57.737C102.349 56.9924 103.371 56.6149 104.608 56.6149C105.802 56.6149 106.754 56.994 107.516 57.7736C108.216 58.4888 108.578 59.386 108.597 60.4405H100.255C100.401 59.3391 100.841 58.4308 101.568 57.737Z" fill="white"/>
<path d="M170.536 33.5849C169.661 32.6726 168.373 32.2101 166.706 32.2101C165.029 32.2101 163.623 32.6321 162.526 33.4641L162.431 33.5364V35.2354L162.809 34.9788C164.03 34.1491 165.285 33.7287 166.538 33.7287C167.734 33.7287 168.641 34.0379 169.235 34.649C169.831 35.2609 170.132 36.1327 170.132 37.2373V38.4714C169.684 38.148 169.131 37.8428 168.482 37.5615C167.614 37.1864 166.677 36.9957 165.696 36.9957C164.355 36.9957 163.261 37.3501 162.444 38.047C161.616 38.7535 161.197 39.696 161.197 40.8475C161.197 41.999 161.616 42.9447 162.443 43.6607C163.259 44.368 164.345 44.7272 165.669 44.7272C166.651 44.7272 167.595 44.5261 168.471 44.1312C169.146 43.8284 169.727 43.4875 170.207 43.1163L170.254 44.4315H171.849V37.3207C171.849 35.7528 171.407 34.4964 170.536 33.5849ZM170.106 40.0203V41.5627C169.765 41.91 169.199 42.2732 168.423 42.6443C167.601 43.0361 166.75 43.2355 165.894 43.2355C164.951 43.2355 164.209 43.0011 163.688 42.5402C163.168 42.0809 162.915 41.5087 162.915 40.7911C162.915 40.0743 163.172 39.5021 163.7 39.042C164.231 38.5803 164.969 38.3458 165.894 38.3458C166.751 38.3458 167.601 38.5453 168.423 38.9379C169.197 39.309 169.764 39.6722 170.106 40.0203Z" fill="white"/>
<path d="M128.96 39.0682C128.658 38.6518 128.267 38.3228 127.795 38.082C128.637 37.5575 129.063 36.7199 129.063 35.5859C129.063 34.5735 128.608 33.7438 127.713 33.1208C126.846 32.516 125.805 32.2101 124.619 32.2101C123.029 32.2101 121.654 32.6575 120.533 33.5404L120.44 33.6135V35.2577L120.82 34.9939C122.058 34.1356 123.289 33.7009 124.479 33.7009C125.267 33.7009 125.956 33.894 126.53 34.2763C127.08 34.6418 127.347 35.1067 127.347 35.6988C127.347 36.9281 126.649 37.4995 125.152 37.4995H122.349V38.8227H125.264C126.029 38.8227 126.664 39.0046 127.151 39.3638C127.622 39.7095 127.851 40.2404 127.851 40.9874C127.851 41.7082 127.558 42.2462 126.955 42.6308C126.326 43.0329 125.521 43.2371 124.564 43.2371C123.291 43.2371 122.03 42.8239 120.818 42.0101L120.441 41.7574V43.4016L120.538 43.4747C121.651 44.306 123.052 44.7288 124.705 44.7288C126.036 44.7288 127.184 44.4133 128.116 43.7926C129.079 43.1505 129.568 42.2358 129.568 41.0732C129.567 40.2944 129.363 39.6205 128.96 39.0682Z" fill="white"/>
<path d="M99.273 34.0172C98.0926 32.818 96.583 32.2109 94.7869 32.2109H93.7974V28.5609H92.0523V32.2109H91.0899C89.2755 32.2109 87.7571 32.8141 86.5767 34.0029C85.3963 35.1934 84.7974 36.6953 84.7974 38.469C84.7974 40.2428 85.3955 41.7447 86.5767 42.9344C87.7579 44.124 89.2763 44.7272 91.0899 44.7272H92.0523V48.3764H93.7974V44.7272H94.7869C96.5822 44.7272 98.0919 44.1193 99.273 42.9209C100.453 41.7217 101.051 40.2237 101.051 38.469C101.052 36.712 100.453 35.2148 99.273 34.0172ZM92.0801 33.7566V43.1799H91.0899C89.7822 43.1799 88.6869 42.7294 87.8334 41.8409C86.9768 40.9501 86.5425 39.816 86.5425 38.469C86.5425 37.1213 86.9768 35.9865 87.8334 35.0964C88.6877 34.2072 89.783 33.7574 91.0899 33.7574H92.0801V33.7566ZM99.3343 38.4683C99.3343 39.8152 98.9 40.9501 98.0441 41.8401C97.1779 42.7413 96.1121 43.1791 94.7869 43.1791H93.7974V33.7566H94.7869C96.093 33.7566 97.1891 34.2071 98.0441 35.0956C98.9008 35.9864 99.3343 37.1205 99.3343 38.4683Z" fill="white"/>
</svg>
