<svg width="50" height="36" viewBox="0 0 50 36" fill="none" xmlns="http://www.w3.org/2000/svg">
<path d="M29.8004 18.07L21.4004 22.87V13.27L29.8004 18.07Z" fill="white" stroke="white" stroke-width="1.5" stroke-linecap="round" stroke-linejoin="round"/>
<path d="M1 19.768V16.3718C1 9.42295 1 5.94856 3.17318 3.71303C5.34638 1.47751 8.76775 1.38074 15.6105 1.1872C18.853 1.0955 22.1651 1.02979 25 1.02979C27.8349 1.02979 31.1471 1.0955 34.3895 1.1872C41.2322 1.38074 44.6536 1.47751 46.8268 3.71303C49 5.94856 49 9.42295 49 16.3718V19.768C49 26.7167 49 30.1912 46.8268 32.4266C44.6536 34.6622 41.2324 34.7589 34.3898 34.9526C31.1471 35.0443 27.8349 35.11 25 35.11C22.1651 35.11 18.8528 35.0443 15.6102 34.9526C8.76762 34.7589 5.34633 34.6622 3.17315 32.4266C1 30.1912 1 26.7167 1 19.768Z" stroke="white" stroke-width="1.5"/>
</svg>
