<svg width="165" height="62" viewBox="0 0 165 62" fill="none" xmlns="http://www.w3.org/2000/svg">
<path d="M31.0616 49.7632C20.5117 49.7632 11.931 41.2558 11.931 30.7961C11.931 20.3363 20.5117 11.8289 31.0616 11.8289C41.6115 11.8289 50.1923 20.3363 50.1923 30.7961C50.1923 41.2558 41.6115 49.7632 31.0616 49.7632ZM31.0616 13.9647C21.6992 13.9647 14.0791 21.5196 14.0791 30.802C14.0791 40.0844 21.6992 47.6393 31.0616 47.6393C40.4241 47.6393 48.0441 40.0844 48.0441 30.802C48.0441 21.5196 40.4241 13.9647 31.0616 13.9647Z" fill="#FAF5FF"/>
<path d="M31.2673 56.2895C17.4269 56.2895 6.17118 45.0325 6.17118 31.2039C6.17118 17.3754 17.4269 6.11842 31.2673 6.11842V8.26146C18.6121 8.26146 8.31514 18.554 8.31514 31.2039C8.31514 43.8539 18.6121 54.1464 31.2673 54.1464V56.2895Z" fill="#FAF5FF"/>
<path d="M31.2673 62C14.0263 62 0 48.0936 0 31C0 13.9064 14.0263 0 31.2673 0V2.1367C15.2116 2.1367 2.15513 15.0816 2.15513 31C2.15513 46.9184 15.2116 59.8633 31.2673 59.8633V62Z" fill="#FAF5FF"/>
<path d="M31.2673 17.9474C24.0046 17.9474 18.1021 23.8053 18.1021 31C18.1021 38.1947 24.0106 44.0526 31.2673 44.0526C38.5241 44.0526 44.4325 38.1947 44.4325 31C44.4325 23.8053 38.5241 17.9474 31.2673 17.9474ZM20.2594 31C20.2594 25.3441 24.6218 20.6803 30.1887 20.1396V41.8604C24.6218 41.3197 20.2594 36.6559 20.2594 31ZM32.346 41.8604V20.1396C37.9129 20.6803 42.2753 25.3441 42.2753 31C42.2753 36.6559 37.9129 41.3197 32.346 41.8604Z" fill="#FAF5FF"/>
<path d="M62.3554 33.5754V28.3182C62.3554 28.0689 62.239 27.9589 62.0061 27.9882L60.5869 28.0982C60.0483 28.0249 59.5389 27.8269 59.0586 27.5043C58.5782 27.1817 58.1779 26.7638 57.8577 26.2505C57.5375 25.7372 57.3337 25.158 57.2464 24.5128C57.2027 24.1461 57.1663 23.8089 57.1372 23.5009C57.1227 23.1783 57.1154 22.863 57.1154 22.555C57.1154 22.2471 57.1227 21.9391 57.1372 21.6312C57.1663 21.3086 57.2027 20.9639 57.2464 20.5973C57.3046 19.9521 57.4938 19.3728 57.8141 18.8596C58.1488 18.3463 58.5564 17.9284 59.0367 17.6058C59.5316 17.2685 60.0483 17.0705 60.5869 17.0119L62.0061 17.1218C62.239 17.1512 62.3554 17.0412 62.3554 16.7919V11.5347H63.9711V16.7919C63.9711 17.0412 64.0875 17.1512 64.3204 17.1218L65.7396 17.0119C66.2781 17.0705 66.7876 17.2685 67.2679 17.6058C67.7483 17.9284 68.1485 18.3463 68.4688 18.8596C68.8035 19.3728 69.0073 19.9521 69.0801 20.5973C69.1238 20.9639 69.1529 21.3086 69.1674 21.6312C69.1965 21.9391 69.2111 22.2471 69.2111 22.555C69.2111 22.863 69.1965 23.1783 69.1674 23.5009C69.1529 23.8089 69.1238 24.1461 69.0801 24.5128C69.0073 25.158 68.8035 25.7372 68.4688 26.2505C68.1485 26.7638 67.7483 27.1817 67.2679 27.5043C66.7876 27.8269 66.2781 28.0249 65.7396 28.0982L64.3204 27.9882C64.0875 27.9589 63.9711 28.0689 63.9711 28.3182V33.5754H62.3554ZM62.3554 26.8664V18.2437C61.2346 18.2437 60.405 18.493 59.8664 18.9916C59.3278 19.4902 59.0222 20.0621 58.9494 20.7073C58.9203 21.0446 58.8912 21.3672 58.8621 21.6752C58.8475 21.9831 58.8402 22.2837 58.8402 22.577C58.8402 23.1343 58.8839 23.7429 58.9712 24.4028C59.0731 25.048 59.3788 25.6199 59.8882 26.1185C60.4122 26.6171 61.2346 26.8664 62.3554 26.8664ZM63.9711 26.8664C65.0919 26.8664 65.907 26.6171 66.4164 26.1185C66.9404 25.6199 67.2534 25.048 67.3553 24.4028C67.4135 24.0655 67.4499 23.7502 67.4644 23.4569C67.4935 23.149 67.5081 22.8557 67.5081 22.577C67.5081 22.0051 67.4644 21.3819 67.3771 20.7073C67.3043 20.0621 66.9986 19.4902 66.4601 18.9916C65.9215 18.493 65.0919 18.2437 63.9711 18.2437V26.8664Z" fill="#FAF5FF"/>
<path d="M71.8325 28.0322V17.0339H73.5791V23.7429L73.339 25.2167C73.3244 25.3193 73.3535 25.3926 73.4263 25.4366C73.4991 25.4659 73.5646 25.4293 73.6228 25.3266L78.4917 17.0339H80.1292V28.0322H78.3825V21.3452L78.6008 19.9154C78.6299 19.7981 78.6081 19.7248 78.5353 19.6955C78.4626 19.6515 78.3825 19.7028 78.2952 19.8494L73.4918 28.0322H71.8325Z" fill="#FAF5FF"/>
<path d="M85.9108 28.1862C85.1248 28.1862 84.4188 28.0982 83.7929 27.9223C83.167 27.7316 82.563 27.4163 81.9807 26.9764L82.5702 25.5466C82.8614 25.7812 83.1743 25.9792 83.5091 26.1405C83.8584 26.3018 84.215 26.4191 84.5789 26.4925C84.9574 26.5658 85.3358 26.6024 85.7143 26.6024C86.6458 26.6024 87.3226 26.4485 87.7448 26.1405C88.1814 25.8179 88.3998 25.3853 88.3998 24.8427C88.3998 24.3441 88.2178 23.9408 87.8539 23.6329C87.49 23.3103 86.9515 23.149 86.2383 23.149H84.3824V21.6312H86.2383C86.8496 21.6312 87.3154 21.4845 87.6356 21.1912C87.9558 20.898 88.1159 20.4873 88.1159 19.9594C88.1159 19.4608 87.9049 19.0649 87.4828 18.7716C87.0752 18.4783 86.493 18.3317 85.7361 18.3317C85.2703 18.3317 84.7754 18.3903 84.2514 18.5076C83.7274 18.625 83.2616 18.8156 82.8541 19.0796L82.3082 17.6718C82.8614 17.3345 83.4217 17.0998 83.9894 16.9679C84.5571 16.8359 85.1684 16.7699 85.8234 16.7699C86.2601 16.7699 86.7113 16.8286 87.1771 16.9459C87.6429 17.0485 88.0723 17.2245 88.4653 17.4738C88.8728 17.7084 89.2003 18.031 89.4478 18.4416C89.6952 18.8376 89.8189 19.3289 89.8189 19.9154C89.8189 20.59 89.637 21.1326 89.2731 21.5432C88.9238 21.9538 88.5162 22.2324 88.0504 22.3791C88.3852 22.4671 88.7054 22.6137 89.0111 22.819C89.3313 23.0243 89.5933 23.2956 89.7971 23.6329C90.0154 23.9702 90.1246 24.3954 90.1246 24.9087C90.1246 25.7006 89.9136 26.3385 89.4914 26.8224C89.0839 27.3063 88.5526 27.6583 87.8976 27.8783C87.2572 28.0836 86.5949 28.1862 85.9108 28.1862Z" fill="#FAF5FF"/>
<path d="M92.7499 28.0322V17.0339H94.4966V23.7429L94.2564 25.2167C94.2419 25.3193 94.271 25.3926 94.3437 25.4366C94.4165 25.4659 94.482 25.4293 94.5402 25.3266L99.4091 17.0339H101.047V28.0322H99.2999V21.3452L99.5183 19.9154C99.5474 19.7981 99.5255 19.7248 99.4528 19.6955C99.38 19.6515 99.2999 19.7028 99.2126 19.8494L94.4092 28.0322H92.7499Z" fill="#FAF5FF"/>
<path d="M104.317 28.0322V17.0339H106.108V21.6532H107.614L110.387 17.0339H112.243L108.902 22.731L108.662 21.6312L112.439 28.0322H110.474L107.571 23.1929H106.108V28.0322H104.317Z" fill="#FAF5FF"/>
<path d="M120.595 28.2962L119.875 27.2184C119.787 27.0864 119.685 27.0717 119.569 27.1744C119.22 27.4823 118.848 27.7463 118.455 27.9662C118.077 28.1715 117.567 28.2742 116.927 28.2742C115.894 28.2742 115.071 27.9882 114.46 27.4163C113.848 26.8444 113.543 26.0965 113.543 25.1727C113.543 24.5128 113.681 23.9555 113.958 23.5009C114.249 23.0463 114.656 22.7017 115.18 22.4671C115.704 22.2178 116.316 22.0931 117.014 22.0931H119.569V20.5093C119.569 19.8788 119.387 19.3728 119.023 18.9916C118.659 18.6103 118.084 18.4197 117.298 18.4197C116.73 18.4197 116.221 18.5076 115.77 18.6836C115.319 18.8449 114.86 19.1089 114.394 19.4755L113.848 17.9357C114.402 17.5105 114.962 17.2098 115.53 17.0339C116.097 16.8579 116.723 16.7699 117.407 16.7699C118.703 16.7699 119.663 17.1072 120.289 17.7817C120.93 18.4563 121.25 19.2995 121.25 20.3114V25.9205L122.189 27.3283L120.595 28.2962ZM117.014 26.7564C117.8 26.7564 118.419 26.5658 118.87 26.1845C119.336 25.8032 119.569 25.2973 119.569 24.6667V23.6769C119.569 23.3983 119.438 23.2956 119.176 23.3689L117.975 23.6329H117.145C116.563 23.6329 116.105 23.7649 115.77 24.0288C115.45 24.2781 115.289 24.6374 115.289 25.1067C115.289 25.5906 115.442 25.9865 115.748 26.2945C116.068 26.6024 116.49 26.7564 117.014 26.7564Z" fill="#FAF5FF"/>
<path d="M61.4821 46.3735C60.2157 46.3735 59.226 46.0142 58.5127 45.2957C57.7995 44.5624 57.3774 43.6459 57.2464 42.5461C57.1591 41.8128 57.1154 41.1603 57.1154 40.5884C57.1154 40.2804 57.1227 39.9724 57.1372 39.6645C57.1663 39.3419 57.2027 38.9973 57.2464 38.6306C57.3774 37.5308 57.7995 36.6216 58.5127 35.903C59.226 35.1698 60.2157 34.8032 61.4821 34.8032C62.1225 34.8032 62.6756 34.8839 63.1414 35.0452C63.6072 35.2065 64.0802 35.4484 64.5606 35.7711L64.0366 37.2009C63.629 36.9369 63.2287 36.7389 62.8357 36.6069C62.4427 36.4603 61.9988 36.387 61.5039 36.387C60.7033 36.387 60.0775 36.6216 59.6262 37.0909C59.1896 37.5455 58.9494 38.0954 58.9057 38.7406C58.8621 39.4299 58.8329 40.0531 58.8184 40.6104C58.8184 41.1529 58.8475 41.7615 58.9057 42.4361C58.9639 43.0667 59.2114 43.6166 59.6481 44.0858C60.0847 44.5551 60.7033 44.7897 61.5039 44.7897C61.9842 44.7897 62.4427 44.7237 62.8794 44.5918C63.3306 44.4598 63.76 44.2618 64.1676 43.9979L64.6697 45.3177C64.1166 45.6843 63.5926 45.9482 63.0977 46.1095C62.6174 46.2855 62.0788 46.3735 61.4821 46.3735Z" fill="#FAF5FF"/>
<path d="M70.4503 46.2855C69.5624 46.2855 68.8128 46.1242 68.2015 45.8016C67.5901 45.4643 67.1098 45.0097 66.7605 44.4378C66.4257 43.8659 66.2146 43.2206 66.1273 42.5021C66.0836 42.1501 66.0472 41.8202 66.0181 41.5122C66.0036 41.2043 65.9963 40.8963 65.9963 40.5884C65.9963 40.0018 66.04 39.3492 66.1273 38.6306C66.2437 37.5455 66.6513 36.6436 67.35 35.925C68.0632 35.2065 69.0311 34.8472 70.2538 34.8472C71.1417 34.8472 71.8549 35.0085 72.3935 35.3311C72.932 35.6537 73.3396 36.0717 73.6162 36.5849C73.8927 37.0982 74.0747 37.6408 74.162 38.2127C74.2639 38.7846 74.3148 39.3125 74.3148 39.7965L73.8782 40.9623L67.2845 40.9403V39.4225H72.6555C72.6555 38.9239 72.59 38.4473 72.459 37.9927C72.3425 37.5235 72.1097 37.1422 71.7603 36.8489C71.411 36.541 70.9088 36.387 70.2538 36.387C69.4824 36.387 68.8856 36.6289 68.4635 37.1129C68.0414 37.5821 67.8012 38.1247 67.743 38.7406C67.7139 39.1072 67.6847 39.6132 67.6556 40.2584C67.6411 40.889 67.6775 41.6075 67.7648 42.4141C67.8376 43.0447 68.0777 43.6019 68.4853 44.0858C68.9074 44.5551 69.5624 44.7897 70.4503 44.7897C71.0034 44.7897 71.5274 44.7017 72.0223 44.5258C72.5318 44.3498 72.9903 44.1005 73.3978 43.7779L73.9218 45.1197C73.325 45.545 72.7792 45.8456 72.2843 46.0216C71.7894 46.1975 71.1781 46.2855 70.4503 46.2855Z" fill="#FAF5FF"/>
<path d="M78.4613 46.0655V36.6069H75.099V35.0672H83.5703V36.6069H80.208V46.0655H78.4613Z" fill="#FAF5FF"/>
<path d="M85.6498 46.0655V35.0672H87.3965V41.7762L87.1563 43.25C87.1417 43.3526 87.1708 43.4259 87.2436 43.4699C87.3164 43.4993 87.3819 43.4626 87.4401 43.36L92.309 35.0672H93.9465V46.0655H92.1998V39.3785L92.4181 37.9487C92.4473 37.8314 92.4254 37.7581 92.3526 37.7288C92.2799 37.6848 92.1998 37.7361 92.1125 37.8828L87.3091 46.0655H85.6498Z" fill="#FAF5FF"/>
<path d="M106.164 46.3735C104.897 46.3735 103.908 46.0142 103.194 45.2957C102.481 44.5624 102.059 43.6459 101.928 42.5461C101.841 41.8128 101.797 41.1603 101.797 40.5884C101.797 40.2804 101.804 39.9724 101.819 39.6645C101.848 39.3419 101.884 38.9973 101.928 38.6306C102.059 37.5308 102.481 36.6216 103.194 35.903C103.908 35.1698 104.897 34.8032 106.164 34.8032C106.804 34.8032 107.357 34.8839 107.823 35.0452C108.289 35.2065 108.762 35.4484 109.242 35.7711L108.718 37.2009C108.311 36.9369 107.91 36.7389 107.517 36.6069C107.124 36.4603 106.681 36.387 106.186 36.387C105.385 36.387 104.759 36.6216 104.308 37.0909C103.871 37.5455 103.631 38.0954 103.587 38.7406C103.544 39.4299 103.515 40.0531 103.5 40.6104C103.5 41.1529 103.529 41.7615 103.587 42.4361C103.646 43.0667 103.893 43.6166 104.33 44.0858C104.766 44.5551 105.385 44.7897 106.186 44.7897C106.666 44.7897 107.124 44.7237 107.561 44.5918C108.012 44.4598 108.442 44.2618 108.849 43.9979L109.351 45.3177C108.798 45.6843 108.274 45.9482 107.779 46.1095C107.299 46.2855 106.761 46.3735 106.164 46.3735Z" fill="#FAF5FF"/>
<path d="M115.132 46.2855C114.244 46.2855 113.495 46.1242 112.883 45.8016C112.272 45.4643 111.792 45.0097 111.442 44.4378C111.107 43.8659 110.896 43.2206 110.809 42.5021C110.765 42.1501 110.729 41.8202 110.7 41.5122C110.685 41.2043 110.678 40.8963 110.678 40.5884C110.678 40.0018 110.722 39.3492 110.809 38.6306C110.925 37.5455 111.333 36.6436 112.032 35.925C112.745 35.2065 113.713 34.8472 114.936 34.8472C115.823 34.8472 116.537 35.0085 117.075 35.3311C117.614 35.6537 118.021 36.0717 118.298 36.5849C118.574 37.0982 118.756 37.6408 118.844 38.2127C118.946 38.7846 118.997 39.3125 118.997 39.7965L118.56 40.9623L111.966 40.9403V39.4225H117.337C117.337 38.9239 117.272 38.4473 117.141 37.9927C117.024 37.5235 116.791 37.1422 116.442 36.8489C116.093 36.541 115.591 36.387 114.936 36.387C114.164 36.387 113.567 36.6289 113.145 37.1129C112.723 37.5821 112.483 38.1247 112.425 38.7406C112.396 39.1072 112.366 39.6132 112.337 40.2584C112.323 40.889 112.359 41.6075 112.447 42.4141C112.519 43.0447 112.759 43.6019 113.167 44.0858C113.589 44.5551 114.244 44.7897 115.132 44.7897C115.685 44.7897 116.209 44.7017 116.704 44.5258C117.214 44.3498 117.672 44.1005 118.08 43.7779L118.604 45.1197C118.007 45.545 117.461 45.8456 116.966 46.0216C116.471 46.1975 115.86 46.2855 115.132 46.2855Z" fill="#FAF5FF"/>
<path d="M121.408 50.4649V35.0672H123.155V35.6831C123.446 35.4338 123.824 35.2358 124.29 35.0892C124.756 34.9279 125.243 34.8472 125.753 34.8472C127.019 34.8472 127.987 35.1992 128.657 35.903C129.326 36.5923 129.712 37.4941 129.814 38.6086C129.843 38.9753 129.865 39.3125 129.879 39.6205C129.894 39.9285 129.901 40.2364 129.901 40.5444C129.901 40.8377 129.894 41.1456 129.879 41.4682C129.865 41.7762 129.843 42.1208 129.814 42.5021C129.712 43.6166 129.326 44.5258 128.657 45.2297C127.987 45.9336 127.019 46.2855 125.753 46.2855C125.505 46.2855 125.309 46.2708 125.163 46.2415C125.032 46.2269 124.879 46.2049 124.705 46.1755L123.613 45.4716C123.497 45.3983 123.388 45.391 123.286 45.4496C123.198 45.4936 123.155 45.5816 123.155 45.7136V50.4649H121.408ZM125.556 44.7897C126.43 44.7897 127.056 44.5551 127.434 44.0858C127.827 43.6166 128.053 43.052 128.111 42.3921C128.154 41.7908 128.176 41.1823 128.176 40.5664C128.191 39.9505 128.169 39.3419 128.111 38.7406C128.053 38.0807 127.827 37.5235 127.434 37.0689C127.056 36.6143 126.43 36.387 125.556 36.387C124.799 36.387 124.21 36.563 123.788 36.9149C123.366 37.2522 123.155 37.7214 123.155 38.3227V42.81C123.155 43.3966 123.366 43.8732 123.788 44.2398C124.21 44.6064 124.799 44.7897 125.556 44.7897Z" fill="#FAF5FF"/>
<path d="M132.528 46.0655V35.0672H136.676C137.782 35.0672 138.641 35.3311 139.252 35.8591C139.878 36.3723 140.191 37.1055 140.191 38.0587C140.191 38.616 140.038 39.0999 139.733 39.5105C139.442 39.9211 139.041 40.2291 138.532 40.4344C139.129 40.625 139.594 40.9476 139.929 41.4022C140.279 41.8422 140.453 42.3848 140.453 43.03C140.453 43.9979 140.126 44.7457 139.471 45.2737C138.83 45.8016 137.92 46.0655 136.741 46.0655H132.528ZM134.209 44.6138H136.632C137.287 44.6138 137.789 44.4744 138.139 44.1958C138.503 43.9025 138.685 43.4919 138.685 42.964C138.685 42.4507 138.503 42.0401 138.139 41.7322C137.789 41.4242 137.287 41.2703 136.632 41.2703H134.209V44.6138ZM134.209 39.8185H136.545C137.142 39.8185 137.6 39.6718 137.921 39.3785C138.255 39.0852 138.423 38.682 138.423 38.1687C138.423 37.6555 138.255 37.2522 137.921 36.9589C137.6 36.6656 137.142 36.519 136.545 36.519H134.209V39.8185Z" fill="#FAF5FF"/>
<path d="M143.072 46.0655V35.0672H144.818V41.7762L144.578 43.25C144.564 43.3526 144.593 43.4259 144.665 43.4699C144.738 43.4993 144.804 43.4626 144.862 43.36L149.731 35.0672H151.368V46.0655H149.622V39.3785L149.84 37.9487C149.869 37.8314 149.847 37.7581 149.775 37.7288C149.702 37.6848 149.622 37.7361 149.534 37.8828L144.731 46.0655H143.072Z" fill="#FAF5FF"/>
<path d="M158.351 46.3735C157.084 46.3735 156.095 46.0142 155.381 45.2957C154.668 44.5624 154.246 43.6459 154.115 42.5461C154.028 41.8128 153.984 41.1603 153.984 40.5884C153.984 40.2804 153.991 39.9724 154.006 39.6645C154.035 39.3419 154.071 38.9973 154.115 38.6306C154.246 37.5308 154.668 36.6216 155.381 35.903C156.095 35.1698 157.084 34.8032 158.351 34.8032C158.991 34.8032 159.544 34.8839 160.01 35.0452C160.476 35.2065 160.949 35.4484 161.429 35.7711L160.905 37.2009C160.498 36.9369 160.097 36.7389 159.704 36.6069C159.311 36.4603 158.868 36.387 158.373 36.387C157.572 36.387 156.946 36.6216 156.495 37.0909C156.058 37.5455 155.818 38.0954 155.774 38.7406C155.731 39.4299 155.702 40.0531 155.687 40.6104C155.687 41.1529 155.716 41.7615 155.774 42.4361C155.833 43.0667 156.08 43.6166 156.517 44.0858C156.953 44.5551 157.572 44.7897 158.373 44.7897C158.853 44.7897 159.311 44.7237 159.748 44.5918C160.199 44.4598 160.629 44.2618 161.036 43.9979L161.538 45.3177C160.985 45.6843 160.461 45.9482 159.966 46.1095C159.486 46.2855 158.948 46.3735 158.351 46.3735Z" fill="#FAF5FF"/>
</svg>
