<svg width="171" height="64" viewBox="0 0 171 64" fill="none" xmlns="http://www.w3.org/2000/svg">
<path d="M32.0537 51.3684C21.1668 51.3684 12.312 42.5866 12.312 31.7895C12.312 20.9923 21.1668 12.2105 32.0537 12.2105C42.9405 12.2105 51.7954 20.9923 51.7954 31.7895C51.7954 42.5866 42.9405 51.3684 32.0537 51.3684ZM32.0537 14.4151C22.3922 14.4151 14.5288 22.2137 14.5288 31.7956C14.5288 41.3774 22.3922 49.176 32.0537 49.176C41.7152 49.176 49.5786 41.3774 49.5786 31.7956C49.5786 22.2137 41.7152 14.4151 32.0537 14.4151Z" fill="#7639B2"/>
<path d="M32.266 58.1053C17.9835 58.1053 6.36828 46.4852 6.36828 32.2105C6.36828 17.9359 17.9835 6.31579 32.266 6.31579V8.52796C19.2065 8.52796 8.58071 19.1525 8.58071 32.2105C8.58071 45.2685 19.2065 55.8931 32.266 55.8931V58.1053Z" fill="#7639B2"/>
<path d="M32.266 64C14.4743 64 0 49.645 0 32C0 14.355 14.4743 0 32.266 0V2.20563C15.6975 2.20563 2.22396 15.5681 2.22396 32C2.22396 48.4319 15.6975 61.7944 32.266 61.7944V64Z" fill="#7639B2"/>
<path d="M32.266 18.5263C24.7713 18.5263 18.6803 24.5732 18.6803 32C18.6803 39.4268 24.7775 45.4737 32.266 45.4737C39.7545 45.4737 45.8516 39.4268 45.8516 32C45.8516 24.5732 39.7545 18.5263 32.266 18.5263ZM20.9064 32C20.9064 26.1616 25.4082 21.3474 31.1529 20.7893V43.2107C25.4082 42.6526 20.9064 37.8384 20.9064 32ZM33.379 43.2107V20.7893C39.1237 21.3474 43.6255 26.1616 43.6255 32C43.6255 37.8384 39.1237 42.6526 33.379 43.2107Z" fill="#7639B2"/>
<path d="M64.3469 34.6587V29.2319C64.3469 28.9746 64.2267 28.861 63.9864 28.8913L62.5219 29.0048C61.9662 28.9292 61.4404 28.7248 60.9448 28.3918C60.4491 28.0587 60.036 27.6273 59.7056 27.0975C59.3751 26.5677 59.1648 25.9698 59.0747 25.3037C59.0297 24.9253 58.9921 24.5771 58.9621 24.2592C58.947 23.9262 58.9395 23.6007 58.9395 23.2828C58.9395 22.965 58.947 22.6471 58.9621 22.3292C58.9921 21.9962 59.0297 21.6404 59.0747 21.262C59.1348 20.5959 59.3301 19.998 59.6605 19.4682C60.006 18.9384 60.4266 18.5069 60.9222 18.1739C61.4329 17.8258 61.9662 17.6214 62.5219 17.5608L63.9864 17.6744C64.2267 17.7047 64.3469 17.5911 64.3469 17.3338V11.907H66.0142V17.3338C66.0142 17.5911 66.1343 17.7047 66.3747 17.6744L67.8392 17.5608C68.3949 17.6214 68.9206 17.8258 69.4163 18.1739C69.912 18.5069 70.3251 18.9384 70.6555 19.4682C71.001 19.998 71.2113 20.5959 71.2864 21.262C71.3314 21.6404 71.3615 21.9962 71.3765 22.3292C71.4065 22.6471 71.4216 22.965 71.4216 23.2828C71.4216 23.6007 71.4065 23.9262 71.3765 24.2592C71.3615 24.5771 71.3314 24.9253 71.2864 25.3037C71.2113 25.9698 71.001 26.5677 70.6555 27.0975C70.3251 27.6273 69.912 28.0587 69.4163 28.3918C68.9206 28.7248 68.3949 28.9292 67.8392 29.0048L66.3747 28.8913C66.1343 28.861 66.0142 28.9746 66.0142 29.2319V34.6587H64.3469ZM64.3469 27.7333V18.8324C63.1903 18.8324 62.3342 19.0897 61.7784 19.6044C61.2227 20.1191 60.9072 20.7095 60.8321 21.3755C60.8021 21.7237 60.772 22.0567 60.742 22.3746C60.727 22.6925 60.7195 23.0028 60.7195 23.3056C60.7195 23.8808 60.7645 24.509 60.8546 25.1902C60.9598 25.8562 61.2752 26.4466 61.8009 26.9613C62.3417 27.4759 63.1903 27.7333 64.3469 27.7333ZM66.0142 27.7333C67.1708 27.7333 68.0119 27.4759 68.5376 26.9613C69.0784 26.4466 69.4013 25.8562 69.5064 25.1902C69.5665 24.842 69.6041 24.5166 69.6191 24.2138C69.6491 23.8959 69.6642 23.5932 69.6642 23.3056C69.6642 22.7152 69.6191 22.0718 69.529 21.3755C69.4539 20.7095 69.1384 20.1191 68.5827 19.6044C68.0269 19.0897 67.1708 18.8324 66.0142 18.8324V27.7333Z" fill="#160F1A"/>
<path d="M74.1267 28.9367V17.5836H75.9291V24.509L75.6813 26.0303C75.6663 26.1363 75.6963 26.212 75.7714 26.2574C75.8465 26.2876 75.9141 26.2498 75.9742 26.1438L80.9985 17.5836H82.6883V28.9367H80.8859V22.034L81.1112 20.5581C81.1412 20.437 81.1187 20.3613 81.0436 20.331C80.9685 20.2856 80.8859 20.3386 80.7958 20.49L75.839 28.9367H74.1267Z" fill="#160F1A"/>
<path d="M88.6546 29.0957C87.8435 29.0957 87.115 29.0048 86.4691 28.8232C85.8232 28.6264 85.1999 28.3009 84.599 27.8468L85.2074 26.3709C85.5078 26.6131 85.8307 26.8175 86.1762 26.984C86.5367 27.1505 86.9047 27.2716 87.2802 27.3473C87.6707 27.423 88.0613 27.4608 88.4518 27.4608C89.4131 27.4608 90.1116 27.3019 90.5472 26.984C90.9978 26.651 91.2231 26.2044 91.2231 25.6443C91.2231 25.1296 91.0353 24.7133 90.6598 24.3955C90.2843 24.0624 89.7285 23.8959 88.9925 23.8959H87.0774V22.3292H88.9925C89.6234 22.3292 90.104 22.1778 90.4345 21.8751C90.7649 21.5723 90.9302 21.1484 90.9302 20.6035C90.9302 20.0888 90.7124 19.6801 90.2768 19.3774C89.8562 19.0746 89.2554 18.9232 88.4743 18.9232C87.9937 18.9232 87.483 18.9838 86.9422 19.1049C86.4015 19.226 85.9208 19.4228 85.5003 19.6952L84.937 18.242C85.5078 17.8939 86.0861 17.6517 86.6719 17.5154C87.2577 17.3792 87.8885 17.3111 88.5645 17.3111C89.0151 17.3111 89.4807 17.3716 89.9614 17.4927C90.442 17.5987 90.8851 17.7803 91.2907 18.0377C91.7112 18.2799 92.0492 18.6129 92.3046 19.0368C92.5599 19.4455 92.6876 19.9526 92.6876 20.5581C92.6876 21.2544 92.4998 21.8145 92.1243 22.2384C91.7638 22.6622 91.3432 22.9498 90.8626 23.1012C91.2081 23.192 91.5385 23.3434 91.8539 23.5553C92.1844 23.7672 92.4548 24.0473 92.665 24.3955C92.8904 24.7436 93.003 25.1826 93.003 25.7124C93.003 26.5298 92.7852 27.1883 92.3496 27.6879C91.929 28.1874 91.3808 28.5507 90.7049 28.7778C90.044 28.9897 89.3605 29.0957 88.6546 29.0957Z" fill="#160F1A"/>
<path d="M95.7121 28.9367V17.5836H97.5146V24.509L97.2668 26.0303C97.2517 26.1363 97.2818 26.212 97.3569 26.2574C97.432 26.2876 97.4996 26.2498 97.5597 26.1438L102.584 17.5836H104.274V28.9367H102.471V22.034L102.697 20.5581C102.727 20.437 102.704 20.3613 102.629 20.331C102.554 20.2856 102.471 20.3386 102.381 20.49L97.4245 28.9367H95.7121Z" fill="#160F1A"/>
<path d="M107.649 28.9367V17.5836H109.497V22.3519H111.051L113.913 17.5836H115.828L112.38 23.4645L112.133 22.3292L116.03 28.9367H114.003L111.006 23.9413H109.497V28.9367H107.649Z" fill="#160F1A"/>
<path d="M124.447 29.2092L123.703 28.0966C123.613 27.9603 123.508 27.9452 123.388 28.0512C123.027 28.3691 122.644 28.6415 122.239 28.8686C121.848 29.0805 121.322 29.1865 120.661 29.1865C119.595 29.1865 118.746 28.8913 118.115 28.3009C117.485 27.7106 117.169 26.9386 117.169 25.9849C117.169 25.3037 117.312 24.7285 117.597 24.2592C117.898 23.79 118.318 23.4342 118.859 23.192C119.4 22.9347 120.031 22.806 120.752 22.806H123.388V21.1712C123.388 20.5202 123.2 19.998 122.824 19.6044C122.449 19.2108 121.856 19.0141 121.044 19.0141C120.459 19.0141 119.933 19.1049 119.467 19.2865C119.002 19.453 118.528 19.7255 118.048 20.104L117.485 18.5145C118.055 18.0755 118.634 17.7652 119.219 17.5836C119.805 17.4019 120.451 17.3111 121.157 17.3111C122.494 17.3111 123.485 17.6592 124.131 18.3556C124.792 19.0519 125.122 19.9223 125.122 20.9668V26.7569L126.091 28.2101L124.447 29.2092ZM120.752 27.6198C121.563 27.6198 122.201 27.423 122.667 27.0294C123.147 26.6358 123.388 26.1136 123.388 25.4627V24.4409C123.388 24.1533 123.252 24.0473 122.982 24.123L121.743 24.3955H120.887C120.286 24.3955 119.813 24.5317 119.467 24.8042C119.137 25.0615 118.972 25.4324 118.972 25.9168C118.972 26.4163 119.129 26.825 119.445 27.1429C119.775 27.4608 120.211 27.6198 120.752 27.6198Z" fill="#160F1A"/>
<path d="M63.4457 47.8696C62.1389 47.8696 61.1175 47.4988 60.3815 46.757C59.6455 46.0002 59.2099 45.0541 59.0747 43.9187C58.9846 43.1619 58.9395 42.4882 58.9395 41.8979C58.9395 41.58 58.947 41.2621 58.9621 40.9442C58.9921 40.6112 59.0297 40.2555 59.0747 39.877C59.2099 38.7417 59.6455 37.8032 60.3815 37.0614C61.1175 36.3046 62.1389 35.9261 63.4457 35.9261C64.1066 35.9261 64.6774 36.0094 65.158 36.1759C65.6387 36.3424 66.1268 36.5922 66.6225 36.9252L66.0818 38.4011C65.6612 38.1286 65.2481 37.9243 64.8426 37.788C64.437 37.6367 63.9789 37.561 63.4682 37.561C62.6421 37.561 61.9962 37.8032 61.5306 38.2876C61.08 38.7568 60.8321 39.3245 60.7871 39.9905C60.742 40.702 60.712 41.3454 60.6969 41.9206C60.6969 42.4807 60.727 43.1089 60.7871 43.8052C60.8471 44.4561 61.1025 45.0238 61.5531 45.5082C62.0037 45.9926 62.6421 46.2348 63.4682 46.2348C63.9639 46.2348 64.437 46.1667 64.8876 46.0304C65.3533 45.8942 65.7964 45.6898 66.217 45.4174L66.7352 46.7797C66.1644 47.1582 65.6237 47.4307 65.113 47.5972C64.6173 47.7788 64.0615 47.8696 63.4457 47.8696Z" fill="#160F1A"/>
<path d="M72.7004 47.7788C71.7841 47.7788 71.0106 47.6123 70.3797 47.2793C69.7488 46.9311 69.2532 46.4618 68.8927 45.8715C68.5472 45.2811 68.3294 44.6151 68.2393 43.8733C68.1942 43.51 68.1567 43.1694 68.1266 42.8515C68.1116 42.5337 68.1041 42.2158 68.1041 41.8979C68.1041 41.2924 68.1491 40.6188 68.2393 39.877C68.3594 38.7568 68.78 37.8259 69.501 37.0841C70.237 36.3424 71.2359 35.9715 72.4976 35.9715C73.4138 35.9715 74.1498 36.138 74.7056 36.4711C75.2613 36.8041 75.6819 37.2355 75.9673 37.7653C76.2527 38.2951 76.4405 38.8552 76.5306 39.4456C76.6357 40.036 76.6883 40.5809 76.6883 41.0804L76.2377 42.2839L69.4334 42.2612V40.6944H74.976C74.976 40.1798 74.9084 39.6878 74.7732 39.2185C74.653 38.7341 74.4127 38.3406 74.0522 38.0378C73.6917 37.7199 73.1735 37.561 72.4976 37.561C71.7015 37.561 71.0857 37.8107 70.6501 38.3103C70.2145 38.7947 69.9666 39.3548 69.9065 39.9905C69.8765 40.369 69.8465 40.8912 69.8164 41.5573C69.8014 42.2082 69.839 42.9499 69.9291 43.7825C70.0042 44.4334 70.252 45.0086 70.6726 45.5082C71.1082 45.9926 71.7841 46.2348 72.7004 46.2348C73.2711 46.2348 73.8119 46.144 74.3226 45.9623C74.8483 45.7807 75.3214 45.5233 75.742 45.1903L76.2827 46.5754C75.6669 47.0144 75.1036 47.3247 74.5929 47.5063C74.0822 47.688 73.4514 47.7788 72.7004 47.7788Z" fill="#160F1A"/>
<path d="M80.9672 47.5518V37.788H77.4975V36.1986H86.2394V37.788H82.7697V47.5518H80.9672Z" fill="#160F1A"/>
<path d="M88.3853 47.5518V36.1986H90.1877V43.124L89.9399 44.6453C89.9249 44.7513 89.9549 44.827 90.03 44.8724C90.1051 44.9027 90.1727 44.8648 90.2328 44.7589L95.2571 36.1986H96.9469V47.5518H95.1445V40.649L95.3698 39.1731C95.3998 39.052 95.3773 38.9763 95.3022 38.9461C95.2271 38.9006 95.1445 38.9536 95.0544 39.105L90.0976 47.5518H88.3853Z" fill="#160F1A"/>
<path d="M109.554 47.8696C108.248 47.8696 107.226 47.4988 106.49 46.757C105.754 46.0002 105.319 45.0541 105.184 43.9187C105.093 43.1619 105.048 42.4882 105.048 41.8979C105.048 41.58 105.056 41.2621 105.071 40.9442C105.101 40.6112 105.138 40.2555 105.184 39.877C105.319 38.7417 105.754 37.8032 106.49 37.0614C107.226 36.3046 108.248 35.9261 109.554 35.9261C110.215 35.9261 110.786 36.0094 111.267 36.1759C111.747 36.3424 112.236 36.5922 112.731 36.9252L112.191 38.4011C111.77 38.1286 111.357 37.9243 110.951 37.788C110.546 37.6367 110.088 37.561 109.577 37.561C108.751 37.561 108.105 37.8032 107.639 38.2876C107.189 38.7568 106.941 39.3245 106.896 39.9905C106.851 40.702 106.821 41.3454 106.806 41.9206C106.806 42.4807 106.836 43.1089 106.896 43.8052C106.956 44.4561 107.211 45.0238 107.662 45.5082C108.112 45.9926 108.751 46.2348 109.577 46.2348C110.073 46.2348 110.546 46.1667 110.996 46.0304C111.462 45.8942 111.905 45.6898 112.326 45.4174L112.844 46.7797C112.273 47.1582 111.732 47.4307 111.222 47.5972C110.726 47.7788 110.17 47.8696 109.554 47.8696Z" fill="#160F1A"/>
<path d="M118.809 47.7788C117.893 47.7788 117.119 47.6123 116.488 47.2793C115.858 46.9311 115.362 46.4618 115.001 45.8715C114.656 45.2811 114.438 44.6151 114.348 43.8733C114.303 43.51 114.265 43.1694 114.235 42.8515C114.22 42.5337 114.213 42.2158 114.213 41.8979C114.213 41.2924 114.258 40.6188 114.348 39.877C114.468 38.7568 114.889 37.8259 115.61 37.0841C116.346 36.3424 117.345 35.9715 118.606 35.9715C119.523 35.9715 120.259 36.138 120.814 36.4711C121.37 36.8041 121.791 37.2355 122.076 37.7653C122.361 38.2951 122.549 38.8552 122.639 39.4456C122.745 40.036 122.797 40.5809 122.797 41.0804L122.346 42.2839L115.542 42.2612V40.6944H121.085C121.085 40.1798 121.017 39.6878 120.882 39.2185C120.762 38.7341 120.521 38.3406 120.161 38.0378C119.8 37.7199 119.282 37.561 118.606 37.561C117.81 37.561 117.194 37.8107 116.759 38.3103C116.323 38.7947 116.075 39.3548 116.015 39.9905C115.985 40.369 115.955 40.8912 115.925 41.5573C115.91 42.2082 115.948 42.9499 116.038 43.7825C116.113 44.4334 116.361 45.0086 116.781 45.5082C117.217 45.9926 117.893 46.2348 118.809 46.2348C119.38 46.2348 119.921 46.144 120.431 45.9623C120.957 45.7807 121.43 45.5233 121.851 45.1903L122.392 46.5754C121.776 47.0144 121.212 47.3247 120.702 47.5063C120.191 47.688 119.56 47.7788 118.809 47.7788Z" fill="#160F1A"/>
<path d="M125.285 52.093V36.1986H127.088V36.8344C127.388 36.577 127.779 36.3727 128.26 36.2213C128.74 36.0548 129.243 35.9715 129.769 35.9715C131.076 35.9715 132.075 36.3348 132.766 37.0614C133.457 37.7729 133.855 38.7039 133.96 39.8543C133.99 40.2327 134.012 40.5809 134.027 40.8988C134.042 41.2167 134.05 41.5346 134.05 41.8525C134.05 42.1552 134.042 42.4731 134.027 42.8061C134.012 43.124 133.99 43.4798 133.96 43.8733C133.855 45.0238 133.457 45.9623 132.766 46.6889C132.075 47.4155 131.076 47.7788 129.769 47.7788C129.514 47.7788 129.311 47.7637 129.161 47.7334C129.026 47.7183 128.868 47.6956 128.688 47.6653L127.561 46.9387C127.441 46.863 127.328 46.8554 127.223 46.916C127.133 46.9614 127.088 47.0522 127.088 47.1885V52.093H125.285ZM129.566 46.2348C130.468 46.2348 131.113 45.9926 131.504 45.5082C131.91 45.0238 132.142 44.441 132.202 43.7598C132.247 43.1392 132.27 42.5109 132.27 41.8752C132.285 41.2394 132.263 40.6112 132.202 39.9905C132.142 39.3094 131.91 38.7341 131.504 38.2649C131.113 37.7956 130.468 37.561 129.566 37.561C128.785 37.561 128.177 37.7426 127.741 38.1059C127.306 38.4541 127.088 38.9385 127.088 39.5591V44.1912C127.088 44.7967 127.306 45.2887 127.741 45.6671C128.177 46.0456 128.785 46.2348 129.566 46.2348Z" fill="#160F1A"/>
<path d="M136.76 47.5518V36.1986H141.041C142.183 36.1986 143.069 36.4711 143.7 37.016C144.346 37.5458 144.669 38.3027 144.669 39.2867C144.669 39.8619 144.511 40.3614 144.195 40.7853C143.895 41.2091 143.482 41.527 142.956 41.7389C143.572 41.9357 144.053 42.2687 144.398 42.738C144.759 43.1921 144.939 43.7522 144.939 44.4183C144.939 45.4174 144.601 46.1894 143.925 46.7343C143.264 47.2793 142.325 47.5518 141.109 47.5518H136.76ZM138.495 46.0531H140.996C141.672 46.0531 142.19 45.9093 142.551 45.6217C142.926 45.319 143.114 44.8951 143.114 44.3502C143.114 43.8203 142.926 43.3965 142.551 43.0786C142.19 42.7607 141.672 42.6018 140.996 42.6018H138.495V46.0531ZM138.495 41.1032H140.906C141.522 41.1032 141.995 40.9518 142.325 40.649C142.671 40.3463 142.844 39.93 142.844 39.4002C142.844 38.8704 142.671 38.4541 142.325 38.1513C141.995 37.8486 141.522 37.6972 140.906 37.6972H138.495V41.1032Z" fill="#160F1A"/>
<path d="M147.641 47.5518V36.1986H149.444V43.124L149.196 44.6453C149.181 44.7513 149.211 44.827 149.286 44.8724C149.361 44.9027 149.429 44.8648 149.489 44.7589L154.513 36.1986H156.203V47.5518H154.4V40.649L154.626 39.1731C154.656 39.052 154.633 38.9763 154.558 38.9461C154.483 38.9006 154.4 38.9536 154.31 39.105L149.353 47.5518H147.641Z" fill="#160F1A"/>
<path d="M163.408 47.8696C162.101 47.8696 161.08 47.4988 160.344 46.757C159.608 46.0002 159.172 45.0541 159.037 43.9187C158.947 43.1619 158.902 42.4882 158.902 41.8979C158.902 41.58 158.91 41.2621 158.925 40.9442C158.955 40.6112 158.992 40.2555 159.037 39.877C159.172 38.7417 159.608 37.8032 160.344 37.0614C161.08 36.3046 162.101 35.9261 163.408 35.9261C164.069 35.9261 164.64 36.0094 165.121 36.1759C165.601 36.3424 166.089 36.5922 166.585 36.9252L166.044 38.4011C165.624 38.1286 165.211 37.9243 164.805 37.788C164.4 37.6367 163.941 37.561 163.431 37.561C162.605 37.561 161.959 37.8032 161.493 38.2876C161.042 38.7568 160.795 39.3245 160.75 39.9905C160.704 40.702 160.674 41.3454 160.659 41.9206C160.659 42.4807 160.689 43.1089 160.75 43.8052C160.81 44.4561 161.065 45.0238 161.516 45.5082C161.966 45.9926 162.605 46.2348 163.431 46.2348C163.926 46.2348 164.4 46.1667 164.85 46.0304C165.316 45.8942 165.759 45.6898 166.179 45.4174L166.698 46.7797C166.127 47.1582 165.586 47.4307 165.075 47.5972C164.58 47.7788 164.024 47.8696 163.408 47.8696Z" fill="#160F1A"/>
</svg>
