<svg width="20" height="16" viewBox="0 0 20 16" fill="none" xmlns="http://www.w3.org/2000/svg">
<path d="M1.54142 8.72579C1.15038 8.72579 0.833374 8.40084 0.833374 7.99998C0.833374 7.59913 1.15038 7.27417 1.54142 7.27417L16.7494 7.27417L11.3497 1.73893C11.0732 1.45548 11.0732 0.996033 11.3497 0.712587C11.6262 0.429141 12.0744 0.429141 12.3509 0.712587L18.9593 7.48681C19.2184 7.75247 19.2348 8.17279 19.0081 8.45786L18.9593 8.51315L12.3509 15.2874L12.2969 15.3375C12.0189 15.5698 11.6088 15.553 11.3497 15.2874C11.0905 15.0217 11.0742 14.6014 11.3008 14.3163L11.3497 14.261L16.7494 8.72579L1.54142 8.72579Z" fill="#E14E6D"/>
</svg>
